<svg xmlns="http://www.w3.org/2000/svg" viewBox="0 0 145.29 26.56"><defs><style>.cls-1{fill:#222221;}</style></defs><title>Asset 9</title><g id="Layer_2" data-name="Layer 2"><g id="Layer_1-2" data-name="Layer 1"><path class="cls-1" d="M16.43,0a13.29,13.29,0,0,0,1.14.69c5,2.31,5.6,8.15,1.17,11.4-.41.3-.79.63-1.38,1.09a11.42,11.42,0,0,0,1.09.86,6.31,6.31,0,0,1,3.19,6.49,6.57,6.57,0,0,1-4,5.22c-.65.32-1.33.55-2,.81H1.76A4.15,4.15,0,0,1,0,22.67C.09,16.34.08,10,0,3.69A4.5,4.5,0,0,1,1.36,0ZM14.82,8.25l-.41-.6c-2.3,0-4.61-.08-6.9.07A2,2,0,0,0,6.23,9.16c-.14,2.63-.11,5.28,0,7.92,0,.55.51,1.53.82,1.54,2.51.13,5,.07,7.56.07l.27-.57L10.22,13.2Z"/><path class="cls-1" d="M145.29,23.79c-2.12,1.09-2.85.63-2.88-1.82,0-1.81,0-3.61,0-5.41l-.54,0-1.38,5.34a3.59,3.59,0,0,1-.45,1.29c-.43.53-1.07,1.38-1.51,1.31A2.48,2.48,0,0,1,136.89,23a43.45,43.45,0,0,1-1.29-4.53c-.21-.72-.47-1.42-.7-2.13l-.49.06c0,1.91.13,3.85-.06,5.75-.08.81-.81,1.55-1.25,2.33-.44-.72-1.24-1.43-1.27-2.17-.15-3.23-.06-6.46-.09-9.69,0-1.37.78-2.3,2-2.22a3.45,3.45,0,0,1,2.56,1.5c.88,2.08,1.33,4.35,2.39,6.62.52-1.78,1-3.57,1.54-5.35,1-3.26,2.33-3.7,5.1-1.71Z"/><path class="cls-1" d="M46,12.84c2.51,1.39,4.08,3.22,3.7,6.21-.43,3.33-2.78,5.39-6.81,5.54-3.7.13-7.41.1-11.1-.05-.64,0-1.25-1-1.87-1.52.66-.59,1.29-1.65,2-1.69,3.1-.19,6.21-.07,9.31-.09,2.27,0,3.29-1,3.24-3C44.4,16,43.43,15,41.16,15H39.58c-4.19,0-4.23,0-4.52,4.06-.08,1.27-.73,1.62-1.8,1.5C32,20.4,30.08,21.26,30,19.1c-.18-3.89-.18-7.8,0-11.69.1-2.15,2-1.31,3.29-1.43s1.73.54,1.78,1.78c.12,3,.16,3,3.18,3h2c2.62,0,3.21-.48,3.23-2.58s-.84-3-3.39-3c-2.85,0-5.69.08-8.52-.08A2.26,2.26,0,0,1,30,3.6C29.93,3.12,30.76,2,31.17,2c4.34,0,8.7,0,13,.34a5.31,5.31,0,0,1,2.6,9.52A6.07,6.07,0,0,0,46,12.84Z"/><path class="cls-1" d="M83.8,24.36c-3.29.58-5.77.51-7.5-2.36-1.18-2-2.79-3.67-4.15-5.53-.82-1.12-1.59-.9-2.48-.13a5.83,5.83,0,0,0-2,5.25c.12,1.49.11,3.12-2.26,3.06-2.87-.07-3-.09-3-3,0-5.81,0-11.63,0-17.44,0-1.68.49-2.42,2.25-2.38s3.11.07,3.09,2.28c0,2.42,0,4.83,0,7.25l.54.27q2.67-2.93,5.33-5.87A9.78,9.78,0,0,0,74.71,4.4C76.63,1.2,79.62,1.74,83,2a14.75,14.75,0,0,1-1.09,1.53C79.94,5.64,78,7.72,76,9.7a2.4,2.4,0,0,0-.26,3.63c2.32,3,4.61,6.09,6.9,9.15C83,23,83.29,23.53,83.8,24.36Z"/><path class="cls-1" d="M116.88,17.25c-.43-3.38,2.91-7.18,6.8-7,4.41.19,6.64,3.22,6.82,7.11a7,7,0,0,1-6.92,7.27C119.55,24.61,116.87,21.67,116.88,17.25Zm3,0c0,2.57.66,3.89,2.31,4.6a3.68,3.68,0,0,0,4.51-1.32c1.26-2.11.83-5.95-.8-7.12a3.51,3.51,0,0,0-4.06-.34C120.13,14,119.8,15.53,119.87,17.26Z"/><path class="cls-1" d="M91.29,16.38c0,2,0,4.08,0,6.12,0,1.49-.75,2.12-2.2,2.13s-3.14.15-3.18-1.94c-.09-4.21-.11-8.42,0-12.63.06-2.27,1.94-1.6,3.28-1.7s2.13.43,2.11,1.9C91.27,12.3,91.29,14.34,91.29,16.38Z"/><path class="cls-1" d="M52.47,16.24c0-2,0-4,0-5.93,0-1.42.6-2.06,2-2s3.18-.48,3.22,1.78q.12,6.32,0,12.64c0,2-1.6,1.84-3,1.87s-2.23-.58-2.22-2.08C52.48,20.45,52.47,18.34,52.47,16.24Z"/><path class="cls-1" d="M110.26,10.21A5.67,5.67,0,0,1,115.39,13c.35.57,0,1.58-.06,2.38-.68-.3-1.59-.43-2-.95-1-1.3-2.11-2.21-3.84-1.8s-3,2.15-3,4.61,1,4.26,2.53,4.69a3.37,3.37,0,0,0,4.16-1.66c.45-.87.91-2.15,2.05-1.27.48.37.51,2,.11,2.71-1.8,3.32-6.69,3.81-9.58,1.1-3.9-3.66-2.46-10.62,2.56-12.29A13.4,13.4,0,0,1,110.26,10.21Z"/><path class="cls-1" d="M88.43,6.41c-1.72.21-2.58-.57-2.56-2.33,0-2,1.46-2,2.9-2s2.57.23,2.55,2.13C91.29,6.23,90.1,6.55,88.43,6.41Z"/><path class="cls-1" d="M55,2.05c1.55-.08,2.81.17,2.82,2.13s-1.05,2.27-2.69,2.27-2.63-.37-2.64-2.27S53.45,1.94,55,2.05Z"/><path class="cls-1" d="M97.9,19.08c1.16,1.36,2.51,2.3,2.39,3-.18.95-1.43,1.71-2.22,2.54-.79-.77-2-1.47-2.21-2.36S96.9,20.52,97.9,19.08Z"/></g></g></svg>