<svg xmlns="http://www.w3.org/2000/svg" viewBox="0 0 43.5 43.5"><defs><style>.cls-1{fill:#fff;stroke:#f2f2f2;stroke-miterlimit:10;stroke-width:0.5px;}.cls-2{fill:#d01920;}</style></defs><title>Asset 115</title><g id="Layer_2" data-name="Layer 2"><g id="Layer_1-2" data-name="Layer 1"><circle class="cls-1" cx="21.75" cy="21.75" r="21.5"/><path class="cls-2" d="M25.7,15.94l.69-2.78-1.69-.42L24,15.45l-1.35-.32.68-2.72L21.66,12,21,14.76l-1.08-.25h0l-2.33-.58-.45,1.81s1.25.28,1.23.3a.91.91,0,0,1,.79,1l-.79,3.17.17.06-.18,0-1.1,4.44a.62.62,0,0,1-.78.4s-1.23-.3-1.23-.3l-.84,1.93,2.2.55,1.21.31-.7,2.82,1.69.42L19.46,28l1.35.35-.69,2.76,1.69.43.7-2.81c2.89.55,5.06.33,6-2.28.74-2.11,0-3.32-1.55-4.11a2.68,2.68,0,0,0,2.16-2.48h0C29.4,17.78,27.83,16.68,25.7,15.94Zm-.48,9.32c-.52,2.1-4.06,1-5.21.68l.93-3.73C22.09,22.5,25.77,23.07,25.22,25.26Zm.53-5.45c-.48,1.91-3.43.94-4.38.7l.84-3.38C23.17,17.37,26.24,17.81,25.75,19.81Z"/></g></g></svg>