<svg xmlns="http://www.w3.org/2000/svg" viewBox="0 0 25.14 20.89"><defs><style>.cls-1{fill:#d01920;}.cls-2{fill:#fff;}</style></defs><title>Asset 43</title><g id="Layer_2" data-name="Layer 2"><g id="Layer_1-2" data-name="Layer 1"><path class="cls-1" d="M25.14,10.47a26.82,26.82,0,0,0-5,4.59c-.79.93-1.51,1.94-2.37,2.82a10,10,0,0,1-6.09,2.93A10.45,10.45,0,0,1,1.21,15.34,10.19,10.19,0,0,1,.08,9.27,10.15,10.15,0,0,1,4.84,1.64,10,10,0,0,1,12.12.15a10.29,10.29,0,0,1,7,4.51A22.46,22.46,0,0,0,25,10.31.47.47,0,0,1,25.14,10.47Z"/><circle class="cls-2" cx="10.57" cy="10.51" r="2.5"/></g></g></svg>