<svg xmlns="http://www.w3.org/2000/svg" viewBox="0 0 41 41"><defs><style>.cls-1{fill:#444;}.cls-2{fill:#fff;}</style></defs><title>Asset 4</title><g id="Layer_2" data-name="Layer 2"><g id="Layer_1-2" data-name="Layer 1"><rect class="cls-1" width="41" height="41" rx="20.5"/><path class="cls-2" d="M24.89,20.25l-4.62,4.64a.38.38,0,0,1-.54,0l-4.62-4.64a.37.37,0,0,1,0-.53l.22-.22a.37.37,0,0,1,.53,0l3.61,3.62V13.38a.38.38,0,0,1,.37-.38h.32a.38.38,0,0,1,.37.38v9.74l3.61-3.62a.37.37,0,0,1,.53,0l.22.22A.37.37,0,0,1,24.89,20.25ZM26,26.62v-.24a.38.38,0,0,0-.38-.38H14.37a.38.38,0,0,0-.37.38v.24a.38.38,0,0,0,.37.38H25.62A.38.38,0,0,0,26,26.62Z"/></g></g></svg>