<svg xmlns="http://www.w3.org/2000/svg" viewBox="0 0 14 14"><defs><style>.cls-1{fill:#f0f0f0;}.cls-2{fill:#0052b4;}.cls-3{fill:#d80027;}</style></defs><title>Asset 87</title><g id="Layer_2" data-name="Layer 2"><g id="Layer_1-2" data-name="Layer 1"><path class="cls-1" d="M14,7A7,7,0,1,1,7,0a7,7,0,0,1,7,7Z"/><path class="cls-2" d="M1.45,2.74A6.93,6.93,0,0,0,.24,5.17H3.88Z"/><path class="cls-2" d="M13.76,5.17a6.93,6.93,0,0,0-1.21-2.43L10.12,5.17Z"/><path class="cls-2" d="M.24,8.83a6.93,6.93,0,0,0,1.21,2.43L3.88,8.83Z"/><path class="cls-2" d="M11.26,1.45A6.93,6.93,0,0,0,8.83.24V3.88Z"/><path class="cls-2" d="M2.74,12.55a6.93,6.93,0,0,0,2.43,1.21V10.12Z"/><path class="cls-2" d="M5.17.24A6.93,6.93,0,0,0,2.74,1.45L5.17,3.88Z"/><path class="cls-2" d="M8.83,13.76a6.93,6.93,0,0,0,2.43-1.21L8.83,10.12Z"/><path class="cls-2" d="M10.12,8.83l2.43,2.43a6.93,6.93,0,0,0,1.21-2.43Z"/><path class="cls-3" d="M13.94,6.09h-6v-6a6.93,6.93,0,0,0-1.82,0v6h-6a6.93,6.93,0,0,0,0,1.82h6v6a6.93,6.93,0,0,0,1.82,0v-6h6a6.93,6.93,0,0,0,0-1.82Z"/><path class="cls-3" d="M8.83,8.83,12,12a5.92,5.92,0,0,0,.41-.45L9.69,8.83Z"/><path class="cls-3" d="M5.17,8.83h0L2.05,12a5.92,5.92,0,0,0,.45.41L5.17,9.69Z"/><path class="cls-3" d="M5.17,5.17,2.05,2.05a5.92,5.92,0,0,0-.41.45L4.31,5.17Z"/><path class="cls-3" d="M8.83,5.17,12,2.05a5.92,5.92,0,0,0-.45-.41L8.83,4.31Z"/></g></g></svg>