<svg xmlns="http://www.w3.org/2000/svg" viewBox="0 0 12 9"><defs><style>.cls-1{fill:#d01920;}</style></defs><title>Asset 76</title><g id="Layer_2" data-name="Layer 2"><g id="Layer_1-2" data-name="Layer 1"><path class="cls-1" d="M10.88,0H1.12A1.12,1.12,0,0,0,0,1.12V7.88A1.12,1.12,0,0,0,1.12,9h9.76A1.12,1.12,0,0,0,12,7.88V1.12A1.12,1.12,0,0,0,10.88,0ZM1.12.75h9.76a.38.38,0,0,1,.37.37v1c-.51.43-1.25,1-3.53,2.84C7.32,5.25,6.54,6,6,6S4.67,5.25,4.28,4.94C2,3.13,1.26,2.53.75,2.1v-1A.38.38,0,0,1,1.12.75Zm9.76,7.5H1.12a.38.38,0,0,1-.37-.37V3.07c.53.44,1.38,1.12,3.06,2.45C4.29,5.91,5.14,6.75,6,6.75s1.69-.83,2.19-1.23c1.68-1.33,2.53-2,3.06-2.45V7.88A.38.38,0,0,1,10.88,8.25Z"/></g></g></svg>