<svg xmlns="http://www.w3.org/2000/svg" viewBox="0 0 43.5 43.5"><defs><style>.cls-1{fill:#fff;stroke:#f2f2f2;stroke-miterlimit:10;stroke-width:0.5px;}.cls-2{fill:#d01920;fill-rule:evenodd;}</style></defs><title>Asset 122</title><g id="Layer_2" data-name="Layer 2"><g id="Layer_1-2" data-name="Layer 1"><circle class="cls-1" cx="21.75" cy="21.75" r="21.5"/><path class="cls-2" d="M24.53,15.82c.56,0,1.11,0,1.67,0h.23V12.92c-.3,0-.61-.07-.92-.08-.57,0-1.14-.06-1.71-.05a4.24,4.24,0,0,0-2.41.75A3.58,3.58,0,0,0,19.94,16a8.64,8.64,0,0,0-.1,1.24c0,.65,0,1.3,0,1.94v.25H17.07V22.6h2.75v8.11h3.36V22.62h2.73c.14-1.08.28-2.14.42-3.25H23.15s0-1.59,0-2.29C23.21,16.13,23.77,15.84,24.53,15.82Z"/></g></g></svg>