<svg xmlns="http://www.w3.org/2000/svg" viewBox="0 0 190.09 190"><defs><style>.cls-1{fill:#202020;}.cls-2{fill:#9f9f9f;}.cls-3{fill:#940000;}.cls-4{fill:gray;}.cls-5{fill:#dfdfdf;}.cls-6{fill:#d01920;}.cls-7{fill:#f6f6f6;}</style></defs><title>Asset 54</title><g id="Layer_2" data-name="Layer 2"><g id="Layer_1-2" data-name="Layer 1"><path class="cls-1" d="M95.09,95,81.87.92A102.55,102.55,0,0,1,95.09,0Z"/><path class="cls-2" d="M95.09,95,30.3,25.52c15-14,31.2-21.73,51.57-24.6Z"/><path class="cls-3" d="M95.09,95,1,81.78C4.16,59.39,13.76,40.94,30.3,25.52Z"/><path class="cls-4" d="M95.09,95,20.23,153.49C3.79,132.44-2.7,108.22,1,81.78Z"/><path class="cls-5" d="M95.09,95l-5,94.87C61.36,188.36,38,176.19,20.23,153.49Z"/><path class="cls-6" d="M95.09,95V0a95,95,0,0,1,0,190c-2,0-2.93,0-5-.13Z"/><circle class="cls-7" cx="95.05" cy="95" r="73.58"/><path class="cls-3" d="M95.07,92.87c-8.49-3.82-12.91-8.21-13-15.41,0-.23,0-.47,0-.7C82.46,69.87,87,64,95.7,62.48c-7.73.8-13.12,5.42-14.29,11.86A21.37,21.37,0,0,0,93.5,111.41h0l.46,0h.1l.52,0c7.41.4,10.47-3.87,10.67-7.58C105.56,98.85,102.4,96.17,95.07,92.87Z"/><path class="cls-6" d="M122.26,91.65a21.37,21.37,0,0,0-19.07-22.41h0l-.45,0h-.1l-.52,0C94.67,68.74,91.61,73,91.4,76.72c-.27,5.08,2.89,7.75,10.23,11.06,8.49,3.82,12.91,8.21,13,15.4,0,.24,0,.47,0,.71-.37,6.89-4.9,12.78-13.62,14.27,7.73-.8,13.12-5.42,14.29-11.85A21.32,21.32,0,0,0,122.26,91.65Z"/></g></g></svg>