<svg xmlns="http://www.w3.org/2000/svg" viewBox="0 0 43.5 43.5"><defs><style>.cls-1{fill:#fff;stroke:#f2f2f2;stroke-miterlimit:10;stroke-width:0.5px;}.cls-2{fill:#d01920;}</style></defs><title>Asset 113</title><g id="Layer_2" data-name="Layer 2"><g id="Layer_1-2" data-name="Layer 1"><circle class="cls-1" cx="21.75" cy="21.75" r="21.5"/><path class="cls-2" d="M29.12,19.65a2.14,2.14,0,0,0-1.52.64,10.25,10.25,0,0,0-5.48-1.69l1.11-5,3.53.79A1.57,1.57,0,0,0,28.32,16a1.59,1.59,0,0,0,0-3.18,1.62,1.62,0,0,0-1.41.88L23,12.81a.37.37,0,0,0-.44.28l-1.22,5.5a10.5,10.5,0,0,0-5.45,1.71,2.11,2.11,0,1,0-2.45,3.36,4.53,4.53,0,0,0-.1,1c0,3.35,3.77,6.07,8.41,6.07S30.2,28,30.2,24.64a3.76,3.76,0,0,0-.13-1,2.11,2.11,0,0,0-.95-4ZM16.69,23.87a1.58,1.58,0,1,1,3.15,0,1.58,1.58,0,0,1-3.15,0Zm8.57,3.74c-1.46,1.45-5.56,1.45-7,0a.37.37,0,0,1,0-.55.39.39,0,0,1,.53,0c1.11,1.14,4.8,1.16,6,0a.37.37,0,0,1,.52,0,.37.37,0,0,1,0,.55Zm0-2.17a1.58,1.58,0,1,1,1.58-1.57A1.57,1.57,0,0,1,25.23,25.44Z"/></g></g></svg>