<svg xmlns="http://www.w3.org/2000/svg" viewBox="0 0 24.4 24.4"><defs><style>.cls-1{fill:#f7931e;}</style></defs><title>Asset 55</title><g id="Layer_2" data-name="Layer 2"><g id="Layer_1-2" data-name="Layer 1"><path class="cls-1" d="M12.2,1.57A10.63,10.63,0,1,1,1.57,12.2,10.64,10.64,0,0,1,12.2,1.57M12.2,0A12.2,12.2,0,1,0,24.4,12.2,12.2,12.2,0,0,0,12.2,0ZM10.43,16.92H11V11h-.59a.59.59,0,0,1-.59-.59V10a.59.59,0,0,1,.59-.6h2.36a.59.59,0,0,1,.59.6v6.88H14a.59.59,0,0,1,.59.59v.4a.59.59,0,0,1-.59.59H10.43a.59.59,0,0,1-.59-.59v-.4A.59.59,0,0,1,10.43,16.92ZM12.2,5.12a1.57,1.57,0,1,0,1.57,1.57A1.57,1.57,0,0,0,12.2,5.12Z"/></g></g></svg>