<svg xmlns="http://www.w3.org/2000/svg" viewBox="0 0 43.5 43.5"><defs><style>.cls-1{fill:#fff;stroke:#f2f2f2;stroke-miterlimit:10;stroke-width:0.5px;}.cls-2{fill:#d01920;}</style></defs><title>Asset 119</title><g id="Layer_2" data-name="Layer 2"><g id="Layer_1-2" data-name="Layer 1"><circle class="cls-1" cx="21.75" cy="21.75" r="21.5"/><path class="cls-2" d="M21.75,17.16a4.59,4.59,0,1,0,4.6,4.59A4.58,4.58,0,0,0,21.75,17.16Zm0,7.58a3,3,0,1,1,3-3,3,3,0,0,1-3,3ZM27.6,17a1.07,1.07,0,1,1-1.07-1.07A1.06,1.06,0,0,1,27.6,17Zm3,1.09A5.33,5.33,0,0,0,29.2,14.3a5.37,5.37,0,0,0-3.75-1.45c-1.48-.08-5.92-.08-7.4,0A5.32,5.32,0,0,0,14.3,14.3a5.32,5.32,0,0,0-1.45,3.75c-.08,1.48-.08,5.91,0,7.39A5.33,5.33,0,0,0,14.3,29.2a5.37,5.37,0,0,0,3.75,1.45c1.48.08,5.92.08,7.4,0a5,5,0,0,0,5.2-5.21c.08-1.48.08-5.9,0-7.38Zm-1.91,9A3,3,0,0,1,27,28.73c-1.18.47-4,.36-5.28.36s-4.1.11-5.28-.36a3,3,0,0,1-1.7-1.7c-.47-1.18-.36-4-.36-5.28s-.11-4.11.36-5.28a3,3,0,0,1,1.7-1.7c1.18-.47,4-.36,5.28-.36s4.11-.11,5.28.36a3,3,0,0,1,1.71,1.7c.46,1.18.36,4,.36,5.28S29.2,25.86,28.74,27Z"/></g></g></svg>