<svg xmlns="http://www.w3.org/2000/svg" viewBox="0 0 42.37 49.27"><defs><style>.cls-1{opacity:0.2;}.cls-2{fill:#020202;}</style></defs><title>Asset 48</title><g id="Layer_2" data-name="Layer 2"><g id="Layer_1-2" data-name="Layer 1"><g class="cls-1"><path class="cls-2" d="M18.28,26.88C10.77,23.51,6.86,19.62,6.77,13.26c0-.21,0-.42,0-.63C7.12,6.54,11.13,1.32,18.84,0,12,.71,7.23,4.8,6.2,10.49a18.91,18.91,0,0,0,10.7,32.8h0l.4,0h.09l.46,0c6.56.36,9.27-3.42,9.45-6.7C27.57,32.18,24.77,29.81,18.28,26.88Z"/><path class="cls-2" d="M42.34,25.81A18.91,18.91,0,0,0,25.47,6h0l-.41,0h-.09l-.46,0c-6.55-.36-9.26,3.42-9.44,6.7-.24,4.49,2.56,6.86,9.05,9.78C31.6,25.76,35.51,29.65,35.6,36c0,.21,0,.42,0,.63C35.25,42.73,31.24,48,23.52,49.27c6.85-.71,11.62-4.8,12.65-10.49A18.87,18.87,0,0,0,42.34,25.81Z"/></g></g></g></svg>