<svg xmlns="http://www.w3.org/2000/svg" viewBox="0 0 18.92 22"><defs><style>.cls-1{fill:#940000;}.cls-2{fill:#d01920;}</style></defs><title>Asset 47</title><g id="Layer_2" data-name="Layer 2"><g id="Layer_1-2" data-name="Layer 1"><path class="cls-1" d="M8.16,12C4.81,10.5,3.06,8.76,3,5.92c0-.09,0-.19,0-.28C3.18,2.92,5,.59,8.41,0c-3,.32-5.18,2.14-5.64,4.68A8.44,8.44,0,0,0,7.54,19.33h0l.18,0h0l.21,0c2.92.16,4.13-1.53,4.21-3C12.31,14.37,11.06,13.31,8.16,12Z"/><path class="cls-2" d="M18.91,11.52a8.45,8.45,0,0,0-7.54-8.85h0l-.18,0h0l-.21,0C8,2.47,6.8,4.16,6.72,5.63c-.11,2,1.14,3.06,4,4.37,3.35,1.5,5.1,3.24,5.14,6.08a2.62,2.62,0,0,0,0,.28C15.74,19.08,14,21.41,10.5,22c3.06-.32,5.19-2.14,5.65-4.68A8.46,8.46,0,0,0,18.91,11.52Z"/></g></g></svg>