<svg xmlns="http://www.w3.org/2000/svg" viewBox="0 0 188.64 74"><defs><style>.cls-1{fill:#940000;}.cls-2{fill:#d01920;}.cls-3{fill:#4d4d4d;}</style></defs><title>Asset 112</title><g id="Layer_2" data-name="Layer 2"><g id="Layer_1-2" data-name="Layer 1"><path class="cls-1" d="M27.46,40.38C16.18,35.3,10.3,29.47,10.17,19.91c0-.31,0-.62,0-.94.5-9.15,6.52-17,18.1-19C18,1.07,10.86,7.2,9.31,15.76A28.39,28.39,0,0,0,25.38,65h.05l.61.06h.13l.69,0C36.71,65.68,40.78,60,41,55.07,41.41,48.33,37.2,44.77,27.46,40.38Z"/><path class="cls-2" d="M63.59,38.76A28.39,28.39,0,0,0,38.26,9H38.2l-.6-.06h-.13l-.7,0C26.93,8.32,22.86,14,22.59,18.93c-.36,6.74,3.84,10.3,13.59,14.69C47.46,38.7,53.34,44.53,53.47,54.09l0,.94c-.5,9.15-6.52,17-18.11,19,10.28-1.07,17.44-7.2,19-15.76A28.3,28.3,0,0,0,63.59,38.76Z"/><path class="cls-3" d="M84.78,44.55a7.44,7.44,0,0,0,1.86-.19,3.25,3.25,0,0,0,1.17-.51,1.74,1.74,0,0,0,.62-.77,2.78,2.78,0,0,0,.17-1,2.28,2.28,0,0,0-1.1-1.92,15.29,15.29,0,0,0-3.75-1.66c-.77-.27-1.54-.58-2.32-.93a9.11,9.11,0,0,1-2.08-1.33,6.6,6.6,0,0,1-1.5-2,6.18,6.18,0,0,1-.58-2.78,6.89,6.89,0,0,1,.62-2.95,6.31,6.31,0,0,1,1.74-2.23,8,8,0,0,1,2.73-1.42A12.51,12.51,0,0,1,86,24.43a14.8,14.8,0,0,1,4.13.51A14.54,14.54,0,0,1,93,26.07l-1.53,4.19a14.83,14.83,0,0,0-2.2-.9A9.6,9.6,0,0,0,86.31,29a5.36,5.36,0,0,0-2.74.52A2,2,0,0,0,83,32.2a2.85,2.85,0,0,0,.87.81,7.75,7.75,0,0,0,1.29.64q.73.3,1.62.6c1.23.46,2.3.9,3.21,1.35a8.63,8.63,0,0,1,2.27,1.55,5.52,5.52,0,0,1,1.34,2.08,8.26,8.26,0,0,1,.45,2.9,6.18,6.18,0,0,1-2.32,5.13c-1.55,1.22-3.88,1.82-7,1.82A20.11,20.11,0,0,1,82,48.9a19.48,19.48,0,0,1-2.24-.46A15.14,15.14,0,0,1,78,47.86c-.46-.21-.86-.4-1.17-.58l1.5-4.23a13.24,13.24,0,0,0,2.6,1A13.51,13.51,0,0,0,84.78,44.55Z"/><path class="cls-3" d="M112.43,25h5.32V48.61h-5.32v-10H103.5v10H98.18V25h5.32v9h8.93Z"/><path class="cls-3" d="M123.21,48.61V25h16v4.46H128.53v4.64H138v4.37h-9.44v5.69H140v4.47Z"/><path class="cls-3" d="M159.73,48.61c-1.53-2.71-3.17-5.38-4.95-8a81.59,81.59,0,0,0-5.66-7.46V48.61h-5.25V25h4.33q1.13,1.13,2.49,2.76t2.78,3.49q1.41,1.86,2.81,3.86c.93,1.33,1.81,2.6,2.63,3.83V25h5.28V48.61Z"/><path class="cls-3" d="M181.17,29.07q-3.71,0-5.37,2.06a8.81,8.81,0,0,0-1.65,5.64,11.47,11.47,0,0,0,.41,3.16,6.93,6.93,0,0,0,1.23,2.44,5.41,5.41,0,0,0,2,1.58,6.78,6.78,0,0,0,2.87.56c.59,0,1.09,0,1.51,0a6.56,6.56,0,0,0,1.11-.14V36.13h5.32V47.82a19.39,19.39,0,0,1-3.07.8,26.45,26.45,0,0,1-5.21.43,13.45,13.45,0,0,1-4.83-.82,10,10,0,0,1-3.7-2.39A10.7,10.7,0,0,1,169.46,42a15,15,0,0,1-.83-5.22,13.89,13.89,0,0,1,.92-5.25,11.28,11.28,0,0,1,2.52-3.87,10.61,10.61,0,0,1,3.77-2.4,12.84,12.84,0,0,1,4.62-.82,18.52,18.52,0,0,1,3,.22,20.67,20.67,0,0,1,2.32.51,12.51,12.51,0,0,1,1.6.6,7.92,7.92,0,0,1,.9.48l-1.53,4.26a14.26,14.26,0,0,0-2.51-1A10.79,10.79,0,0,0,181.17,29.07Z"/></g></g></svg>