<svg xmlns="http://www.w3.org/2000/svg" viewBox="0 0 142.32 55.83"><defs><style>.cls-1{fill:#940000;}.cls-2{fill:#d01920;}.cls-3{fill:#fff;}</style></defs><title>Asset 3</title><g id="Layer_2" data-name="Layer 2"><g id="Layer_1-2" data-name="Layer 1"><path class="cls-1" d="M20.72,30.46C12.2,26.63,7.77,22.23,7.67,15c0-.23,0-.47,0-.71C8.07,7.41,12.61,1.49,21.35,0,13.6.81,8.2,5.44,7,11.89A21.43,21.43,0,0,0,19.15,49.06h0l.45,0h.1l.53,0c7.42.4,10.49-3.89,10.69-7.6C31.24,36.46,28.07,33.78,20.72,30.46Z"/><path class="cls-2" d="M48,29.24A21.43,21.43,0,0,0,28.86,6.77h0l-.45,0h-.1l-.53,0c-7.42-.4-10.49,3.88-10.7,7.6-.27,5.09,2.9,7.77,10.25,11.09,8.51,3.82,13,8.23,13.05,15.44,0,.23,0,.47,0,.71-.37,6.9-4.91,12.81-13.65,14.31C34.41,55,39.81,50.39,41,43.94A21.35,21.35,0,0,0,48,29.24Z"/><path class="cls-3" d="M64,33.61a6,6,0,0,0,1.4-.14,2.62,2.62,0,0,0,.89-.39,1.28,1.28,0,0,0,.46-.58,2,2,0,0,0,.13-.74A1.75,1.75,0,0,0,66,30.3a12,12,0,0,0-2.83-1.24c-.59-.21-1.17-.45-1.75-.71a6.21,6.21,0,0,1-1.57-1,4.66,4.66,0,0,1-1.13-1.46,4.5,4.5,0,0,1-.44-2.1,5.16,5.16,0,0,1,.46-2.22,4.82,4.82,0,0,1,1.31-1.69,6.19,6.19,0,0,1,2.06-1.07,9.59,9.59,0,0,1,2.73-.37,11,11,0,0,1,3.11.39,10.33,10.33,0,0,1,2.16.85L69,22.83a10.91,10.91,0,0,0-1.65-.68,7.13,7.13,0,0,0-2.2-.3,4.13,4.13,0,0,0-2.08.4,1.35,1.35,0,0,0-.63,1.22,1.4,1.4,0,0,0,.24.83,2.23,2.23,0,0,0,.65.6,6.39,6.39,0,0,0,1,.49c.37.15.78.3,1.22.45a24.58,24.58,0,0,1,2.42,1A6.13,6.13,0,0,1,69.63,28a4.35,4.35,0,0,1,1,1.57A6.37,6.37,0,0,1,71,31.78a4.61,4.61,0,0,1-1.75,3.87A8.4,8.4,0,0,1,64,37a15.37,15.37,0,0,1-2.14-.14,14.46,14.46,0,0,1-1.68-.35,9.1,9.1,0,0,1-1.26-.44c-.35-.15-.65-.3-.89-.43l1.13-3.19a10.1,10.1,0,0,0,2,.78A10.28,10.28,0,0,0,64,33.61Z"/><path class="cls-3" d="M84.82,18.84h4V36.67h-4V29.11H78.08v7.56h-4V18.84h4v6.82h6.74Z"/><path class="cls-3" d="M93,36.67V18.84h12v3.37H97v3.5h7.13V29H97v4.3h8.62v3.37Z"/><path class="cls-3" d="M120.5,36.67c-1.15-2-2.39-4.06-3.73-6A62.21,62.21,0,0,0,112.5,25V36.67h-4V18.84h3.27c.56.57,1.19,1.26,1.87,2.09s1.39,1.7,2.1,2.63,1.42,1.91,2.12,2.91,1.37,2,2,2.89V18.84h4V36.67Z"/><path class="cls-3" d="M136.68,21.93a4.88,4.88,0,0,0-4.05,1.56,6.6,6.6,0,0,0-1.25,4.25,8.74,8.74,0,0,0,.31,2.38,5.23,5.23,0,0,0,.93,1.84,4.13,4.13,0,0,0,1.54,1.2,5.2,5.2,0,0,0,2.16.42l1.15,0a4.65,4.65,0,0,0,.83-.11v-6.2h4v8.83a14.45,14.45,0,0,1-2.32.6,19.83,19.83,0,0,1-3.93.32,10.26,10.26,0,0,1-3.64-.61,7.67,7.67,0,0,1-2.8-1.8,8.06,8.06,0,0,1-1.78-2.91,11.43,11.43,0,0,1-.63-3.94,10.6,10.6,0,0,1,.69-4,8.46,8.46,0,0,1,1.91-2.92,7.89,7.89,0,0,1,2.84-1.81,9.81,9.81,0,0,1,3.48-.62,14.32,14.32,0,0,1,2.28.17,15.28,15.28,0,0,1,1.75.38,9.31,9.31,0,0,1,1.21.45l.68.36L140.9,23a11.1,11.1,0,0,0-1.89-.76A8.2,8.2,0,0,0,136.68,21.93Z"/></g></g></svg>