<svg xmlns="http://www.w3.org/2000/svg" viewBox="0 0 27.03 31.43"><defs><style>.cls-1{fill:#fff;}</style></defs><title>Asset 18</title><g id="Layer_2" data-name="Layer 2"><g id="Layer_1-2" data-name="Layer 1"><path class="cls-1" d="M11.66,17.15C6.87,15,4.38,12.52,4.32,8.46c0-.14,0-.27,0-.4C4.54,4.17,7.1.84,12,0,7.66.45,4.61,3.06,4,6.69a12.07,12.07,0,0,0,6.83,20.93h0l.26,0h.06l.29,0c4.18.23,5.91-2.19,6-4.28C17.59,20.53,15.8,19,11.66,17.15Z"/><path class="cls-1" d="M27,16.46A12.07,12.07,0,0,0,16.25,3.81h0l-.26,0h-.06l-.29,0C11.44,3.53,9.71,6,9.6,8c-.16,2.86,1.63,4.37,5.77,6.24,4.79,2.16,7.28,4.63,7.34,8.69,0,.14,0,.27,0,.4-.22,3.89-2.77,7.22-7.69,8.06,4.36-.45,7.4-3.06,8.06-6.69A12,12,0,0,0,27,16.46Z"/></g></g></svg>