<svg xmlns="http://www.w3.org/2000/svg" viewBox="0 0 43.5 43.5"><defs><style>.cls-1{fill:#fff;stroke:#f2f2f2;stroke-miterlimit:10;stroke-width:0.5px;}.cls-2{fill:#d01920;}</style></defs><title>Asset 116</title><g id="Layer_2" data-name="Layer 2"><g id="Layer_1-2" data-name="Layer 1"><circle class="cls-1" cx="21.75" cy="21.75" r="21.5"/><path class="cls-2" d="M14.86,17.51a.73.73,0,0,0-.23-.59l-1.68-2v-.31h5.23l4.05,8.88,3.56-8.88h5v.31l-1.44,1.38a.41.41,0,0,0-.16.4V26.83a.41.41,0,0,0,.16.4l1.41,1.38v.31H23.66v-.31l1.46-1.41c.15-.14.15-.19.15-.4V18.59l-4.06,10.3h-.55l-4.72-10.3v6.9a.93.93,0,0,0,.26.79l1.9,2.3v.31H12.72v-.3l1.9-2.31a.91.91,0,0,0,.24-.79Z"/></g></g></svg>