<svg xmlns="http://www.w3.org/2000/svg" viewBox="0 0 122.13 121.83"><defs><style>.cls-1{opacity:0.15;}.cls-2{fill:#fff;}</style></defs><title>Outline</title><g id="Layer_2" data-name="Layer 2"><g id="Layer_1-2" data-name="Layer 1"><g id="Outline" class="cls-1"><path class="cls-2" d="M72.87,13.11a2.32,2.32,0,0,0,.58.08,2,2,0,0,0,2-1.44l2.36-7.86a2,2,0,0,0-3.89-1.17h0l-2.36,7.86a2,2,0,0,0,1.36,2.53Z"/><path class="cls-2" d="M86.26,16.36A2,2,0,0,0,89,15.55L92.94,8.3a2,2,0,0,0-3.57-1.93L85.44,13.6a2,2,0,0,0,.81,2.76Z"/><path class="cls-2" d="M101.46,23a2,2,0,0,0,1.55-.72l5.34-6.34a2,2,0,1,0-3.07-2.66l0,0-5.33,6.34A2,2,0,0,0,101.46,23Z"/><path class="cls-2" d="M113.84,33.07a2,2,0,0,0,1.31-.48l6.29-5.28a2,2,0,0,0-2.61-3.11l-6.29,5.28a2,2,0,0,0,1.3,3.58Z"/><path class="cls-2" d="M18.92,22.26a2,2,0,0,0,3.14-2.58l0,0L16.68,13.3a2,2,0,0,0-3.1,2.62Z"/><path class="cls-2" d="M32.92,15.54a2,2,0,1,0,3.57-1.94L32.56,6.36A2,2,0,0,0,29,8.3Z"/><path class="cls-2" d="M6.85,32.64a2,2,0,0,0,2.58-3.13l-.1-.08-6-4.64A2,2,0,1,0,.74,27.92l.1.08Z"/><path class="cls-2" d="M46.53,11.75a2,2,0,0,0,1.94,1.44,2.33,2.33,0,0,0,.59-.08,2,2,0,0,0,1.36-2.53h0L48.06,2.72a2,2,0,0,0-3.89,1.17Z"/><path class="cls-2" d="M61,12.18a2,2,0,0,0,2-2V2a2,2,0,0,0-4.06,0v8.12A2,2,0,0,0,61,12.18Z"/><path class="cls-2" d="M33.36,75.25A77.87,77.87,0,0,1,4.67,52.79,82.4,82.4,0,0,1,17.92,39.64a2,2,0,1,0-2.51-3.19A86.38,86.38,0,0,0,.48,51.55,2,2,0,0,0,.48,54,82.19,82.19,0,0,0,31.71,79a2,2,0,1,0,1.65-3.71Z"/><path class="cls-2" d="M121.45,54a2,2,0,0,0,0-2.48C106.08,31.69,84,20.3,61,20.3A72.79,72.79,0,0,0,21.74,32a2,2,0,0,0,2.18,3.42h0a70.72,70.72,0,0,1,16.54-7.75,32.41,32.41,0,0,0-4.72,45.6,32.9,32.9,0,0,0,4.92,4.88v3.11a6.09,6.09,0,1,0,0,12.18H81.27a2,2,0,1,1,0,4.06H40.66a2,2,0,1,0,0,4.06,20.31,20.31,0,1,0,40.61,0,6.07,6.07,0,0,0,4.51-10.15,6.06,6.06,0,0,0-4.51-10.15V78.11A32.33,32.33,0,0,0,92.69,45.86a2,2,0,1,0-4,.82v0A28.25,28.25,0,0,1,78,75.49a2.05,2.05,0,0,0-.81,1.63v4.1H69.09V66.84a16.18,16.18,0,0,0,7.08-19.72,2,2,0,0,0-3.63-.35,4,4,0,0,1-3.45,2A4.07,4.07,0,0,1,65,44.67a4,4,0,0,1,2-3.45,2,2,0,0,0-.35-3.64A16.23,16.23,0,0,0,52.84,66.84V81.22H44.72V77.11a2,2,0,0,0-.81-1.62,28.41,28.41,0,1,1,42.23-35.9,2,2,0,0,0,3.6-1.88,32.61,32.61,0,0,0-8.2-10.07,76.21,76.21,0,0,1,35.72,25.15,77.9,77.9,0,0,1-28.7,22.46A2,2,0,0,0,90.22,79,82.19,82.19,0,0,0,121.45,54ZM61,117.77a16.27,16.27,0,0,1-16.24-16.25H77.21A16.27,16.27,0,0,1,61,117.77ZM83.3,87.31a2,2,0,0,1-2,2H40.66a2,2,0,1,1,0-4.06H81.27A2,2,0,0,1,83.3,87.31ZM55.75,63.78A12.18,12.18,0,0,1,61,40.61a9.58,9.58,0,0,1,1.07,0A8.12,8.12,0,0,0,73.1,51.73c0,.35.05.71.05,1.06a12.23,12.23,0,0,1-7,11A2.07,2.07,0,0,0,65,65.61V81.22H56.9V65.62A2,2,0,0,0,55.75,63.78Z"/><path class="cls-2" d="M103,80.42A2,2,0,0,0,99.91,83l5.33,6.35a2,2,0,0,0,3.11-2.62Z"/><path class="cls-2" d="M115.15,70.09a2,2,0,1,0-2.72,3l.11.09,6.29,5.28a2,2,0,0,0,2.61-3.11Z"/><path class="cls-2" d="M18.92,80.42l-5.34,6.34a2,2,0,1,0,3.1,2.62L22,83A2,2,0,1,0,19,80.39l0,0Z"/><path class="cls-2" d="M6.85,70l-6,4.64A2,2,0,0,0,3.22,78l.1-.08,6-4.64A2,2,0,0,0,7,70,.39.39,0,0,0,6.85,70Z"/></g></g></g></svg>