<svg xmlns="http://www.w3.org/2000/svg" viewBox="0 0 66.65 9"><defs><style>.cls-1{fill:#f7931e;}</style></defs><title>Asset 89</title><g id="Layer_2" data-name="Layer 2"><g id="Layer_1-2" data-name="Layer 1"><path class="cls-1" d="M4.12.31,3,2.59.47,3a.55.55,0,0,0-.3.94L2,5.68,1.56,8.19a.55.55,0,0,0,.8.58L4.61,7.58,6.87,8.77a.55.55,0,0,0,.8-.58L7.24,5.68,9.06,3.9A.55.55,0,0,0,8.76,3L6.24,2.59,5.11.31a.55.55,0,0,0-1,0Z"/><path class="cls-1" d="M18.47.31,17.35,2.59,14.83,3a.55.55,0,0,0-.31.94l1.82,1.78-.43,2.51a.55.55,0,0,0,.8.58L19,7.58l2.25,1.19a.55.55,0,0,0,.8-.58l-.43-2.51L23.42,3.9A.55.55,0,0,0,23.11,3l-2.52-.37L19.46.31a.55.55,0,0,0-1,0Z"/><path class="cls-1" d="M32.83.31,31.7,2.59,29.18,3a.55.55,0,0,0-.31.94L30.7,5.68l-.43,2.51a.55.55,0,0,0,.8.58l2.25-1.19,2.26,1.19a.55.55,0,0,0,.8-.58L36,5.68,37.77,3.9A.55.55,0,0,0,37.46,3l-2.52-.37L33.82.31a.55.55,0,0,0-1,0Z"/><path class="cls-1" d="M47.18.31,46.05,2.59,43.53,3a.55.55,0,0,0-.3.94l1.82,1.78-.43,2.51a.55.55,0,0,0,.8.58l2.26-1.19,2.25,1.19a.55.55,0,0,0,.8-.58L50.3,5.68,52.12,3.9a.55.55,0,0,0-.3-.94L49.3,2.59,48.17.31a.55.55,0,0,0-1,0Z"/><path class="cls-1" d="M66.18,3.13l-2.53-.37L62.52.47A.54.54,0,0,0,62,.17a.55.55,0,0,0-.5.3L60.4,2.76l-2.52.37a.55.55,0,0,0-.31.94L59.4,5.84,59,8.35a.55.55,0,0,0,.54.65.62.62,0,0,0,.26-.06L62,7.75l2.26,1.19a.57.57,0,0,0,.25.06.56.56,0,0,0,.55-.65l-.43-2.51,1.82-1.77a.55.55,0,0,0-.3-.94Zm-2.1,2.12-.31.31.07.42.34,2L62.41,7,62,6.81V1.34l.88,1.78.19.39.43.07,2,.28Z"/></g></g></svg>