<svg xmlns="http://www.w3.org/2000/svg" viewBox="0 0 43.5 43.5"><defs><style>.cls-1{fill:#fff;stroke:#f2f2f2;stroke-miterlimit:10;stroke-width:0.5px;}.cls-2{fill:#d01920;}</style></defs><title>Asset 114</title><g id="Layer_2" data-name="Layer 2"><g id="Layer_1-2" data-name="Layer 1"><circle class="cls-1" cx="21.75" cy="21.75" r="21.5"/><path class="cls-2" d="M19.44,24.86c0,.9-.47,2.36-1.57,2.36s-1.57-1.46-1.57-2.36.46-2.36,1.57-2.36S19.44,24,19.44,24.86ZM32,22.7a9.33,9.33,0,0,1-.75,4.07C29.66,30.05,25.19,30,22,30s-8,.12-9.66-3.2a9.1,9.1,0,0,1-.87-4.07,7.41,7.41,0,0,1,1.78-4.87,6.72,6.72,0,0,1-.33-2.09,4.27,4.27,0,0,1,.62-2.21,6.66,6.66,0,0,1,4.66,1.54,16.23,16.23,0,0,1,3.8-.43,14.84,14.84,0,0,1,3.45.39,6.6,6.6,0,0,1,4.61-1.5,4.19,4.19,0,0,1,.63,2.21,6.55,6.55,0,0,1-.33,2.07A7.38,7.38,0,0,1,32,22.7Zm-2.75,2.16a3.23,3.23,0,0,0-3.15-3.53,17.76,17.76,0,0,0-2.4.25,13.37,13.37,0,0,1-3.86,0,17.76,17.76,0,0,0-2.4-.25c-2,0-3.15,1.65-3.15,3.53,0,3.76,3.44,4.34,6.44,4.34h2.07C25.84,29.2,29.28,28.63,29.28,24.86ZM25.74,22.5c-1.11,0-1.57,1.47-1.57,2.36s.46,2.36,1.57,2.36,1.57-1.46,1.57-2.36S26.84,22.5,25.74,22.5Z"/></g></g></svg>