<svg xmlns="http://www.w3.org/2000/svg" xmlns:xlink="http://www.w3.org/1999/xlink" viewBox="0 0 832.4 378.38"><defs><style>.cls-1{isolation:isolate;}.cls-2,.cls-4,.cls-61,.cls-68,.cls-69,.cls-70,.cls-71,.cls-72{fill:none;stroke-miterlimit:10;}.cls-2,.cls-68,.cls-70,.cls-71,.cls-72{stroke:#5e5e5e;}.cls-3{fill:#5e5e5e;}.cls-4{stroke:#d3dad6;stroke-width:2px;}.cls-5{fill:#f4f4f4;}.cls-6{opacity:0.6;mix-blend-mode:multiply;}.cls-7,.cls-73{fill:#fff;}.cls-7{opacity:0;}.cls-8{fill:#fbfbfb;opacity:0.02;}.cls-9{fill:#f6f7f7;opacity:0.04;}.cls-10{fill:#f2f2f3;opacity:0.06;}.cls-11{fill:#eeeeef;opacity:0.08;}.cls-12{fill:#eaeaeb;opacity:0.1;}.cls-13{fill:#e5e6e8;opacity:0.12;}.cls-14{fill:#e1e2e4;opacity:0.14;}.cls-15{fill:#dddde0;opacity:0.16;}.cls-16{fill:#d8d9dc;opacity:0.18;}.cls-17{fill:#d4d5d8;opacity:0.2;}.cls-18{fill:#d0d1d4;opacity:0.22;}.cls-19{fill:#cbcdd0;opacity:0.24;}.cls-20{fill:#c7c8cc;opacity:0.25;}.cls-21{fill:#c3c4c8;opacity:0.27;}.cls-22{fill:#bfc0c4;opacity:0.29;}.cls-23{fill:#babcc1;opacity:0.31;}.cls-24{fill:#b6b8bd;opacity:0.33;}.cls-25{fill:#b2b3b9;opacity:0.35;}.cls-26{fill:#adafb5;opacity:0.37;}.cls-27{fill:#a9abb1;opacity:0.39;}.cls-28{fill:#a5a7ad;opacity:0.41;}.cls-29{fill:#a1a3a9;opacity:0.43;}.cls-30{fill:#9c9ea5;opacity:0.45;}.cls-31{fill:#989aa1;opacity:0.47;}.cls-32{fill:#94969d;opacity:0.49;}.cls-33{fill:#8f929a;opacity:0.51;}.cls-34{fill:#8b8e96;opacity:0.53;}.cls-35{fill:#878a92;opacity:0.55;}.cls-36{fill:#82858e;opacity:0.57;}.cls-37{fill:#7e818a;opacity:0.59;}.cls-38{fill:#7a7d86;opacity:0.61;}.cls-39{fill:#767982;opacity:0.63;}.cls-40{fill:#71757e;opacity:0.65;}.cls-41{fill:#6d707a;opacity:0.67;}.cls-42{fill:#696c76;opacity:0.69;}.cls-43{fill:#646873;opacity:0.71;}.cls-44{fill:#60646f;opacity:0.73;}.cls-45{fill:#5c606b;opacity:0.75;}.cls-46{fill:#585b67;opacity:0.76;}.cls-47{fill:#535763;opacity:0.78;}.cls-48{fill:#4f535f;opacity:0.8;}.cls-49{fill:#4b4f5b;opacity:0.82;}.cls-50{fill:#464b57;opacity:0.84;}.cls-51{fill:#424653;opacity:0.86;}.cls-52{fill:#3e424f;opacity:0.88;}.cls-53{fill:#393e4c;opacity:0.9;}.cls-54{fill:#353a48;opacity:0.92;}.cls-55{fill:#313644;opacity:0.94;}.cls-56{fill:#2d3140;opacity:0.96;}.cls-57{fill:#282d3c;opacity:0.98;}.cls-58{fill:#242938;}.cls-59{fill:url(#linear-gradient);}.cls-60{fill:#d01920;}.cls-61{stroke:#d01920;stroke-width:1.66px;stroke-dasharray:5.5 5.5;}.cls-61,.cls-68,.cls-69,.cls-70,.cls-71,.cls-72{stroke-linecap:round;}.cls-62{fill:url(#linear-gradient-2);}.cls-63{fill:#4d4d4d;}.cls-64{fill:url(#linear-gradient-3);}.cls-65{fill:url(#linear-gradient-4);}.cls-66{fill:url(#linear-gradient-5);}.cls-67{fill:#ed1c24;}.cls-68{stroke-width:1.69px;}.cls-69{stroke:#fff;}.cls-69,.cls-70,.cls-71{stroke-width:1.63px;}.cls-70{fill-rule:evenodd;}.cls-72{stroke-width:1.78px;}</style><linearGradient id="linear-gradient" x1="3666.55" y1="3493.35" x2="3551.84" y2="3493.35" gradientTransform="translate(3523.98 -3374) rotate(90) scale(0.99)" gradientUnits="userSpaceOnUse"><stop offset="0" stop-color="#d3dad6"/><stop offset="0.39" stop-color="#e1e6e3"/><stop offset="1" stop-color="#fff"/></linearGradient><linearGradient id="linear-gradient-2" x1="3666.55" y1="3320.01" x2="3551.84" y2="3320.01" xlink:href="#linear-gradient"/><linearGradient id="linear-gradient-3" x1="3666.55" y1="3146.67" x2="3551.84" y2="3146.67" xlink:href="#linear-gradient"/><linearGradient id="linear-gradient-4" x1="3666.55" y1="2973.32" x2="3551.84" y2="2973.32" xlink:href="#linear-gradient"/><linearGradient id="linear-gradient-5" x1="3666.55" y1="2799.98" x2="3551.84" y2="2799.98" xlink:href="#linear-gradient"/></defs><title>Asset 51</title><g class="cls-1"><g id="Layer_2" data-name="Layer 2"><g id="Layer_1-2" data-name="Layer 1"><line class="cls-2" x1="75.33" y1="116.2" x2="75.33" y2="2.85"/><path class="cls-3" d="M78.33,3a3,3,0,1,0-3,3A3,3,0,0,0,78.33,3Z"/><line class="cls-2" x1="417.32" y1="115.45" x2="417.32" y2="44.06"/><circle class="cls-3" cx="417.32" cy="44.21" r="3"/><line class="cls-2" x1="759.55" y1="114.38" x2="759.55" y2="22.76"/><circle class="cls-3" cx="759.55" cy="22.9" r="3"/><line class="cls-2" x1="589.3" y1="259.37" x2="589.3" y2="372.72"/><path class="cls-3" d="M586.3,372.57a3,3,0,1,0,3-3A3,3,0,0,0,586.3,372.57Z"/><line class="cls-2" x1="246.42" y1="259.37" x2="246.42" y2="372.72"/><path class="cls-3" d="M243.42,372.57a3,3,0,1,0,3-3A3,3,0,0,0,243.42,372.57Z"/><line class="cls-4" x1="76.04" y1="185.84" x2="808.43" y2="185.84"/><path class="cls-5" d="M13.05,189.28a62.3,62.3,0,1,1,10.56,34.64A62.22,62.22,0,0,1,13.05,189.28Z"/><g class="cls-6"><path class="cls-7" d="M62,271.68c-34.26,0-62-27.42-62-61.24S27.78,149.2,62,149.2s62.05,27.42,62.05,61.24S96.31,271.68,62,271.68Z"/><path class="cls-8" d="M62.21,271c-34,0-61.64-27.25-61.64-60.87S28.16,149.3,62.21,149.3s61.64,27.25,61.64,60.86S96.25,271,62.21,271Z"/><path class="cls-9" d="M62.37,270.38c-33.82,0-61.24-27.08-61.24-60.49S28.55,149.4,62.37,149.4s61.24,27.08,61.24,60.49S96.19,270.38,62.37,270.38Z"/><path class="cls-10" d="M62.54,269.73c-33.61,0-60.84-26.91-60.84-60.11S28.93,149.5,62.54,149.5s60.84,26.92,60.84,60.12S96.14,269.74,62.54,269.73Z"/><path class="cls-11" d="M62.7,269.09c-33.38,0-60.44-26.75-60.44-59.74S29.32,149.6,62.7,149.6s60.44,26.75,60.44,59.75S96.08,269.09,62.7,269.09Z"/><path class="cls-12" d="M62.86,268.44c-33.15,0-60-26.58-60-59.37s26.88-59.36,60-59.36,60,26.58,60,59.36S96,268.44,62.86,268.44Z"/><path class="cls-13" d="M63,267.79c-32.94,0-59.64-26.41-59.64-59s26.7-59,59.64-59,59.64,26.41,59.64,59S96,267.8,63,267.79Z"/><path class="cls-14" d="M63.19,267.15C30.48,267.15,4,240.9,4,208.53s26.52-58.62,59.23-58.62,59.24,26.24,59.24,58.62S95.91,267.15,63.19,267.15Z"/><path class="cls-15" d="M63.36,266.5c-32.5,0-58.84-26.08-58.84-58.25S30.86,150,63.36,150s58.83,26.08,58.83,58.24S95.85,266.5,63.36,266.5Z"/><path class="cls-16" d="M63.52,265.85c-32.27,0-58.43-25.91-58.43-57.87s26.16-57.87,58.43-57.87S122,176,122,208,95.79,265.85,63.52,265.85Z"/><path class="cls-17" d="M63.69,265.2c-32,0-58-25.74-58-57.49s26-57.5,58-57.5,58,25.75,58,57.5S95.74,265.21,63.69,265.2Z"/><path class="cls-18" d="M63.85,264.56C32,264.56,6.22,239,6.22,207.44S32,150.32,63.85,150.32s57.63,25.57,57.63,57.12S95.68,264.56,63.85,264.56Z"/><path class="cls-19" d="M64,263.91c-31.61,0-57.24-25.41-57.24-56.75S32.41,150.42,64,150.42s57.23,25.4,57.23,56.74S95.62,263.91,64,263.91Z"/><path class="cls-20" d="M64.18,263.26c-31.39,0-56.83-25.24-56.83-56.37s25.44-56.37,56.83-56.37S121,175.76,121,206.89,95.57,263.26,64.18,263.26Z"/><path class="cls-21" d="M64.34,262.62c-31.16,0-56.42-25.08-56.42-56s25.26-56,56.42-56,56.43,25.07,56.44,56S95.51,262.62,64.34,262.62Z"/><path class="cls-22" d="M64.51,262a55.84,55.84,0,0,1-56-55.63c0-30.71,25.09-55.62,56-55.62s56,24.91,56,55.62A55.84,55.84,0,0,1,64.51,262Z"/><path class="cls-23" d="M64.67,261.32a55.25,55.25,0,1,1,55.63-55.25A55.44,55.44,0,0,1,64.67,261.32Z"/><path class="cls-24" d="M64.84,260.67a54.87,54.87,0,1,1,55.23-54.87A55,55,0,0,1,64.84,260.67Z"/><path class="cls-25" d="M65,260a54.5,54.5,0,1,1,54.83-54.5A54.66,54.66,0,0,1,65,260Z"/><path class="cls-26" d="M65.17,259.38a54.13,54.13,0,1,1,54.42-54.13A54.28,54.28,0,0,1,65.17,259.38Z"/><path class="cls-27" d="M65.33,258.73a53.75,53.75,0,1,1,54-53.75A53.88,53.88,0,0,1,65.33,258.73Z"/><path class="cls-28" d="M65.49,258.08a53.38,53.38,0,1,1,53.63-53.37A53.49,53.49,0,0,1,65.49,258.08Z"/><path class="cls-29" d="M65.66,257.44a53,53,0,1,1,53.22-53A53.11,53.11,0,0,1,65.66,257.44Z"/><path class="cls-30" d="M65.82,256.79a52.63,52.63,0,1,1,52.83-52.63A52.72,52.72,0,0,1,65.82,256.79Z"/><path class="cls-31" d="M66,256.14a52.25,52.25,0,1,1,52.42-52.25A52.33,52.33,0,0,1,66,256.14Z"/><path class="cls-32" d="M66.15,255.5a51.88,51.88,0,1,1,52-51.88A52,52,0,0,1,66.15,255.5Z"/><path class="cls-33" d="M66.32,254.85a51.51,51.51,0,1,1,51.62-51.51A51.56,51.56,0,0,1,66.32,254.85Z"/><path class="cls-34" d="M66.48,254.2a51.13,51.13,0,1,1,51.22-51.13A51.18,51.18,0,0,1,66.48,254.2Z"/><path class="cls-35" d="M66.65,253.55a50.76,50.76,0,1,1,50.81-50.75A50.78,50.78,0,0,1,66.65,253.55Z"/><path class="cls-36" d="M66.81,252.91a50.38,50.38,0,1,1,50.42-50.38A50.4,50.4,0,0,1,66.81,252.91Z"/><path class="cls-37" d="M67,252.26a50,50,0,1,1,50-50A50,50,0,0,1,67,252.26Z"/><path class="cls-38" d="M67.14,251.61A49.63,49.63,0,1,1,116.76,202,49.62,49.62,0,0,1,67.14,251.61Z"/><path class="cls-39" d="M67.3,251a49.26,49.26,0,1,1,49.22-49.26A49.24,49.24,0,0,1,67.3,251Z"/><path class="cls-40" d="M67.47,250.32a48.89,48.89,0,1,1,48.81-48.89A48.85,48.85,0,0,1,67.47,250.32Z"/><path class="cls-41" d="M67.63,249.67a48.51,48.51,0,1,1,48.42-48.51A48.46,48.46,0,0,1,67.63,249.67Z"/><path class="cls-42" d="M67.8,249a48.13,48.13,0,1,1,48-48.13A48.07,48.07,0,0,1,67.8,249Z"/><path class="cls-43" d="M68,248.38a47.76,47.76,0,1,1,47.61-47.76A47.69,47.69,0,0,1,68,248.38Z"/><path class="cls-44" d="M68.13,247.73a47.39,47.39,0,1,1,47.21-47.39A47.3,47.3,0,0,1,68.13,247.73Z"/><path class="cls-45" d="M68.29,247.08a47,47,0,1,1,46.81-47A46.91,46.91,0,0,1,68.29,247.08Z"/><path class="cls-46" d="M68.45,246.43a46.64,46.64,0,1,1,46.41-46.63A46.52,46.52,0,0,1,68.45,246.43Z"/><path class="cls-47" d="M68.62,245.79a46.27,46.27,0,1,1,46-46.26A46.14,46.14,0,0,1,68.62,245.79Z"/><path class="cls-48" d="M68.78,245.14a45.89,45.89,0,1,1,45.61-45.89A45.74,45.74,0,0,1,68.78,245.14Z"/><path class="cls-49" d="M69,244.49A45.51,45.51,0,1,1,114.15,199,45.35,45.35,0,0,1,69,244.49Z"/><path class="cls-50" d="M69.11,243.85a45.14,45.14,0,1,1,44.81-45.14A45,45,0,0,1,69.11,243.85Z"/><path class="cls-51" d="M69.28,243.2a44.77,44.77,0,1,1,44.4-44.77A44.58,44.58,0,0,1,69.28,243.2Z"/><path class="cls-52" d="M69.44,242.55a44.39,44.39,0,1,1,44-44.39A44.19,44.19,0,0,1,69.44,242.55Z"/><path class="cls-53" d="M69.61,241.9a44,44,0,1,1,43.6-44A43.8,43.8,0,0,1,69.61,241.9Z"/><path class="cls-54" d="M69.77,241.26A43.64,43.64,0,1,1,113,197.62,43.42,43.42,0,0,1,69.77,241.26Z"/><path class="cls-55" d="M69.93,240.61c-23.63,0-42.79-19.37-42.79-43.27s19.16-43.26,42.8-43.26,42.79,19.37,42.79,43.26S93.57,240.61,69.93,240.61Z"/><path class="cls-56" d="M70.1,240c-23.42,0-42.4-19.2-42.4-42.89s19-42.89,42.4-42.89,42.4,19.2,42.4,42.89S93.51,240,70.1,240Z"/><path class="cls-57" d="M70.26,239.31c-23.19,0-42-19-42-42.51s18.8-42.52,42-42.52,42,19,42,42.52S93.46,239.31,70.26,239.31Z"/><path class="cls-58" d="M70.43,238.67c-23,0-41.6-18.87-41.6-42.15s18.63-42.14,41.6-42.14S112,173.25,112,196.52,93.4,238.67,70.43,238.67Z"/></g><path class="cls-59" d="M19.43,188.27A56.62,56.62,0,1,1,36,228.3,56.26,56.26,0,0,1,19.43,188.27Z"/><path class="cls-60" d="M76,242.86a54.59,54.59,0,1,1,54.59-54.59A54.6,54.6,0,0,1,76,242.86Z"/><path class="cls-61" d="M75.46,259.67a72.14,72.14,0,0,1-14-1.38A71.9,71.9,0,0,1,75.2,115.86a72.92,72.92,0,0,1,14,1.37A71.9,71.9,0,0,1,75.46,259.67Z"/><path class="cls-5" d="M184.14,189.28a62.3,62.3,0,1,1,10.56,34.64A62.2,62.2,0,0,1,184.14,189.28Z"/><g class="cls-6"><path class="cls-7" d="M233.13,271.68c-34.26,0-62-27.42-62-61.24s27.78-61.24,62-61.24,62,27.42,62,61.24S267.4,271.68,233.13,271.68Z"/><path class="cls-8" d="M233.3,271c-34.05,0-61.65-27.25-61.65-60.87s27.6-60.86,61.65-60.86,61.64,27.25,61.64,60.86S267.34,271,233.3,271Z"/><path class="cls-9" d="M233.46,270.38c-33.82,0-61.24-27.08-61.24-60.49s27.42-60.49,61.24-60.49,61.24,27.08,61.24,60.49S267.28,270.38,233.46,270.38Z"/><path class="cls-10" d="M233.62,269.73c-33.6,0-60.84-26.91-60.84-60.11S200,149.5,233.62,149.5s60.85,26.92,60.85,60.12S267.22,269.74,233.62,269.73Z"/><path class="cls-11" d="M233.79,269.09c-33.38,0-60.44-26.75-60.44-59.74s27.06-59.75,60.44-59.75,60.44,26.75,60.44,59.75S267.17,269.09,233.79,269.09Z"/><path class="cls-12" d="M234,268.44c-33.15,0-60-26.58-60-59.37s26.88-59.36,60-59.36,60,26.58,60,59.36S267.11,268.44,234,268.44Z"/><path class="cls-13" d="M234.12,267.79c-32.94,0-59.64-26.41-59.64-59s26.7-59,59.64-59,59.64,26.41,59.64,59S267.05,267.8,234.12,267.79Z"/><path class="cls-14" d="M234.28,267.15c-32.71,0-59.23-26.25-59.23-58.62s26.52-58.62,59.23-58.62,59.24,26.24,59.24,58.62S267,267.15,234.28,267.15Z"/><path class="cls-15" d="M234.45,266.5c-32.5,0-58.84-26.08-58.84-58.25S202,150,234.45,150s58.83,26.08,58.83,58.24S266.94,266.5,234.45,266.5Z"/><path class="cls-16" d="M234.61,265.85c-32.27,0-58.43-25.91-58.43-57.87s26.16-57.87,58.43-57.87S293.05,176,293.05,208,266.88,265.85,234.61,265.85Z"/><path class="cls-17" d="M234.78,265.2c-32.06,0-58-25.74-58-57.49s26-57.5,58-57.5,58,25.75,58,57.5S266.83,265.21,234.78,265.2Z"/><path class="cls-18" d="M234.94,264.56c-31.83,0-57.63-25.58-57.63-57.12s25.8-57.12,57.63-57.12,57.63,25.57,57.63,57.12S266.77,264.56,234.94,264.56Z"/><path class="cls-19" d="M235.1,263.91c-31.6,0-57.23-25.41-57.23-56.75s25.63-56.74,57.23-56.74,57.24,25.4,57.24,56.74S266.71,263.91,235.1,263.91Z"/><path class="cls-20" d="M235.27,263.26c-31.39,0-56.83-25.24-56.83-56.37s25.44-56.37,56.83-56.37,56.83,25.24,56.83,56.37S266.66,263.26,235.27,263.26Z"/><path class="cls-21" d="M235.43,262.62c-31.16,0-56.43-25.08-56.43-56s25.27-56,56.43-56,56.43,25.07,56.43,56S266.6,262.62,235.43,262.62Z"/><path class="cls-22" d="M235.6,262a55.63,55.63,0,1,1,0-111.25c30.94,0,56,24.91,56,55.62A55.84,55.84,0,0,1,235.6,262Z"/><path class="cls-23" d="M235.76,261.32a55.25,55.25,0,1,1,55.63-55.25A55.45,55.45,0,0,1,235.76,261.32Z"/><path class="cls-24" d="M235.93,260.67a54.87,54.87,0,1,1,55.22-54.87A55,55,0,0,1,235.93,260.67Z"/><path class="cls-25" d="M236.09,260a54.5,54.5,0,1,1,54.83-54.5A54.66,54.66,0,0,1,236.09,260Z"/><path class="cls-26" d="M236.25,259.38a54.13,54.13,0,1,1,54.43-54.13A54.28,54.28,0,0,1,236.25,259.38Z"/><path class="cls-27" d="M236.42,258.73a53.75,53.75,0,1,1,54-53.75A53.88,53.88,0,0,1,236.42,258.73Z"/><path class="cls-28" d="M236.58,258.08a53.38,53.38,0,1,1,53.63-53.37A53.49,53.49,0,0,1,236.58,258.08Z"/><path class="cls-29" d="M236.75,257.44a53,53,0,1,1,53.22-53A53.11,53.11,0,0,1,236.75,257.44Z"/><path class="cls-30" d="M236.91,256.79a52.63,52.63,0,1,1,52.83-52.63A52.72,52.72,0,0,1,236.91,256.79Z"/><path class="cls-31" d="M237.08,256.14a52.25,52.25,0,1,1,52.42-52.25A52.33,52.33,0,0,1,237.08,256.14Z"/><path class="cls-32" d="M237.24,255.5a51.88,51.88,0,1,1,52-51.88A52,52,0,0,1,237.24,255.5Z"/><path class="cls-33" d="M237.41,254.85A51.51,51.51,0,1,1,289,203.34,51.56,51.56,0,0,1,237.41,254.85Z"/><path class="cls-34" d="M237.57,254.2a51.13,51.13,0,1,1,51.22-51.13A51.17,51.17,0,0,1,237.57,254.2Z"/><path class="cls-35" d="M237.73,253.55a50.76,50.76,0,1,1,50.82-50.75A50.78,50.78,0,0,1,237.73,253.55Z"/><path class="cls-36" d="M237.9,252.91a50.38,50.38,0,1,1,50.42-50.38A50.41,50.41,0,0,1,237.9,252.91Z"/><path class="cls-37" d="M238.06,252.26a50,50,0,1,1,50-50A50,50,0,0,1,238.06,252.26Z"/><path class="cls-38" d="M238.23,251.61A49.63,49.63,0,1,1,287.84,202,49.62,49.62,0,0,1,238.23,251.61Z"/><path class="cls-39" d="M238.39,251a49.26,49.26,0,1,1,49.22-49.26A49.24,49.24,0,0,1,238.39,251Z"/><path class="cls-40" d="M238.56,250.32a48.89,48.89,0,1,1,48.81-48.89A48.85,48.85,0,0,1,238.56,250.32Z"/><path class="cls-41" d="M238.72,249.67a48.51,48.51,0,1,1,48.41-48.51A48.46,48.46,0,0,1,238.72,249.67Z"/><path class="cls-42" d="M238.89,249a48.13,48.13,0,1,1,48-48.13A48.07,48.07,0,0,1,238.89,249Z"/><path class="cls-43" d="M239.05,248.38a47.76,47.76,0,1,1,47.61-47.76A47.69,47.69,0,0,1,239.05,248.38Z"/><path class="cls-44" d="M239.21,247.73a47.39,47.39,0,1,1,47.21-47.39A47.3,47.3,0,0,1,239.21,247.73Z"/><path class="cls-45" d="M239.38,247.08a47,47,0,1,1,46.81-47A46.91,46.91,0,0,1,239.38,247.08Z"/><path class="cls-46" d="M239.54,246.43A46.64,46.64,0,1,1,286,199.8,46.51,46.51,0,0,1,239.54,246.43Z"/><path class="cls-47" d="M239.71,245.79a46.27,46.27,0,1,1,46-46.26A46.14,46.14,0,0,1,239.71,245.79Z"/><path class="cls-48" d="M239.87,245.14a45.89,45.89,0,1,1,45.61-45.89A45.74,45.74,0,0,1,239.87,245.14Z"/><path class="cls-49" d="M240,244.49A45.51,45.51,0,1,1,285.24,199,45.36,45.36,0,0,1,240,244.49Z"/><path class="cls-50" d="M240.2,243.85A45.14,45.14,0,1,1,285,198.71,45,45,0,0,1,240.2,243.85Z"/><path class="cls-51" d="M240.37,243.2a44.77,44.77,0,1,1,44.4-44.77A44.59,44.59,0,0,1,240.37,243.2Z"/><path class="cls-52" d="M240.53,242.55a44.39,44.39,0,1,1,44-44.39A44.19,44.19,0,0,1,240.53,242.55Z"/><path class="cls-53" d="M240.69,241.9a44,44,0,1,1,43.61-44A43.8,43.8,0,0,1,240.69,241.9Z"/><path class="cls-54" d="M240.86,241.26a43.64,43.64,0,1,1,43.2-43.64A43.42,43.42,0,0,1,240.86,241.26Z"/><path class="cls-55" d="M241,240.61c-23.63,0-42.79-19.37-42.79-43.27s19.16-43.26,42.79-43.26,42.8,19.37,42.8,43.26S264.66,240.61,241,240.61Z"/><path class="cls-56" d="M241.19,240c-23.42,0-42.4-19.2-42.4-42.89s19-42.89,42.4-42.89,42.39,19.2,42.4,42.89S264.6,240,241.19,240Z"/><path class="cls-57" d="M241.35,239.31c-23.19,0-42-19-42-42.51s18.8-42.52,42-42.52,42,19,42,42.52S264.55,239.31,241.35,239.31Z"/><path class="cls-58" d="M241.52,238.67c-23,0-41.6-18.87-41.6-42.15s18.62-42.14,41.6-42.14,41.59,18.87,41.59,42.14S264.49,238.67,241.52,238.67Z"/></g><path class="cls-62" d="M190.52,188.27a56.62,56.62,0,1,1,16.58,40A56.26,56.26,0,0,1,190.52,188.27Z"/><path class="cls-63" d="M247.13,242.86a54.59,54.59,0,1,1,54.58-54.59A54.59,54.59,0,0,1,247.13,242.86Z"/><path class="cls-61" d="M246.55,259.67a72.14,72.14,0,0,1-14-1.38,71.9,71.9,0,0,1,13.77-142.43,72.92,72.92,0,0,1,14,1.37,71.9,71.9,0,0,1-13.77,142.44Z"/><path class="cls-5" d="M355.23,189.28a62.31,62.31,0,1,1,10.56,34.64A62.2,62.2,0,0,1,355.23,189.28Z"/><g class="cls-6"><path class="cls-7" d="M404.22,271.68c-34.26,0-62-27.42-62-61.24s27.78-61.24,62-61.24,62,27.42,62,61.24S438.48,271.68,404.22,271.68Z"/><path class="cls-8" d="M404.38,271c-34,0-61.64-27.25-61.64-60.87s27.6-60.86,61.64-60.86S466,176.55,466,210.16,438.43,271,404.38,271Z"/><path class="cls-9" d="M404.55,270.38c-33.82,0-61.24-27.08-61.24-60.49s27.42-60.49,61.24-60.49,61.24,27.08,61.24,60.49S438.37,270.38,404.55,270.38Z"/><path class="cls-10" d="M404.71,269.73c-33.6,0-60.84-26.91-60.84-60.11s27.24-60.12,60.84-60.12,60.84,26.92,60.84,60.12S438.31,269.74,404.71,269.73Z"/><path class="cls-11" d="M404.88,269.09c-33.38,0-60.44-26.75-60.44-59.74s27.06-59.75,60.44-59.75,60.44,26.75,60.44,59.75S438.26,269.09,404.88,269.09Z"/><path class="cls-12" d="M405,268.44c-33.16,0-60-26.58-60-59.37s26.88-59.36,60-59.36,60,26.58,60,59.36S438.2,268.44,405,268.44Z"/><path class="cls-13" d="M405.21,267.79c-32.94,0-59.64-26.41-59.64-59s26.7-59,59.64-59,59.63,26.41,59.63,59S438.14,267.8,405.21,267.79Z"/><path class="cls-14" d="M405.37,267.15c-32.71,0-59.23-26.25-59.23-58.62s26.52-58.62,59.23-58.62,59.24,26.24,59.24,58.62S438.09,267.15,405.37,267.15Z"/><path class="cls-15" d="M405.54,266.5c-32.5,0-58.84-26.08-58.84-58.25S373,150,405.54,150s58.83,26.08,58.83,58.24S438,266.5,405.54,266.5Z"/><path class="cls-16" d="M405.7,265.85c-32.27,0-58.43-25.91-58.43-57.87s26.16-57.87,58.43-57.87S464.13,176,464.14,208,438,265.85,405.7,265.85Z"/><path class="cls-17" d="M405.86,265.2c-32.05,0-58-25.74-58-57.49s26-57.5,58-57.5,58,25.75,58,57.5S437.91,265.21,405.86,265.2Z"/><path class="cls-18" d="M406,264.56c-31.83,0-57.63-25.58-57.63-57.12s25.8-57.12,57.63-57.12,57.63,25.57,57.63,57.12S437.86,264.56,406,264.56Z"/><path class="cls-19" d="M406.19,263.91c-31.6,0-57.23-25.41-57.23-56.75s25.63-56.74,57.23-56.74,57.24,25.4,57.24,56.74S437.8,263.91,406.19,263.91Z"/><path class="cls-20" d="M406.36,263.26c-31.39,0-56.83-25.24-56.83-56.37s25.44-56.37,56.83-56.37,56.83,25.24,56.83,56.37S437.74,263.26,406.36,263.26Z"/><path class="cls-21" d="M406.52,262.62c-31.16,0-56.43-25.08-56.43-56s25.27-56,56.43-56,56.43,25.07,56.43,56S437.69,262.62,406.52,262.62Z"/><path class="cls-22" d="M406.69,262a55.63,55.63,0,1,1,0-111.25c30.94,0,56,24.91,56,55.62A55.84,55.84,0,0,1,406.69,262Z"/><path class="cls-23" d="M406.85,261.32a55.25,55.25,0,1,1,55.63-55.25A55.45,55.45,0,0,1,406.85,261.32Z"/><path class="cls-24" d="M407,260.67a54.87,54.87,0,1,1,55.23-54.87A55,55,0,0,1,407,260.67Z"/><path class="cls-25" d="M407.18,260A54.5,54.5,0,1,1,462,205.53,54.67,54.67,0,0,1,407.18,260Z"/><path class="cls-26" d="M407.34,259.38a54.13,54.13,0,1,1,54.43-54.13A54.28,54.28,0,0,1,407.34,259.38Z"/><path class="cls-27" d="M407.51,258.73a53.75,53.75,0,1,1,54-53.75A53.88,53.88,0,0,1,407.51,258.73Z"/><path class="cls-28" d="M407.67,258.08a53.38,53.38,0,1,1,53.63-53.37A53.49,53.49,0,0,1,407.67,258.08Z"/><path class="cls-29" d="M407.84,257.44a53,53,0,1,1,53.22-53A53.11,53.11,0,0,1,407.84,257.44Z"/><path class="cls-30" d="M408,256.79a52.63,52.63,0,1,1,52.82-52.63A52.72,52.72,0,0,1,408,256.79Z"/><path class="cls-31" d="M408.17,256.14a52.25,52.25,0,1,1,52.42-52.25A52.33,52.33,0,0,1,408.17,256.14Z"/><path class="cls-32" d="M408.33,255.5a51.88,51.88,0,1,1,52-51.88A52,52,0,0,1,408.33,255.5Z"/><path class="cls-33" d="M408.49,254.85a51.51,51.51,0,1,1,51.63-51.51A51.56,51.56,0,0,1,408.49,254.85Z"/><path class="cls-34" d="M408.66,254.2a51.13,51.13,0,1,1,51.22-51.13A51.17,51.17,0,0,1,408.66,254.2Z"/><path class="cls-35" d="M408.82,253.55a50.76,50.76,0,1,1,50.82-50.75A50.78,50.78,0,0,1,408.82,253.55Z"/><path class="cls-36" d="M409,252.91a50.38,50.38,0,1,1,50.42-50.38A50.4,50.4,0,0,1,409,252.91Z"/><path class="cls-37" d="M409.15,252.26a50,50,0,1,1,50-50A50,50,0,0,1,409.15,252.26Z"/><path class="cls-38" d="M409.32,251.61A49.63,49.63,0,1,1,458.93,202,49.63,49.63,0,0,1,409.32,251.61Z"/><path class="cls-39" d="M409.48,251a49.26,49.26,0,1,1,49.22-49.26A49.24,49.24,0,0,1,409.48,251Z"/><path class="cls-40" d="M409.65,250.32a48.89,48.89,0,1,1,48.81-48.89A48.86,48.86,0,0,1,409.65,250.32Z"/><path class="cls-41" d="M409.81,249.67a48.51,48.51,0,1,1,48.41-48.51A48.46,48.46,0,0,1,409.81,249.67Z"/><path class="cls-42" d="M410,249a48.13,48.13,0,1,1,48-48.13A48.07,48.07,0,0,1,410,249Z"/><path class="cls-43" d="M410.14,248.38a47.76,47.76,0,1,1,47.61-47.76A47.69,47.69,0,0,1,410.14,248.38Z"/><path class="cls-44" d="M410.3,247.73a47.39,47.39,0,1,1,47.21-47.39A47.3,47.3,0,0,1,410.3,247.73Z"/><path class="cls-45" d="M410.47,247.08a47,47,0,1,1,46.81-47A46.91,46.91,0,0,1,410.47,247.08Z"/><path class="cls-46" d="M410.63,246.43A46.64,46.64,0,1,1,457,199.8,46.51,46.51,0,0,1,410.63,246.43Z"/><path class="cls-47" d="M410.8,245.79a46.27,46.27,0,1,1,46-46.26A46.14,46.14,0,0,1,410.8,245.79Z"/><path class="cls-48" d="M411,245.14a45.89,45.89,0,1,1,45.61-45.89A45.74,45.74,0,0,1,411,245.14Z"/><path class="cls-49" d="M411.13,244.49A45.51,45.51,0,1,1,456.33,199,45.36,45.36,0,0,1,411.13,244.49Z"/><path class="cls-50" d="M411.29,243.85a45.14,45.14,0,1,1,44.8-45.14A45,45,0,0,1,411.29,243.85Z"/><path class="cls-51" d="M411.45,243.2a44.77,44.77,0,1,1,44.41-44.77A44.58,44.58,0,0,1,411.45,243.2Z"/><path class="cls-52" d="M411.62,242.55a44.39,44.39,0,1,1,44-44.39A44.19,44.19,0,0,1,411.62,242.55Z"/><path class="cls-53" d="M411.78,241.9a44,44,0,1,1,43.61-44A43.8,43.8,0,0,1,411.78,241.9Z"/><path class="cls-54" d="M412,241.26a43.64,43.64,0,1,1,43.2-43.64A43.42,43.42,0,0,1,412,241.26Z"/><path class="cls-55" d="M412.11,240.61c-23.63,0-42.79-19.37-42.79-43.27s19.16-43.26,42.79-43.26,42.8,19.37,42.8,43.26S435.75,240.61,412.11,240.61Z"/><path class="cls-56" d="M412.28,240c-23.42,0-42.4-19.2-42.4-42.89s19-42.89,42.4-42.89,42.39,19.2,42.4,42.89S435.69,240,412.28,240Z"/><path class="cls-57" d="M412.44,239.31c-23.19,0-42-19-42-42.51s18.8-42.52,42-42.52,42,19,42,42.52S435.64,239.31,412.44,239.31Z"/><path class="cls-58" d="M412.6,238.67c-23,0-41.59-18.87-41.59-42.15s18.62-42.14,41.6-42.14,41.59,18.87,41.59,42.14S435.58,238.67,412.6,238.67Z"/></g><path class="cls-64" d="M361.6,188.27a56.64,56.64,0,1,1,16.59,40A56.27,56.27,0,0,1,361.6,188.27Z"/><path class="cls-60" d="M418.22,242.86a54.59,54.59,0,1,1,54.58-54.59A54.59,54.59,0,0,1,418.22,242.86Z"/><path class="cls-61" d="M417.64,259.67a72.14,72.14,0,0,1-14-1.38,71.9,71.9,0,0,1,13.77-142.43,72.92,72.92,0,0,1,14,1.37,71.9,71.9,0,0,1-13.77,142.44Z"/><path class="cls-5" d="M526.32,189.28a62.31,62.31,0,1,1,10.56,34.64A62.2,62.2,0,0,1,526.32,189.28Z"/><g class="cls-6"><path class="cls-7" d="M575.31,271.68c-34.27,0-62-27.42-62-61.24s27.77-61.24,62-61.24,62,27.42,62,61.24S609.57,271.68,575.31,271.68Z"/><path class="cls-8" d="M575.47,271c-34,0-61.64-27.25-61.64-60.87s27.6-60.86,61.64-60.86,61.65,27.25,61.65,60.86S609.52,271,575.47,271Z"/><path class="cls-9" d="M575.64,270.38c-33.82,0-61.24-27.08-61.24-60.49s27.42-60.49,61.24-60.49,61.24,27.08,61.24,60.49S609.46,270.38,575.64,270.38Z"/><path class="cls-10" d="M575.8,269.73c-33.6,0-60.84-26.91-60.84-60.11S542.2,149.5,575.8,149.5s60.84,26.92,60.84,60.12S609.4,269.74,575.8,269.73Z"/><path class="cls-11" d="M576,269.09c-33.38,0-60.44-26.75-60.44-59.74S542.59,149.6,576,149.6s60.44,26.75,60.44,59.75S609.35,269.09,576,269.09Z"/><path class="cls-12" d="M576.13,268.44c-33.16,0-60-26.58-60-59.37s26.88-59.36,60-59.36,60,26.58,60,59.36S609.29,268.44,576.13,268.44Z"/><path class="cls-13" d="M576.3,267.79c-32.94,0-59.64-26.41-59.64-59s26.7-59,59.64-59,59.63,26.41,59.63,59S609.23,267.8,576.3,267.79Z"/><path class="cls-14" d="M576.46,267.15c-32.72,0-59.24-26.25-59.24-58.62s26.52-58.62,59.24-58.62,59.24,26.24,59.24,58.62S609.17,267.15,576.46,267.15Z"/><path class="cls-15" d="M576.62,266.5c-32.49,0-58.83-26.08-58.83-58.25S544.13,150,576.62,150s58.84,26.08,58.84,58.24S609.12,266.5,576.62,266.5Z"/><path class="cls-16" d="M576.79,265.85c-32.27,0-58.44-25.91-58.44-57.87s26.17-57.87,58.44-57.87S635.22,176,635.22,208,609.06,265.85,576.79,265.85Z"/><path class="cls-17" d="M577,265.2c-32.05,0-58-25.74-58-57.49s26-57.5,58-57.5,58,25.75,58,57.5S609,265.21,577,265.2Z"/><path class="cls-18" d="M577.12,264.56c-31.83,0-57.63-25.58-57.63-57.12s25.8-57.12,57.63-57.12,57.63,25.57,57.63,57.12S609,264.56,577.12,264.56Z"/><path class="cls-19" d="M577.28,263.91c-31.61,0-57.23-25.41-57.23-56.75s25.62-56.74,57.23-56.74,57.23,25.4,57.23,56.74S608.89,263.91,577.28,263.91Z"/><path class="cls-20" d="M577.45,263.26c-31.39,0-56.83-25.24-56.83-56.37s25.44-56.37,56.83-56.37,56.83,25.24,56.83,56.37S608.83,263.26,577.45,263.26Z"/><path class="cls-21" d="M577.61,262.62c-31.16,0-56.43-25.08-56.43-56s25.27-56,56.43-56,56.43,25.07,56.43,56S608.78,262.62,577.61,262.62Z"/><path class="cls-22" d="M577.77,262a55.63,55.63,0,1,1,56-55.63A55.83,55.83,0,0,1,577.77,262Z"/><path class="cls-23" d="M577.94,261.32a55.25,55.25,0,1,1,55.63-55.25A55.45,55.45,0,0,1,577.94,261.32Z"/><path class="cls-24" d="M578.1,260.67a54.87,54.87,0,1,1,55.23-54.87A55,55,0,0,1,578.1,260.67Z"/><path class="cls-25" d="M578.27,260a54.5,54.5,0,1,1,54.83-54.5A54.67,54.67,0,0,1,578.27,260Z"/><path class="cls-26" d="M578.43,259.38a54.13,54.13,0,1,1,54.43-54.13A54.27,54.27,0,0,1,578.43,259.38Z"/><path class="cls-27" d="M578.6,258.73a53.75,53.75,0,1,1,54-53.75A53.89,53.89,0,0,1,578.6,258.73Z"/><path class="cls-28" d="M578.76,258.08a53.38,53.38,0,1,1,53.63-53.37A53.49,53.49,0,0,1,578.76,258.08Z"/><path class="cls-29" d="M578.93,257.44a53,53,0,1,1,53.22-53A53.11,53.11,0,0,1,578.93,257.44Z"/><path class="cls-30" d="M579.09,256.79a52.63,52.63,0,1,1,52.82-52.63A52.72,52.72,0,0,1,579.09,256.79Z"/><path class="cls-31" d="M579.25,256.14a52.25,52.25,0,1,1,52.43-52.25A52.33,52.33,0,0,1,579.25,256.14Z"/><path class="cls-32" d="M579.42,255.5a51.88,51.88,0,1,1,52-51.88A52,52,0,0,1,579.42,255.5Z"/><path class="cls-33" d="M579.58,254.85a51.51,51.51,0,1,1,51.62-51.51A51.56,51.56,0,0,1,579.58,254.85Z"/><path class="cls-34" d="M579.75,254.2A51.13,51.13,0,1,1,631,203.07,51.17,51.17,0,0,1,579.75,254.2Z"/><path class="cls-35" d="M579.91,253.55a50.76,50.76,0,1,1,50.82-50.75A50.78,50.78,0,0,1,579.91,253.55Z"/><path class="cls-36" d="M580.08,252.91a50.38,50.38,0,1,1,50.41-50.38A50.4,50.4,0,0,1,580.08,252.91Z"/><path class="cls-37" d="M580.24,252.26a50,50,0,1,1,50-50A50,50,0,0,1,580.24,252.26Z"/><path class="cls-38" d="M580.41,251.61A49.63,49.63,0,1,1,630,202,49.62,49.62,0,0,1,580.41,251.61Z"/><path class="cls-39" d="M580.57,251a49.26,49.26,0,1,1,49.21-49.26A49.24,49.24,0,0,1,580.57,251Z"/><path class="cls-40" d="M580.73,250.32a48.89,48.89,0,1,1,48.82-48.89A48.86,48.86,0,0,1,580.73,250.32Z"/><path class="cls-41" d="M580.9,249.67a48.51,48.51,0,1,1,48.41-48.51A48.46,48.46,0,0,1,580.9,249.67Z"/><path class="cls-42" d="M581.06,249a48.13,48.13,0,1,1,48-48.13A48.07,48.07,0,0,1,581.06,249Z"/><path class="cls-43" d="M581.23,248.38a47.76,47.76,0,1,1,47.61-47.76A47.69,47.69,0,0,1,581.23,248.38Z"/><path class="cls-44" d="M581.39,247.73a47.39,47.39,0,1,1,47.21-47.39A47.3,47.3,0,0,1,581.39,247.73Z"/><path class="cls-45" d="M581.56,247.08a47,47,0,1,1,46.81-47A46.91,46.91,0,0,1,581.56,247.08Z"/><path class="cls-46" d="M581.72,246.43a46.64,46.64,0,1,1,46.41-46.63A46.51,46.51,0,0,1,581.72,246.43Z"/><path class="cls-47" d="M581.89,245.79a46.27,46.27,0,1,1,46-46.26A46.14,46.14,0,0,1,581.89,245.79Z"/><path class="cls-48" d="M582.05,245.14a45.89,45.89,0,1,1,45.61-45.89A45.74,45.74,0,0,1,582.05,245.14Z"/><path class="cls-49" d="M582.21,244.49A45.51,45.51,0,1,1,627.42,199,45.35,45.35,0,0,1,582.21,244.49Z"/><path class="cls-50" d="M582.38,243.85a45.14,45.14,0,1,1,44.8-45.14A45,45,0,0,1,582.38,243.85Z"/><path class="cls-51" d="M582.54,243.2A44.77,44.77,0,1,1,627,198.43,44.58,44.58,0,0,1,582.54,243.2Z"/><path class="cls-52" d="M582.71,242.55a44.39,44.39,0,1,1,44-44.39A44.19,44.19,0,0,1,582.71,242.55Z"/><path class="cls-53" d="M582.87,241.9a44,44,0,1,1,43.6-44A43.8,43.8,0,0,1,582.87,241.9Z"/><path class="cls-54" d="M583,241.26a43.64,43.64,0,1,1,43.2-43.64A43.42,43.42,0,0,1,583,241.26Z"/><path class="cls-55" d="M583.2,240.61c-23.64,0-42.8-19.37-42.8-43.27s19.16-43.26,42.8-43.26S626,173.45,626,197.34,606.84,240.61,583.2,240.61Z"/><path class="cls-56" d="M583.36,240C560,240,541,220.76,541,197.07s19-42.89,42.4-42.89,42.39,19.2,42.39,42.89S606.78,240,583.36,240Z"/><path class="cls-57" d="M583.53,239.31c-23.19,0-42-19-42-42.51s18.81-42.52,42-42.52,42,19,42,42.52S606.72,239.31,583.53,239.31Z"/><path class="cls-58" d="M583.69,238.67c-23,0-41.59-18.87-41.59-42.15s18.62-42.14,41.6-42.14,41.59,18.87,41.59,42.14S606.67,238.67,583.69,238.67Z"/></g><path class="cls-65" d="M532.69,188.27a56.64,56.64,0,1,1,16.59,40A56.31,56.31,0,0,1,532.69,188.27Z"/><path class="cls-63" d="M589.31,242.86a54.59,54.59,0,1,1,54.58-54.59A54.59,54.59,0,0,1,589.31,242.86Z"/><path class="cls-61" d="M588.73,259.67a72.14,72.14,0,0,1-14-1.38,71.9,71.9,0,0,1,13.77-142.43,73,73,0,0,1,14,1.37,71.9,71.9,0,0,1-13.77,142.44Z"/><path class="cls-5" d="M697.41,189.28A62.31,62.31,0,1,1,708,223.92,62.2,62.2,0,0,1,697.41,189.28Z"/><g class="cls-6"><path class="cls-7" d="M746.4,271.68c-34.27,0-62-27.42-62-61.24s27.77-61.24,62-61.24,62,27.42,62,61.24S780.66,271.68,746.4,271.68Z"/><path class="cls-8" d="M746.56,271c-34,0-61.64-27.25-61.64-60.87s27.6-60.86,61.64-60.86,61.64,27.25,61.64,60.86S780.61,271,746.56,271Z"/><path class="cls-9" d="M746.73,270.38c-33.83,0-61.24-27.08-61.24-60.49s27.41-60.49,61.24-60.49S808,176.48,808,209.89,780.55,270.38,746.73,270.38Z"/><path class="cls-10" d="M746.89,269.73c-33.6,0-60.84-26.91-60.84-60.11s27.24-60.12,60.84-60.12,60.84,26.92,60.84,60.12S780.49,269.74,746.89,269.73Z"/><path class="cls-11" d="M747.06,269.09c-33.38,0-60.44-26.75-60.44-59.74s27.06-59.75,60.44-59.75,60.44,26.75,60.44,59.75S780.43,269.09,747.06,269.09Z"/><path class="cls-12" d="M747.22,268.44c-33.16,0-60-26.58-60-59.37s26.88-59.36,60-59.36,60,26.58,60,59.36S780.38,268.44,747.22,268.44Z"/><path class="cls-13" d="M747.38,267.79c-32.93,0-59.63-26.41-59.63-59s26.7-59,59.63-59S807,176.22,807,208.8,780.32,267.8,747.38,267.79Z"/><path class="cls-14" d="M747.55,267.15c-32.72,0-59.24-26.25-59.24-58.62s26.52-58.62,59.24-58.62,59.24,26.24,59.24,58.62S780.26,267.15,747.55,267.15Z"/><path class="cls-15" d="M747.71,266.5c-32.49,0-58.83-26.08-58.83-58.25S715.22,150,747.71,150s58.84,26.08,58.84,58.24S780.21,266.5,747.71,266.5Z"/><path class="cls-16" d="M747.88,265.85c-32.27,0-58.44-25.91-58.44-57.87s26.17-57.87,58.44-57.87S806.31,176,806.31,208,780.15,265.85,747.88,265.85Z"/><path class="cls-17" d="M748,265.2c-32,0-58-25.74-58-57.49s26-57.5,58-57.5,58,25.75,58,57.5S780.09,265.21,748,265.2Z"/><path class="cls-18" d="M748.21,264.56c-31.83,0-57.64-25.58-57.64-57.12s25.81-57.12,57.64-57.12,57.63,25.57,57.63,57.12S780,264.56,748.21,264.56Z"/><path class="cls-19" d="M748.37,263.91c-31.61,0-57.23-25.41-57.23-56.75s25.62-56.74,57.23-56.74,57.23,25.4,57.23,56.74S780,263.91,748.37,263.91Z"/><path class="cls-20" d="M748.53,263.26c-31.38,0-56.82-25.24-56.82-56.37s25.44-56.37,56.83-56.37,56.83,25.24,56.83,56.37S779.92,263.26,748.53,263.26Z"/><path class="cls-21" d="M748.7,262.62c-31.17,0-56.43-25.08-56.43-56s25.26-56,56.43-56,56.43,25.07,56.43,56S779.86,262.62,748.7,262.62Z"/><path class="cls-22" d="M748.86,262a55.63,55.63,0,1,1,56-55.63A55.83,55.83,0,0,1,748.86,262Z"/><path class="cls-23" d="M749,261.32a55.25,55.25,0,1,1,55.63-55.25A55.45,55.45,0,0,1,749,261.32Z"/><path class="cls-24" d="M749.19,260.67a54.87,54.87,0,1,1,55.23-54.87A55,55,0,0,1,749.19,260.67Z"/><path class="cls-25" d="M749.36,260a54.5,54.5,0,1,1,54.82-54.5A54.67,54.67,0,0,1,749.36,260Z"/><path class="cls-26" d="M749.52,259.38A54.13,54.13,0,1,1,804,205.25,54.27,54.27,0,0,1,749.52,259.38Z"/><path class="cls-27" d="M749.69,258.73a53.75,53.75,0,1,1,54-53.75A53.89,53.89,0,0,1,749.69,258.73Z"/><path class="cls-28" d="M749.85,258.08a53.38,53.38,0,1,1,53.63-53.37A53.49,53.49,0,0,1,749.85,258.08Z"/><path class="cls-29" d="M750,257.44a53,53,0,1,1,53.23-53A53.11,53.11,0,0,1,750,257.44Z"/><path class="cls-30" d="M750.18,256.79A52.63,52.63,0,1,1,803,204.16,52.72,52.72,0,0,1,750.18,256.79Z"/><path class="cls-31" d="M750.34,256.14a52.25,52.25,0,1,1,52.43-52.25A52.33,52.33,0,0,1,750.34,256.14Z"/><path class="cls-32" d="M750.51,255.5a51.88,51.88,0,1,1,52-51.88A52,52,0,0,1,750.51,255.5Z"/><path class="cls-33" d="M750.67,254.85a51.51,51.51,0,1,1,51.62-51.51A51.56,51.56,0,0,1,750.67,254.85Z"/><path class="cls-34" d="M750.84,254.2a51.13,51.13,0,1,1,51.22-51.13A51.17,51.17,0,0,1,750.84,254.2Z"/><path class="cls-35" d="M751,253.55a50.76,50.76,0,1,1,50.82-50.75A50.78,50.78,0,0,1,751,253.55Z"/><path class="cls-36" d="M751.17,252.91a50.38,50.38,0,1,1,50.41-50.38A50.4,50.4,0,0,1,751.17,252.91Z"/><path class="cls-37" d="M751.33,252.26a50,50,0,1,1,50-50A50,50,0,0,1,751.33,252.26Z"/><path class="cls-38" d="M751.49,251.61A49.63,49.63,0,1,1,801.11,202,49.62,49.62,0,0,1,751.49,251.61Z"/><path class="cls-39" d="M751.66,251a49.26,49.26,0,1,1,49.21-49.26A49.24,49.24,0,0,1,751.66,251Z"/><path class="cls-40" d="M751.82,250.32a48.89,48.89,0,1,1,48.82-48.89A48.86,48.86,0,0,1,751.82,250.32Z"/><path class="cls-41" d="M752,249.67a48.51,48.51,0,1,1,48.41-48.51A48.46,48.46,0,0,1,752,249.67Z"/><path class="cls-42" d="M752.15,249a48.13,48.13,0,1,1,48-48.13A48.07,48.07,0,0,1,752.15,249Z"/><path class="cls-43" d="M752.32,248.38a47.76,47.76,0,1,1,47.61-47.76A47.69,47.69,0,0,1,752.32,248.38Z"/><path class="cls-44" d="M752.48,247.73a47.39,47.39,0,1,1,47.21-47.39A47.3,47.3,0,0,1,752.48,247.73Z"/><path class="cls-45" d="M752.65,247.08a47,47,0,1,1,46.8-47A46.91,46.91,0,0,1,752.65,247.08Z"/><path class="cls-46" d="M752.81,246.43a46.64,46.64,0,1,1,46.41-46.63A46.52,46.52,0,0,1,752.81,246.43Z"/><path class="cls-47" d="M753,245.79a46.27,46.27,0,1,1,46-46.26A46.14,46.14,0,0,1,753,245.79Z"/><path class="cls-48" d="M753.14,245.14a45.89,45.89,0,1,1,45.61-45.89A45.74,45.74,0,0,1,753.14,245.14Z"/><path class="cls-49" d="M753.3,244.49A45.51,45.51,0,1,1,798.51,199,45.35,45.35,0,0,1,753.3,244.49Z"/><path class="cls-50" d="M753.47,243.85a45.14,45.14,0,1,1,44.8-45.14A45,45,0,0,1,753.47,243.85Z"/><path class="cls-51" d="M753.63,243.2A44.77,44.77,0,1,1,798,198.43,44.58,44.58,0,0,1,753.63,243.2Z"/><path class="cls-52" d="M753.8,242.55a44.39,44.39,0,1,1,44-44.39A44.19,44.19,0,0,1,753.8,242.55Z"/><path class="cls-53" d="M754,241.9a44,44,0,1,1,43.6-44A43.8,43.8,0,0,1,754,241.9Z"/><path class="cls-54" d="M754.12,241.26a43.64,43.64,0,1,1,43.21-43.64A43.42,43.42,0,0,1,754.12,241.26Z"/><path class="cls-55" d="M754.29,240.61c-23.64,0-42.8-19.37-42.8-43.27s19.16-43.26,42.8-43.26,42.8,19.37,42.8,43.26S777.93,240.61,754.29,240.61Z"/><path class="cls-56" d="M754.45,240c-23.41,0-42.39-19.2-42.39-42.89s19-42.89,42.4-42.89,42.39,19.2,42.39,42.89S777.87,240,754.45,240Z"/><path class="cls-57" d="M754.62,239.31c-23.2,0-42-19-42-42.51s18.8-42.52,42-42.52,42,19,42,42.52S777.81,239.31,754.62,239.31Z"/><path class="cls-58" d="M754.78,238.67c-23,0-41.59-18.87-41.59-42.15s18.62-42.14,41.59-42.14,41.6,18.87,41.6,42.14S777.76,238.67,754.78,238.67Z"/></g><path class="cls-66" d="M703.78,188.27a56.64,56.64,0,1,1,16.59,40A56.31,56.31,0,0,1,703.78,188.27Z"/><path class="cls-60" d="M760.4,242.86A54.59,54.59,0,1,1,815,188.27,54.59,54.59,0,0,1,760.4,242.86Z"/><path class="cls-61" d="M759.82,259.67a72.32,72.32,0,0,1-14-1.38,71.9,71.9,0,0,1,13.78-142.43,73.07,73.07,0,0,1,14,1.37,71.9,71.9,0,0,1-13.77,142.44Z"/><path class="cls-67" d="M423.49,341.22a9.83,9.83,0,1,1-9.83-9.83A9.83,9.83,0,0,1,423.49,341.22Z"/><path class="cls-68" d="M443.78,341.32a30,30,0,1,1-30-30A30,30,0,0,1,443.78,341.32Z"/><path class="cls-3" d="M398.94,323.89a1.44,1.44,0,1,1-1.44-1.44A1.44,1.44,0,0,1,398.94,323.89Z"/><path class="cls-3" d="M431.67,357.59a1.44,1.44,0,1,1-1.44-1.44A1.44,1.44,0,0,1,431.67,357.59Z"/><path class="cls-3" d="M430.71,325.82a1.45,1.45,0,1,1,1.44-1.44A1.45,1.45,0,0,1,430.71,325.82Z"/><path class="cls-3" d="M397,358.54a1.44,1.44,0,1,1,1.44-1.44A1.43,1.43,0,0,1,397,358.54Z"/><path class="cls-68" d="M416.91,341.26a3.13,3.13,0,1,1-3.13-3.12A3.13,3.13,0,0,1,416.91,341.26Z"/><line class="cls-68" x1="411.51" y1="339.14" x2="402.54" y2="330.43"/><line class="cls-68" x1="416.07" y1="339.14" x2="427.97" y2="327.32"/><line class="cls-68" x1="443.75" y1="322.93" x2="456.94" y2="322.93"/><line class="cls-68" x1="379.14" y1="371.31" x2="392.32" y2="371.31"/><line class="cls-68" x1="386.19" y1="311.17" x2="389.47" y2="311.17"/><line class="cls-68" x1="372.15" y1="344.39" x2="375.43" y2="344.39"/><line class="cls-68" x1="448.71" y1="357.59" x2="451.99" y2="357.59"/><line class="cls-68" x1="412.14" y1="377.53" x2="415.43" y2="377.53"/><line class="cls-68" x1="451.69" y1="334.78" x2="460.35" y2="334.78"/><line class="cls-68" x1="435.4" y1="371.31" x2="444.07" y2="371.31"/><line class="cls-68" x1="399.04" y1="304.04" x2="407.7" y2="304.04"/><path class="cls-60" d="M596.23,45.21a10.38,10.38,0,1,1-10.38-10.38A10.38,10.38,0,0,1,596.23,45.21Z"/><path class="cls-60" d="M627.12,72.42a7.2,7.2,0,1,1-7.19-7.2A7.19,7.19,0,0,1,627.12,72.42Z"/><path class="cls-69" d="M590.7,45.2a4.86,4.86,0,1,1-4.85-4.86A4.85,4.85,0,0,1,590.7,45.2Z"/><path class="cls-69" d="M623.31,72.41A3.38,3.38,0,1,1,619.93,69,3.37,3.37,0,0,1,623.31,72.41Z"/><path class="cls-70" d="M599.88,25.26a5.15,5.15,0,0,0,.32.45q3.15,3.42,6.32,6.83a.59.59,0,0,1,.12.83c-.84,1.56-1.68,3.14-2.49,4.73a1,1,0,0,0-.06.66c.07.38.25.76.32,1.14a1.83,1.83,0,0,0,1.17,1.42c1.41.7,2.79,1.46,4.19,2.19a.53.53,0,0,1,.35.66c-.49,3.16-1,6.33-1.44,9.49a.48.48,0,0,1-.47.47c-1.76.31-3.51.63-5.26,1a1.23,1.23,0,0,0-.66.44,5,5,0,0,0-1.11,1.74,5.54,5.54,0,0,0,.29,2c.23,1.24.47,2.48.71,3.72a.42.42,0,0,1-.24.53q-4.22,2.4-8.41,4.82a.5.5,0,0,1-.67-.1q-2-1.77-4-3.5a1.32,1.32,0,0,0-.72-.24c-.43,0-.85.09-1.28.06a1.65,1.65,0,0,0-1.44.73c-1.13,1.37-2.29,2.68-3.46,4-1.63-.64-3.24-1.29-4.86-1.92l-4.83-1.92c0-1,.07-2,.1-2.94s.1-1.87.11-2.81a1.28,1.28,0,0,0-.27-.76,5.29,5.29,0,0,0-1.45-1.49,5.8,5.8,0,0,0-2.06-.16L565,57.21a.46.46,0,0,1-.51-.37q-1.41-4.65-2.85-9.29c-.09-.3,0-.42.23-.57,1.45-1,2.89-2.1,4.32-3.17a1.19,1.19,0,0,0,.4-.68,5,5,0,0,0,.25-2.06,5.84,5.84,0,0,0-1.16-1.73c-.73-1-1.45-2-2.19-3a.52.52,0,0,1,0-.68q2.73-3.95,5.42-7.9a.53.53,0,0,1,.67-.25c1.73.47,3.46,1,5.2,1.41a1.07,1.07,0,0,0,.66-.06c.41-.19.77-.49,1.18-.65.66-.24.84-.77,1-1.38.39-1.52.82-3,1.2-4.56a.61.61,0,0,1,.65-.53c3.1-.2,6.19-.43,9.28-.65a3.23,3.23,0,0,0,.54-.11l.09,0a.3.3,0,0,0,0,.13c.77,1.79,1.53,3.57,2.32,5.35a.79.79,0,0,0,.39.35c.57.25,1.15.49,1.73.68a1.18,1.18,0,0,0,.72,0c.72-.28,1.43-.61,2.14-.92l3.17-1.42Z"/><path class="cls-70" d="M635.3,74.53c0,.1-.12.2-.16.3-.66,1.84-1.33,3.69-2,5.54a.38.38,0,0,1-.43.3q-1.69,0-3.39,0a.73.73,0,0,0-.39.15c-.19.16-.35.37-.55.52a1.18,1.18,0,0,0-.45,1.07c0,1,0,2,0,3a.33.33,0,0,1-.26.38l-5.77,2a.31.31,0,0,1-.4-.13c-.68-.9-1.38-1.79-2.09-2.67a.71.71,0,0,0-.44-.24,3.3,3.3,0,0,0-1.3-.13,3.43,3.43,0,0,0-1,.76c-.63.49-1.26,1-1.88,1.47a.26.26,0,0,1-.36,0l-5.19-3.33a.3.3,0,0,1-.13-.4c.26-1.09.53-2.18.78-3.28a.85.85,0,0,0-.07-.47c-.12-.25-.31-.45-.42-.7a1,1,0,0,0-.83-.59c-1.09-.24-2.18-.52-3.28-.78-.12-1.1-.23-2.19-.35-3.28s-.22-2.16-.33-3.27l1.68-.79c.54-.25,1.09-.49,1.61-.76a.74.74,0,0,0,.35-.37,3.18,3.18,0,0,0,.41-1.24,3.61,3.61,0,0,0-.51-1.21c-.33-.71-.66-1.43-1-2.13a.28.28,0,0,1,.06-.39l4.39-4.3a.27.27,0,0,1,.39,0c1,.51,2,1,3,1.5a.75.75,0,0,0,.51,0,3.07,3.07,0,0,0,1.23-.45,3.74,3.74,0,0,0,.63-1.15c.34-.7.69-1.39,1-2.09a.31.31,0,0,1,.37-.21l6,.75a.34.34,0,0,1,.34.31c.24,1.11.47,2.22.72,3.33a.7.7,0,0,0,.23.35,7.28,7.28,0,0,1,.71.47,1.07,1.07,0,0,0,1.07.16l2.92-.64a.38.38,0,0,1,.49.21c1,1.67,2.06,3.35,3.09,5a1.39,1.39,0,0,0,.21.27s0,0,0,.07-.06,0-.07.05c-.78.94-1.56,1.89-2.32,2.84a.49.49,0,0,0-.09.33c0,.39.06.79.12,1.17a.8.8,0,0,0,.22.39c.37.33.77.63,1.15.94l1.73,1.37Z"/><line class="cls-71" x1="619.92" y1="50.05" x2="633.33" y2="50.05"/><line class="cls-71" x1="562.34" y1="72.42" x2="575.75" y2="72.42"/><line class="cls-71" x1="613.22" y1="40.34" x2="616.55" y2="40.34"/><line class="cls-71" x1="599.37" y1="15.61" x2="602.7" y2="15.61"/><line class="cls-71" x1="621.64" y1="97.63" x2="624.98" y2="97.63"/><line class="cls-71" x1="596.93" y1="79.84" x2="600.27" y2="79.84"/><line class="cls-71" x1="580.99" y1="87.58" x2="589.8" y2="87.58"/><line class="cls-71" x1="624.52" y1="35.3" x2="633.33" y2="35.3"/><path class="cls-67" d="M768.41,331.57a10.26,10.26,0,1,1-10.26-10.26A10.26,10.26,0,0,1,768.41,331.57Z"/><path class="cls-68" d="M780.57,331.14a22.43,22.43,0,1,1-22.42-22.43A22.42,22.42,0,0,1,780.57,331.14Z"/><path class="cls-68" d="M758.15,347.27a16.14,16.14,0,1,1,16.12-16.13A16.16,16.16,0,0,1,758.15,347.27Z"/><path class="cls-68" d="M739,342.82,716.15,366a3.54,3.54,0,0,0,0,5l1.26,1.26a3.52,3.52,0,0,0,5,0L745,349.3A22.49,22.49,0,0,1,739,342.82Z"/><line class="cls-68" x1="717.11" y1="339.66" x2="728.21" y2="339.66"/><line class="cls-68" x1="740.28" y1="369.63" x2="751.38" y2="369.63"/><line class="cls-68" x1="730.22" y1="320.91" x2="732.97" y2="320.91"/><line class="cls-68" x1="784.48" y1="320.92" x2="787.25" y2="320.92"/><line class="cls-68" x1="711.84" y1="350.7" x2="714.6" y2="350.7"/><line class="cls-68" x1="778.82" y1="357.01" x2="781.58" y2="357.01"/><line class="cls-68" x1="764.83" y1="304.04" x2="767.59" y2="304.04"/><line class="cls-68" x1="761.19" y1="361.7" x2="768.48" y2="361.7"/><line class="cls-68" x1="777.94" y1="308.71" x2="785.23" y2="308.71"/><line class="cls-68" x1="778.57" y1="347.27" x2="785.87" y2="347.26"/><line class="cls-68" x1="736.63" y1="305.6" x2="743.92" y2="305.6"/><path class="cls-72" d="M265,46.61c0,4.84-6.26,10.68-9.24,15.56-3.46,5.62-4,10-9.61,10-5.36,0-5.76-4-9.2-9.29-3.23-5-9.66-11.16-9.66-16.22a18.86,18.86,0,0,1,37.71,0Z"/><rect class="cls-72" x="241.9" y="76.15" width="8.4" height="8.92"/><line class="cls-72" x1="246.1" y1="22.57" x2="246.1" y2="19.13"/><line class="cls-72" x1="236.73" y1="24.22" x2="234.38" y2="17.74"/><line class="cls-72" x1="222.39" y1="36.26" x2="216.42" y2="32.81"/><line class="cls-72" x1="255.52" y1="24.22" x2="257.88" y2="17.74"/><line class="cls-72" x1="263.75" y1="28.98" x2="265.96" y2="26.33"/><line class="cls-72" x1="228.5" y1="28.98" x2="226.29" y2="26.33"/><line class="cls-72" x1="269.86" y1="36.26" x2="275.83" y2="32.81"/><line class="cls-72" x1="215.03" y1="76.98" x2="230.66" y2="76.98"/><line class="cls-72" x1="275.3" y1="48.32" x2="290.93" y2="48.32"/><line class="cls-72" x1="220.9" y1="65.83" x2="224.79" y2="65.83"/><line class="cls-72" x1="262.91" y1="77.3" x2="266.81" y2="77.3"/><line class="cls-72" x1="265.01" y1="59.87" x2="268.91" y2="59.87"/><line class="cls-72" x1="239.95" y1="95.5" x2="243.85" y2="95.5"/><line class="cls-72" x1="272.85" y1="65.83" x2="283.11" y2="65.83"/><line class="cls-72" x1="251.56" y1="94.39" x2="261.83" y2="94.39"/><line class="cls-72" x1="205.59" y1="54.15" x2="215.85" y2="54.15"/><path class="cls-67" d="M256,47a9.88,9.88,0,1,1-9.88-9.87A9.88,9.88,0,0,1,256,47Z"/><path class="cls-67" d="M80.5,336.47a10.81,10.81,0,1,1-10.81-10.81A10.81,10.81,0,0,1,80.5,336.47Z"/><line class="cls-68" x1="30.22" y1="329.33" x2="41.38" y2="329.33"/><line class="cls-68" x1="97.19" y1="314.68" x2="108.36" y2="314.68"/><line class="cls-68" x1="73.25" y1="308.87" x2="84.41" y2="308.87"/><line class="cls-68" x1="34.41" y1="321.37" x2="37.19" y2="321.37"/><line class="cls-68" x1="97.71" y1="345.66" x2="100.49" y2="345.66"/><line class="cls-68" x1="105.05" y1="354.4" x2="107.83" y2="354.4"/><line class="cls-68" x1="96.32" y1="323.63" x2="99.1" y2="323.63"/><line class="cls-68" x1="108.59" y1="338.62" x2="115.93" y2="338.62"/><line class="cls-68" x1="99.1" y1="362.86" x2="106.44" y2="362.86"/><line class="cls-68" x1="26.55" y1="342.55" x2="33.88" y2="342.55"/><line class="cls-68" x1="68.19" y1="368.37" x2="49.04" y2="368.37"/><polyline class="cls-68" points="49.04 367.27 49.04 308.87 90.33 308.87 90.33 368.37 79.64 368.37"/><line class="cls-68" x1="57.05" y1="316.6" x2="81.96" y2="316.6"/><line class="cls-68" x1="57.05" y1="323.63" x2="81.96" y2="323.63"/><path class="cls-68" d="M86.13,345.29a12.21,12.21,0,1,1-12.21-12.21A12.21,12.21,0,0,1,86.13,345.29Z"/><rect class="cls-68" x="71.27" y="357.5" width="5.3" height="19.54"/><path class="cls-73" d="M54.38,183.62A3.46,3.46,0,0,1,56,184.93a3.59,3.59,0,0,1,.56,2,3.64,3.64,0,0,1-.56,2,3.46,3.46,0,0,1-1.57,1.31,5.92,5.92,0,0,1-2.41.45h-2.1v2.88H47.45V183.15H52A5.76,5.76,0,0,1,54.38,183.62Zm-.89,4.66a1.87,1.87,0,0,0,0-2.69,2.54,2.54,0,0,0-1.65-.47h-2v3.62h2A2.54,2.54,0,0,0,53.49,188.28Z"/><path class="cls-73" d="M65.49,186.34a3.58,3.58,0,0,1,.92,2.66v4.59H64.08v-4.23a2.11,2.11,0,0,0-.42-1.43,1.52,1.52,0,0,0-1.2-.47,1.85,1.85,0,0,0-1.41.55,2.27,2.27,0,0,0-.52,1.61v4H58.21V182.53h2.32v3.87a3.13,3.13,0,0,1,1.12-.7,3.91,3.91,0,0,1,1.43-.25A3.32,3.32,0,0,1,65.49,186.34Z"/><path class="cls-73" d="M74.61,186.34a3.4,3.4,0,0,1,1,2.67v4.58H73.43v-1A2.58,2.58,0,0,1,71,193.71a3.79,3.79,0,0,1-1.61-.31,2.34,2.34,0,0,1-1-.87,2.23,2.23,0,0,1-.36-1.25,2.09,2.09,0,0,1,.84-1.76,4.27,4.27,0,0,1,2.6-.64h1.85a1.47,1.47,0,0,0-.46-1.17,2.06,2.06,0,0,0-1.39-.41,4.25,4.25,0,0,0-1.26.2,3.46,3.46,0,0,0-1,.54l-.83-1.62a4.94,4.94,0,0,1,1.57-.72,7,7,0,0,1,1.89-.25A4.19,4.19,0,0,1,74.61,186.34Zm-2,5.53a1.55,1.55,0,0,0,.65-.81v-.82H71.69c-1,0-1.44.31-1.44.94a.82.82,0,0,0,.36.7,1.52,1.52,0,0,0,1,.27A2.1,2.1,0,0,0,72.63,191.87Z"/><path class="cls-73" d="M78.46,193.46a5.28,5.28,0,0,1-1.53-.61l.78-1.67a5,5,0,0,0,1.3.56,5.52,5.52,0,0,0,1.49.21c1,0,1.47-.24,1.47-.73a.51.51,0,0,0-.4-.49,5.4,5.4,0,0,0-1.24-.25,12,12,0,0,1-1.62-.35,2.56,2.56,0,0,1-1.11-.68,1.94,1.94,0,0,1-.47-1.41,2.2,2.2,0,0,1,.44-1.34,2.78,2.78,0,0,1,1.28-.92,5.46,5.46,0,0,1,2-.33,7.42,7.42,0,0,1,1.69.19,4.56,4.56,0,0,1,1.4.51l-.78,1.66a4.57,4.57,0,0,0-2.31-.6,2.34,2.34,0,0,0-1.12.21.61.61,0,0,0-.37.53.54.54,0,0,0,.4.53,7.26,7.26,0,0,0,1.29.28,15.29,15.29,0,0,1,1.61.35,2.43,2.43,0,0,1,1.08.68,1.91,1.91,0,0,1,.47,1.37,2.12,2.12,0,0,1-.45,1.33,2.79,2.79,0,0,1-1.31.9,5.88,5.88,0,0,1-2,.32A7.45,7.45,0,0,1,78.46,193.46Z"/><path class="cls-73" d="M93.44,190.24H87.37a1.87,1.87,0,0,0,.78,1.17,2.55,2.55,0,0,0,1.52.44,3.14,3.14,0,0,0,1.11-.19,2.64,2.64,0,0,0,.9-.59l1.24,1.34a4.15,4.15,0,0,1-3.31,1.3,5.24,5.24,0,0,1-2.4-.53,3.83,3.83,0,0,1-1.61-1.47,4,4,0,0,1-.57-2.13,4.16,4.16,0,0,1,.56-2.13A3.89,3.89,0,0,1,87.13,186a4.54,4.54,0,0,1,2.18-.53,4.41,4.41,0,0,1,2.13.51,3.61,3.61,0,0,1,1.5,1.45,4.28,4.28,0,0,1,.55,2.2S93.47,189.85,93.44,190.24ZM88,187.66a1.87,1.87,0,0,0-.66,1.22h4a1.88,1.88,0,0,0-.65-1.22,2.16,2.16,0,0,0-2.64,0Z"/><path class="cls-73" d="M102.79,183.15v10.44h-2.41v-8.5H98.29v-1.94Z"/><path class="cls-73" d="M225.46,183.62a3.51,3.51,0,0,1,1.57,1.31,3.58,3.58,0,0,1,.55,2,3.63,3.63,0,0,1-.55,2,3.51,3.51,0,0,1-1.57,1.31,6,6,0,0,1-2.41.45H221v2.88h-2.42V183.15h4.52A5.79,5.79,0,0,1,225.46,183.62Zm-.89,4.66a1.87,1.87,0,0,0,0-2.69,2.57,2.57,0,0,0-1.66-.47h-2v3.62h2A2.57,2.57,0,0,0,224.57,188.28Z"/><path class="cls-73" d="M236.57,186.34a3.58,3.58,0,0,1,.91,2.66v4.59h-2.32v-4.23a2.11,2.11,0,0,0-.42-1.43,1.54,1.54,0,0,0-1.21-.47,1.82,1.82,0,0,0-1.4.55,2.23,2.23,0,0,0-.52,1.61v4h-2.33V182.53h2.33v3.87a3.13,3.13,0,0,1,1.12-.7,3.87,3.87,0,0,1,1.43-.25A3.35,3.35,0,0,1,236.57,186.34Z"/><path class="cls-73" d="M245.68,186.34a3.37,3.37,0,0,1,1,2.67v4.58h-2.17v-1a2.6,2.6,0,0,1-2.45,1.12,3.74,3.74,0,0,1-1.6-.31,2.43,2.43,0,0,1-1-.87,2.23,2.23,0,0,1-.36-1.25,2.07,2.07,0,0,1,.85-1.76,4.25,4.25,0,0,1,2.6-.64h1.85a1.47,1.47,0,0,0-.47-1.17,2,2,0,0,0-1.38-.41,4.15,4.15,0,0,0-1.26.2,3.35,3.35,0,0,0-1.05.54l-.84-1.62a5,5,0,0,1,1.57-.72,7.06,7.06,0,0,1,1.89-.25A4.17,4.17,0,0,1,245.68,186.34Zm-2,5.53a1.52,1.52,0,0,0,.66-.81v-.82h-1.6c-.95,0-1.43.31-1.43.94a.84.84,0,0,0,.35.7,1.52,1.52,0,0,0,1,.27A2.07,2.07,0,0,0,243.7,191.87Z"/><path class="cls-73" d="M249.53,193.46a5.21,5.21,0,0,1-1.52-.61l.78-1.67a5,5,0,0,0,1.29.56,5.64,5.64,0,0,0,1.49.21c1,0,1.48-.24,1.48-.73a.51.51,0,0,0-.4-.49,5.4,5.4,0,0,0-1.24-.25,11.84,11.84,0,0,1-1.63-.35,2.68,2.68,0,0,1-1.11-.68,2,2,0,0,1-.47-1.41,2.2,2.2,0,0,1,.44-1.34,2.81,2.81,0,0,1,1.29-.92,5.42,5.42,0,0,1,2-.33,7.49,7.49,0,0,1,1.69.19,4.49,4.49,0,0,1,1.39.51l-.77,1.66a4.63,4.63,0,0,0-2.31-.6,2.34,2.34,0,0,0-1.12.21.61.61,0,0,0-.37.53.54.54,0,0,0,.4.53,7.11,7.11,0,0,0,1.28.28,14.74,14.74,0,0,1,1.61.35,2.46,2.46,0,0,1,1.09.68,1.91,1.91,0,0,1,.46,1.37,2.12,2.12,0,0,1-.45,1.33,2.76,2.76,0,0,1-1.3.9,5.9,5.9,0,0,1-2,.32A7.56,7.56,0,0,1,249.53,193.46Z"/><path class="cls-73" d="M264.52,190.24h-6.07a1.9,1.9,0,0,0,.77,1.17,2.58,2.58,0,0,0,1.52.44,3.24,3.24,0,0,0,1.12-.19,2.64,2.64,0,0,0,.9-.59l1.24,1.34a4.16,4.16,0,0,1-3.32,1.3,5.3,5.3,0,0,1-2.4-.53,3.89,3.89,0,0,1-1.61-1.47,4.33,4.33,0,0,1,0-4.26A3.86,3.86,0,0,1,258.2,186a4.55,4.55,0,0,1,2.19-.53,4.47,4.47,0,0,1,2.13.51,3.67,3.67,0,0,1,1.5,1.45,4.37,4.37,0,0,1,.54,2.2S264.55,189.85,264.52,190.24Zm-5.45-2.58a1.9,1.9,0,0,0-.65,1.22h3.95a1.91,1.91,0,0,0-2-1.67A2,2,0,0,0,259.07,187.66Z"/><path class="cls-73" d="M277.64,191.62v2h-7.89V192l4-3.81a4.17,4.17,0,0,0,.86-1.05,1.89,1.89,0,0,0,.23-.87,1.15,1.15,0,0,0-.43-1,1.93,1.93,0,0,0-1.24-.34,2.93,2.93,0,0,0-1.24.26,2.43,2.43,0,0,0-.93.79l-1.76-1.14a4.15,4.15,0,0,1,1.69-1.42,5.63,5.63,0,0,1,2.46-.52,5.07,5.07,0,0,1,2,.38,3.15,3.15,0,0,1,1.36,1.08,2.71,2.71,0,0,1,.49,1.63,3.64,3.64,0,0,1-.36,1.6,6.27,6.27,0,0,1-1.39,1.7l-2.4,2.26Z"/><path class="cls-73" d="M394.8,183.62a3.51,3.51,0,0,1,1.57,1.31,3.58,3.58,0,0,1,.55,2,3.63,3.63,0,0,1-.55,2,3.51,3.51,0,0,1-1.57,1.31,5.92,5.92,0,0,1-2.41.45h-2.1v2.88h-2.42V183.15h4.52A5.76,5.76,0,0,1,394.8,183.62Zm-.89,4.66a1.87,1.87,0,0,0,0-2.69,2.55,2.55,0,0,0-1.65-.47h-2v3.62h2A2.55,2.55,0,0,0,393.91,188.28Z"/><path class="cls-73" d="M405.91,186.34a3.58,3.58,0,0,1,.92,2.66v4.59H404.5v-4.23a2.11,2.11,0,0,0-.42-1.43,1.54,1.54,0,0,0-1.21-.47,1.84,1.84,0,0,0-1.4.55,2.23,2.23,0,0,0-.52,1.61v4h-2.33V182.53H401v3.87a3.13,3.13,0,0,1,1.12-.7,3.91,3.91,0,0,1,1.43-.25A3.33,3.33,0,0,1,405.91,186.34Z"/><path class="cls-73" d="M415,186.34a3.4,3.4,0,0,1,1,2.67v4.58h-2.18v-1a2.59,2.59,0,0,1-2.45,1.12,3.78,3.78,0,0,1-1.6-.31,2.43,2.43,0,0,1-1-.87,2.31,2.31,0,0,1-.35-1.25,2.09,2.09,0,0,1,.84-1.76,4.27,4.27,0,0,1,2.6-.64h1.85a1.47,1.47,0,0,0-.46-1.17,2.06,2.06,0,0,0-1.39-.41,4.15,4.15,0,0,0-1.26.2,3.46,3.46,0,0,0-1,.54l-.84-1.62a5.11,5.11,0,0,1,1.58-.72,7,7,0,0,1,1.88-.25A4.2,4.2,0,0,1,415,186.34Zm-2,5.53a1.52,1.52,0,0,0,.66-.81v-.82h-1.6c-1,0-1.43.31-1.43.94a.84.84,0,0,0,.35.7,1.56,1.56,0,0,0,1,.27A2,2,0,0,0,413,191.87Z"/><path class="cls-73" d="M418.87,193.46a5.33,5.33,0,0,1-1.52-.61l.78-1.67a5,5,0,0,0,1.3.56,5.52,5.52,0,0,0,1.49.21c1,0,1.47-.24,1.47-.73a.51.51,0,0,0-.4-.49,5.4,5.4,0,0,0-1.24-.25,11.65,11.65,0,0,1-1.62-.35,2.56,2.56,0,0,1-1.11-.68,1.94,1.94,0,0,1-.47-1.41,2.14,2.14,0,0,1,.44-1.34,2.78,2.78,0,0,1,1.28-.92,5.42,5.42,0,0,1,2-.33,7.42,7.42,0,0,1,1.69.19,4.66,4.66,0,0,1,1.4.51l-.78,1.66a4.6,4.6,0,0,0-2.31-.6,2.34,2.34,0,0,0-1.12.21.61.61,0,0,0-.37.53.54.54,0,0,0,.4.53,7.32,7.32,0,0,0,1.28.28,14.23,14.23,0,0,1,1.61.35,2.46,2.46,0,0,1,1.09.68,1.91,1.91,0,0,1,.47,1.37,2.12,2.12,0,0,1-.45,1.33,2.84,2.84,0,0,1-1.31.9,5.88,5.88,0,0,1-2,.32A7.58,7.58,0,0,1,418.87,193.46Z"/><path class="cls-73" d="M433.86,190.24h-6.07a1.87,1.87,0,0,0,.78,1.17,2.53,2.53,0,0,0,1.52.44,3.23,3.23,0,0,0,1.11-.19,2.64,2.64,0,0,0,.9-.59l1.24,1.34a4.15,4.15,0,0,1-3.31,1.3,5.24,5.24,0,0,1-2.4-.53,3.77,3.77,0,0,1-1.61-1.47,4,4,0,0,1-.57-2.13,4.16,4.16,0,0,1,.56-2.13,3.86,3.86,0,0,1,1.53-1.47,4.58,4.58,0,0,1,2.19-.53,4.44,4.44,0,0,1,2.13.51,3.61,3.61,0,0,1,1.5,1.45,4.37,4.37,0,0,1,.54,2.2S433.89,189.85,433.86,190.24Zm-5.44-2.58a1.87,1.87,0,0,0-.66,1.22h3.95a2,2,0,0,0-3.29-1.22Z"/><path class="cls-73" d="M446.16,188.42a2.84,2.84,0,0,1,.73,2,3.18,3.18,0,0,1-.47,1.68,3.38,3.38,0,0,1-1.46,1.23,5.54,5.54,0,0,1-2.39.46,8.34,8.34,0,0,1-2.17-.29,5.4,5.4,0,0,1-1.81-.83l.94-1.85a4.48,4.48,0,0,0,1.38.7,5.39,5.39,0,0,0,1.6.24,2.48,2.48,0,0,0,1.43-.35,1.11,1.11,0,0,0,.52-1c0-.85-.65-1.28-1.95-1.28h-1.1v-1.6l2.14-2.43h-4.44v-1.94h7.31v1.57l-2.36,2.68A3.51,3.51,0,0,1,446.16,188.42Z"/><path class="cls-73" d="M564.5,183.62a3.51,3.51,0,0,1,1.57,1.31,3.58,3.58,0,0,1,.55,2,3.63,3.63,0,0,1-.55,2,3.51,3.51,0,0,1-1.57,1.31,6,6,0,0,1-2.41.45H560v2.88h-2.42V183.15h4.52A5.79,5.79,0,0,1,564.5,183.62Zm-.89,4.66a1.87,1.87,0,0,0,0-2.69,2.55,2.55,0,0,0-1.65-.47h-2v3.62h2A2.55,2.55,0,0,0,563.61,188.28Z"/><path class="cls-73" d="M575.61,186.34a3.58,3.58,0,0,1,.91,2.66v4.59H574.2v-4.23a2.11,2.11,0,0,0-.42-1.43,1.54,1.54,0,0,0-1.21-.47,1.84,1.84,0,0,0-1.4.55,2.23,2.23,0,0,0-.52,1.61v4h-2.33V182.53h2.33v3.87a3.13,3.13,0,0,1,1.12-.7,3.87,3.87,0,0,1,1.43-.25A3.33,3.33,0,0,1,575.61,186.34Z"/><path class="cls-73" d="M584.73,186.34a3.4,3.4,0,0,1,1,2.67v4.58h-2.18v-1a2.59,2.59,0,0,1-2.45,1.12,3.78,3.78,0,0,1-1.6-.31,2.43,2.43,0,0,1-1-.87,2.22,2.22,0,0,1-.35-1.25,2.09,2.09,0,0,1,.84-1.76,4.27,4.27,0,0,1,2.6-.64h1.85a1.5,1.5,0,0,0-.46-1.17,2.06,2.06,0,0,0-1.39-.41,4.15,4.15,0,0,0-1.26.2,3.46,3.46,0,0,0-1,.54l-.84-1.62a5.11,5.11,0,0,1,1.58-.72,7,7,0,0,1,1.88-.25A4.2,4.2,0,0,1,584.73,186.34Zm-2,5.53a1.52,1.52,0,0,0,.66-.81v-.82h-1.6c-.95,0-1.43.31-1.43.94a.84.84,0,0,0,.35.7,1.56,1.56,0,0,0,1,.27A2.07,2.07,0,0,0,582.74,191.87Z"/><path class="cls-73" d="M588.57,193.46a5.33,5.33,0,0,1-1.52-.61l.78-1.67a5.12,5.12,0,0,0,1.29.56,5.65,5.65,0,0,0,1.5.21c1,0,1.47-.24,1.47-.73a.51.51,0,0,0-.4-.49,5.4,5.4,0,0,0-1.24-.25,11.65,11.65,0,0,1-1.62-.35,2.56,2.56,0,0,1-1.11-.68,1.94,1.94,0,0,1-.47-1.41,2.14,2.14,0,0,1,.44-1.34,2.78,2.78,0,0,1,1.28-.92,5.42,5.42,0,0,1,2-.33,7.42,7.42,0,0,1,1.69.19,4.66,4.66,0,0,1,1.4.51l-.78,1.66a4.63,4.63,0,0,0-2.31-.6,2.34,2.34,0,0,0-1.12.21.61.61,0,0,0-.37.53.54.54,0,0,0,.4.53,7.32,7.32,0,0,0,1.28.28,14.23,14.23,0,0,1,1.61.35,2.46,2.46,0,0,1,1.09.68,1.91,1.91,0,0,1,.46,1.37,2.17,2.17,0,0,1-.44,1.33,2.84,2.84,0,0,1-1.31.9,5.88,5.88,0,0,1-2,.32A7.58,7.58,0,0,1,588.57,193.46Z"/><path class="cls-73" d="M603.56,190.24h-6.07a1.87,1.87,0,0,0,.78,1.17,2.53,2.53,0,0,0,1.52.44,3.23,3.23,0,0,0,1.11-.19,2.64,2.64,0,0,0,.9-.59l1.24,1.34a4.15,4.15,0,0,1-3.31,1.3,5.24,5.24,0,0,1-2.4-.53,3.77,3.77,0,0,1-1.61-1.47,4,4,0,0,1-.57-2.13,4.16,4.16,0,0,1,.56-2.13,3.86,3.86,0,0,1,1.53-1.47,4.55,4.55,0,0,1,2.19-.53,4.47,4.47,0,0,1,2.13.51,3.61,3.61,0,0,1,1.5,1.45,4.37,4.37,0,0,1,.54,2.2S603.59,189.85,603.56,190.24Zm-5.44-2.58a1.87,1.87,0,0,0-.66,1.22h3.95a2,2,0,0,0-3.29-1.22Z"/><path class="cls-73" d="M618.44,191.4h-1.7v2.19h-2.35V191.4h-5.63v-1.63l4.92-6.62h2.54l-4.56,6.28h2.8v-2h2.28v2h1.7Z"/><path class="cls-73" d="M736.69,183.62a3.51,3.51,0,0,1,1.57,1.31,3.58,3.58,0,0,1,.55,2,3.63,3.63,0,0,1-.55,2,3.51,3.51,0,0,1-1.57,1.31,6,6,0,0,1-2.41.45h-2.11v2.88h-2.41V183.15h4.52A5.82,5.82,0,0,1,736.69,183.62Zm-.89,4.66a1.87,1.87,0,0,0,0-2.69,2.57,2.57,0,0,0-1.66-.47h-2v3.62h2A2.57,2.57,0,0,0,735.8,188.28Z"/><path class="cls-73" d="M747.79,186.34a3.54,3.54,0,0,1,.92,2.66v4.59h-2.32v-4.23a2.11,2.11,0,0,0-.42-1.43,1.54,1.54,0,0,0-1.21-.47,1.82,1.82,0,0,0-1.4.55,2.23,2.23,0,0,0-.52,1.61v4h-2.33V182.53h2.33v3.87a3.09,3.09,0,0,1,1.11-.7,4,4,0,0,1,1.44-.25A3.31,3.31,0,0,1,747.79,186.34Z"/><path class="cls-73" d="M756.91,186.34a3.37,3.37,0,0,1,1,2.67v4.58h-2.17v-1a2.6,2.6,0,0,1-2.45,1.12,3.74,3.74,0,0,1-1.6-.31,2.37,2.37,0,0,1-1-.87,2.23,2.23,0,0,1-.36-1.25,2.07,2.07,0,0,1,.85-1.76,4.25,4.25,0,0,1,2.6-.64h1.85a1.47,1.47,0,0,0-.47-1.17,2,2,0,0,0-1.38-.41,4.15,4.15,0,0,0-1.26.2,3.24,3.24,0,0,0-1.05.54l-.84-1.62a5,5,0,0,1,1.57-.72,7.06,7.06,0,0,1,1.89-.25A4.17,4.17,0,0,1,756.91,186.34Zm-2,5.53a1.52,1.52,0,0,0,.66-.81v-.82H754c-1,0-1.43.31-1.43.94a.84.84,0,0,0,.35.7,1.52,1.52,0,0,0,1,.27A2.07,2.07,0,0,0,754.93,191.87Z"/><path class="cls-73" d="M760.76,193.46a5.21,5.21,0,0,1-1.52-.61l.77-1.67a5.19,5.19,0,0,0,1.3.56,5.64,5.64,0,0,0,1.49.21c1,0,1.48-.24,1.48-.73a.51.51,0,0,0-.4-.49,5.4,5.4,0,0,0-1.24-.25,11.84,11.84,0,0,1-1.63-.35,2.68,2.68,0,0,1-1.11-.68,2,2,0,0,1-.47-1.41,2.2,2.2,0,0,1,.44-1.34,2.81,2.81,0,0,1,1.29-.92,5.42,5.42,0,0,1,2-.33,7.49,7.49,0,0,1,1.69.19,4.49,4.49,0,0,1,1.39.51l-.77,1.66a4.63,4.63,0,0,0-2.31-.6,2.34,2.34,0,0,0-1.12.21.61.61,0,0,0-.37.53.54.54,0,0,0,.4.53,7.11,7.11,0,0,0,1.28.28,14.74,14.74,0,0,1,1.61.35,2.46,2.46,0,0,1,1.09.68,1.91,1.91,0,0,1,.46,1.37,2.12,2.12,0,0,1-.45,1.33,2.76,2.76,0,0,1-1.3.9,5.9,5.9,0,0,1-2,.32A7.56,7.56,0,0,1,760.76,193.46Z"/><path class="cls-73" d="M775.75,190.24h-6.07a1.86,1.86,0,0,0,.77,1.17,2.58,2.58,0,0,0,1.52.44,3.14,3.14,0,0,0,1.11-.19,2.59,2.59,0,0,0,.91-.59l1.23,1.34a4.12,4.12,0,0,1-3.31,1.3,5.3,5.3,0,0,1-2.4-.53,3.89,3.89,0,0,1-1.61-1.47,4.33,4.33,0,0,1,0-4.26,3.86,3.86,0,0,1,1.53-1.47,4.55,4.55,0,0,1,2.19-.53,4.47,4.47,0,0,1,2.13.51,3.73,3.73,0,0,1,1.5,1.45,4.37,4.37,0,0,1,.54,2.2S775.78,189.85,775.75,190.24Zm-5.45-2.58a1.9,1.9,0,0,0-.65,1.22h4a1.91,1.91,0,0,0-2-1.67A2,2,0,0,0,770.3,187.66Z"/><path class="cls-73" d="M787.91,188a2.94,2.94,0,0,1,1.05,2.36,3.25,3.25,0,0,1-.48,1.74A3.33,3.33,0,0,1,787,193.3a5.6,5.6,0,0,1-2.41.47,8.34,8.34,0,0,1-2.17-.29,5.49,5.49,0,0,1-1.81-.83l1-1.85a4.79,4.79,0,0,0,1.37.7,5.39,5.39,0,0,0,1.6.24,2.48,2.48,0,0,0,1.43-.36,1.12,1.12,0,0,0,.52-1,1.13,1.13,0,0,0-.54-1,3.74,3.74,0,0,0-1.89-.34h-2.67l.54-5.88h6.37v1.94H784l-.16,2h.85A5.06,5.06,0,0,1,787.91,188Z"/></g></g></g></svg>