<svg xmlns="http://www.w3.org/2000/svg" viewBox="0 0 361.25 293.11"><defs><style>.cls-1{fill:#d01920;}.cls-2{fill:#9f9f9f;}.cls-3{fill:#404040;}.cls-4{fill:gray;}.cls-5{fill:#dfdfdf;}.cls-6{fill:#940000;}.cls-7{fill:#fff;}</style></defs><title>Asset 56</title><g id="Layer_2" data-name="Layer 2"><g id="Layer_1-2" data-name="Layer 1"><path class="cls-1" d="M175.46,145.56l-69.1-82.34c20-16.8,43-25.15,69.1-25.15Z"/><path class="cls-2" d="M175.46,145.56,68.11,139.94c1.62-30.83,14.6-56.88,38.25-76.72Z"/><path class="cls-3" d="M175.46,145.56l-107.23,7.5a97.37,97.37,0,0,1-.12-13.12Z"/><path class="cls-4" d="M175.46,145.56l107.24-7.5a107.5,107.5,0,1,1-214.47,15h0Z"/><path class="cls-5" d="M175.46,145.56l82.35-69.09c15.26,18.19,23.23,37.91,24.89,61.59Z"/><path class="cls-6" d="M175.46,145.56V38.07c33.25,0,61,12.93,82.35,38.4Z"/><circle class="cls-7" cx="175.46" cy="147.57" r="82.83"/><path class="cls-7" d="M226.11,2.48h0l-2.11,1-.43-1.94L226.47.19h2.14V11.24h-2.5Z"/><path class="cls-7" d="M236.82,11.24V8.6h-4.9V6.92L236.1.19h3.17V6.66h1.32V8.6h-1.32v2.64Zm0-4.58V4.22c0-.67,0-1.35.08-2.06h-.06c-.36.71-.65,1.36-1,2.06l-1.48,2.41v0Z"/><path class="cls-7" d="M247.49,3.28c0,2.31-1.46,3.52-3.05,3.52a3,3,0,0,1-3-3.33c0-2,1.2-3.47,3.09-3.47S247.49,1.39,247.49,3.28Zm-4.14.12c0,1.16.39,2,1.14,2s1.08-.75,1.08-2-.3-2-1.1-2S243.35,2.29,243.35,3.4Zm1.22,8L250.91,0h1.4L246,11.42Zm10.88-3.55c0,2.31-1.46,3.52-3.06,3.52a3.05,3.05,0,0,1-3-3.33,3.16,3.16,0,0,1,3.1-3.47C254.38,4.59,255.45,6,255.45,7.87ZM251.32,8c0,1.16.37,2,1.12,2s1.09-.75,1.09-2-.29-2-1.09-2S251.32,6.88,251.32,8Z"/><path class="cls-7" d="M311,82.48h0l-2.1,1-.43-1.94,2.92-1.36h2.15v11H311Z"/><path class="cls-7" d="M325.28,85.66c0,3.42-1.37,5.76-4.2,5.76S317,88.86,317,85.73,318.31,80,321.17,80,325.28,82.63,325.28,85.66Zm-5.73.07c0,2.53.6,3.74,1.6,3.74s1.55-1.26,1.55-3.77S322.17,82,321.13,82,319.54,83.16,319.55,85.73Z"/><path class="cls-7" d="M332.37,83.28c0,2.31-1.46,3.52-3.06,3.52a3,3,0,0,1-3-3.33A3.16,3.16,0,0,1,329.4,80C331.3,80,332.37,81.39,332.37,83.28Zm-4.15.12c0,1.16.39,2,1.14,2s1.09-.75,1.09-2-.31-2-1.1-2S328.22,82.29,328.22,83.4Zm1.23,8L335.79,80h1.39l-6.36,11.42Zm10.88-3.55c0,2.31-1.47,3.52-3.06,3.52a3,3,0,0,1-3-3.33c0-2,1.2-3.47,3.09-3.47S340.33,86,340.33,87.87Zm-4.14.12c0,1.16.38,2,1.13,2s1.09-.75,1.09-2-.29-2-1.09-2S336.19,86.88,336.19,88Z"/><path class="cls-7" d="M172.53,269.31h-4.28L168,271a5.47,5.47,0,0,1,.72,0,5,5,0,0,1,2.9.8,3.13,3.13,0,0,1,1.35,2.77c0,2.05-1.77,3.87-4.75,3.87a6.89,6.89,0,0,1-3.07-.63l.45-1.93a6.55,6.55,0,0,0,2.5.54c1.07,0,2.21-.51,2.21-1.68s-.9-1.84-3.11-1.84a10.59,10.59,0,0,0-1.49.1l.73-5.79h6.08Z"/><path class="cls-7" d="M182.75,272.66c0,3.42-1.38,5.76-4.2,5.76s-4.11-2.56-4.13-5.69,1.36-5.73,4.22-5.73S182.75,269.63,182.75,272.66Zm-5.73.07c0,2.53.6,3.74,1.6,3.74s1.55-1.26,1.55-3.77-.53-3.74-1.57-3.74S177,270.16,177,272.73Z"/><path class="cls-7" d="M189.84,270.28c0,2.31-1.46,3.52-3.06,3.52a3,3,0,0,1-3-3.33c0-2,1.21-3.47,3.09-3.47S189.84,268.39,189.84,270.28Zm-4.15.12c0,1.16.39,2,1.14,2s1.09-.75,1.09-2-.31-2-1.11-2S185.69,269.29,185.69,270.4Zm1.22,8L193.26,267h1.39l-6.36,11.42Zm10.88-3.55c0,2.31-1.46,3.52-3.06,3.52a3,3,0,0,1-3-3.33c0-2,1.2-3.47,3.09-3.47S197.79,273,197.79,274.87Zm-4.13.12c0,1.16.38,2,1.12,2s1.09-.75,1.09-2-.29-2-1.09-2S193.66,273.88,193.66,275Z"/><path class="cls-7" d="M14,144.24v-1.57l1.43-1.29c2.41-2.16,3.58-3.4,3.62-4.69,0-.9-.55-1.62-1.82-1.62a4,4,0,0,0-2.36.92l-.74-1.85A6.15,6.15,0,0,1,17.71,133c2.49,0,3.87,1.46,3.87,3.47,0,1.85-1.34,3.33-2.94,4.76l-1,.85v0h4.16v2.13Z"/><path class="cls-7" d="M29.2,136.28c0,2.31-1.47,3.52-3.06,3.52a3,3,0,0,1-3-3.33c0-2,1.2-3.47,3.09-3.47S29.2,134.39,29.2,136.28Zm-4.15.12c0,1.16.39,2,1.14,2s1.09-.75,1.09-2-.31-2-1.11-2S25.05,135.29,25.05,136.4Zm1.22,8L32.61,133H34l-6.36,11.42Zm10.88-3.55c0,2.31-1.46,3.52-3.06,3.52a3.06,3.06,0,0,1-3-3.33,3.16,3.16,0,0,1,3.1-3.47C36.08,137.59,37.15,139,37.15,140.87ZM33,141c0,1.16.37,2,1.12,2s1.09-.75,1.09-2-.29-2-1.09-2S33,139.88,33,141Z"/><path class="cls-7" d="M33.16,83.48h0l-2.11,1-.42-1.94,2.92-1.36h2.14v11h-2.5Z"/><path class="cls-7" d="M39.76,89.7a6.06,6.06,0,0,0,2.57.68c1.34,0,2-.64,2-1.48,0-1.08-1.09-1.58-2.23-1.58h-1V85.47h1c.87,0,2-.34,2-1.27,0-.67-.54-1.16-1.63-1.16a5.07,5.07,0,0,0-2.31.66l-.53-1.87A7,7,0,0,1,43,81c2.36,0,3.67,1.24,3.67,2.75a2.64,2.64,0,0,1-2,2.57v0A2.76,2.76,0,0,1,47,89c0,2-1.72,3.38-4.53,3.38a6.54,6.54,0,0,1-3.28-.78Z"/><path class="cls-7" d="M54.55,84.28c0,2.31-1.46,3.52-3.06,3.52a3,3,0,0,1-3-3.33c0-2,1.21-3.47,3.09-3.47S54.55,82.39,54.55,84.28Zm-4.15.12c0,1.16.39,2,1.14,2s1.09-.75,1.09-2-.31-2-1.11-2S50.4,83.29,50.4,84.4Zm1.23,8L58,81h1.39L53,92.42ZM62.5,88.87c0,2.31-1.46,3.52-3.06,3.52a3,3,0,0,1-3-3.33c0-2,1.2-3.47,3.09-3.47S62.5,87,62.5,88.87ZM58.37,89c0,1.16.38,2,1.13,2s1.08-.75,1.08-2-.29-2-1.08-2S58.37,87.88,58.37,89Z"/><path class="cls-7" d="M105.94,14.48h0l-2.1,1-.43-1.94,2.92-1.36h2.15v11h-2.5Z"/><path class="cls-7" d="M115.37,14.48h0l-2.11,1-.42-1.94,2.92-1.36h2.14v11h-2.5Z"/><path class="cls-7" d="M127.32,15.28c0,2.31-1.46,3.52-3.06,3.52a3,3,0,0,1-3-3.33c0-2,1.2-3.47,3.09-3.47S127.32,13.39,127.32,15.28Zm-4.14.12c0,1.16.39,2,1.13,2s1.09-.75,1.09-2-.3-2-1.1-2S123.18,14.29,123.18,15.4Zm1.22,8L130.74,12h1.39l-6.35,11.42Zm10.88-3.55c0,2.31-1.46,3.52-3.06,3.52a3.05,3.05,0,0,1-3-3.33c0-2,1.21-3.47,3.09-3.47S135.28,18,135.28,19.87Zm-4.13.12c0,1.16.37,2,1.12,2s1.09-.75,1.09-2-.29-2-1.09-2S131.15,18.88,131.15,20Z"/><path class="cls-6" d="M173,149.17c-9.45-4.25-14.37-9.14-14.48-17.15,0-.26,0-.52,0-.78.42-7.67,5.46-14.24,15.17-15.9-8.61.9-14.61,6-15.91,13.2a23.79,23.79,0,0,0,13.46,41.28h0l.51,0h.11l.58,0c8.25.45,11.66-4.31,11.88-8.44C184.67,155.84,181.15,152.86,173,149.17Z"/><path class="cls-1" d="M203.26,147.82a23.8,23.8,0,0,0-21.23-25H182l-.5,0h-.11l-.58,0c-8.25-.45-11.66,4.31-11.88,8.44-.31,5.65,3.21,8.63,11.38,12.31,9.45,4.25,14.37,9.14,14.48,17.15,0,.26,0,.52,0,.79-.42,7.67-5.46,14.23-15.17,15.89,8.61-.89,14.61-6,15.91-13.2A23.75,23.75,0,0,0,203.26,147.82Z"/><path class="cls-7" d="M214.14,17.35H215v7.7h-.81Z"/><path class="cls-7" d="M222,19.86a2.46,2.46,0,0,1,.65,1.84v3.35h-.78V21.78a1.93,1.93,0,0,0-.45-1.38,1.73,1.73,0,0,0-1.29-.47,2,2,0,0,0-1.48.55,2.13,2.13,0,0,0-.55,1.54v3h-.78V19.27H218v1.06a2.12,2.12,0,0,1,.89-.81,2.75,2.75,0,0,1,1.31-.3A2.31,2.31,0,0,1,222,19.86Z"/><path class="cls-7" d="M229.49,19.27l-2.57,5.78h-.8l-2.57-5.78h.82l2.16,4.93,2.19-4.93Z"/><path class="cls-7" d="M235.47,22.4h-4.84a2,2,0,0,0,.69,1.46,2.29,2.29,0,0,0,1.58.56,2.47,2.47,0,0,0,1-.2,2.16,2.16,0,0,0,.78-.56l.44.5a2.37,2.37,0,0,1-1,.71,3.48,3.48,0,0,1-2.85-.14,2.7,2.7,0,0,1-1.07-1.05,3,3,0,0,1-.39-1.52,3.19,3.19,0,0,1,.37-1.52,2.75,2.75,0,0,1,1-1,2.92,2.92,0,0,1,2.88,0,2.57,2.57,0,0,1,1,1,3.14,3.14,0,0,1,.37,1.52Zm-4.2-2a2.06,2.06,0,0,0-.64,1.39h4.1a2.07,2.07,0,0,0-.65-1.39,2.1,2.1,0,0,0-2.81,0Z"/><path class="cls-7" d="M237.27,24.91a2.92,2.92,0,0,1-1-.52l.35-.61a3.24,3.24,0,0,0,.91.47,3.69,3.69,0,0,0,1.15.18,2.24,2.24,0,0,0,1.17-.25.8.8,0,0,0,.38-.7A.63.63,0,0,0,240,23a1.4,1.4,0,0,0-.53-.27,5.87,5.87,0,0,0-.85-.19,7.26,7.26,0,0,1-1.13-.27,1.65,1.65,0,0,1-.73-.46,1.32,1.32,0,0,1-.3-.92,1.42,1.42,0,0,1,.6-1.18,2.72,2.72,0,0,1,1.69-.47,4.37,4.37,0,0,1,1.12.15,3.14,3.14,0,0,1,.92.39l-.34.63a2.91,2.91,0,0,0-1.7-.5,1.94,1.94,0,0,0-1.13.27.79.79,0,0,0-.38.69.69.69,0,0,0,.21.53,1.34,1.34,0,0,0,.54.29,7.39,7.39,0,0,0,.88.19,10.1,10.1,0,0,1,1.11.27,1.66,1.66,0,0,1,.71.45,1.22,1.22,0,0,1,.3.88,1.39,1.39,0,0,1-.63,1.2,3,3,0,0,1-1.76.45A4.64,4.64,0,0,1,237.27,24.91Z"/><path class="cls-7" d="M245.5,24.7a1.53,1.53,0,0,1-.55.3,2.14,2.14,0,0,1-.67.11,1.71,1.71,0,0,1-1.26-.44,1.69,1.69,0,0,1-.44-1.24v-3.5h-1v-.66h1V18h.78v1.27h1.76v.66h-1.76v3.45a1.11,1.11,0,0,0,.26.79,1,1,0,0,0,.74.27,1.5,1.5,0,0,0,.47-.08,1.07,1.07,0,0,0,.39-.22Z"/><path class="cls-7" d="M247.56,24.73a2.79,2.79,0,0,1-1.05-1.05,3.16,3.16,0,0,1,0-3,2.83,2.83,0,0,1,1.05-1,3.19,3.19,0,0,1,3,0,2.69,2.69,0,0,1,1,1,3.23,3.23,0,0,1,0,3,2.65,2.65,0,0,1-1,1.05,3.19,3.19,0,0,1-3,0Zm2.62-.6a1.93,1.93,0,0,0,.76-.79,2.63,2.63,0,0,0,0-2.36,1.93,1.93,0,0,0-.76-.79,2.18,2.18,0,0,0-1.11-.28,2.12,2.12,0,0,0-1.1.28,1.89,1.89,0,0,0-.77.79,2.63,2.63,0,0,0,0,2.36,1.89,1.89,0,0,0,.77.79,2.12,2.12,0,0,0,1.1.29A2.19,2.19,0,0,0,250.18,24.13Z"/><path class="cls-7" d="M255.17,19.52a2.75,2.75,0,0,1,1.35-.3V20h-.19a1.87,1.87,0,0,0-1.43.56,2.27,2.27,0,0,0-.51,1.58v2.94h-.79V19.27h.75V20.4A2,2,0,0,1,255.17,19.52Z"/><path class="cls-7" d="M258.17,24.91a2.83,2.83,0,0,1-1-.52l.35-.61a3.24,3.24,0,0,0,.91.47,3.69,3.69,0,0,0,1.15.18,2.26,2.26,0,0,0,1.17-.25.8.8,0,0,0,.38-.7.63.63,0,0,0-.21-.5,1.4,1.4,0,0,0-.53-.27,5.87,5.87,0,0,0-.85-.19,7.26,7.26,0,0,1-1.13-.27,1.6,1.6,0,0,1-.73-.46,1.32,1.32,0,0,1-.3-.92,1.42,1.42,0,0,1,.6-1.18,2.71,2.71,0,0,1,1.68-.47,4.39,4.39,0,0,1,1.13.15,3.14,3.14,0,0,1,.92.39l-.34.63a3,3,0,0,0-1.71-.5,1.93,1.93,0,0,0-1.12.27.79.79,0,0,0-.38.69.69.69,0,0,0,.21.53,1.34,1.34,0,0,0,.54.29,7.39,7.39,0,0,0,.88.19,10.1,10.1,0,0,1,1.11.27,1.66,1.66,0,0,1,.71.45,1.22,1.22,0,0,1,.3.88,1.39,1.39,0,0,1-.63,1.2,3,3,0,0,1-1.76.45A4.64,4.64,0,0,1,258.17,24.91Z"/><path class="cls-7" d="M214.36,37.86A11.54,11.54,0,0,1,214,35a11.68,11.68,0,0,1,.33-2.83,8,8,0,0,1,.94-2.32h.75a8.72,8.72,0,0,0-1,2.39,12.85,12.85,0,0,0,0,5.52,8.72,8.72,0,0,0,1,2.39h-.75A8.42,8.42,0,0,1,214.36,37.86Z"/><path class="cls-7" d="M224.19,30.35v7.7h-.8V34.5h-4.82v3.55h-.81v-7.7h.81v3.44h4.82V30.35Z"/><path class="cls-7" d="M227.39,37.73a2.74,2.74,0,0,1-1.06-1,3.23,3.23,0,0,1,0-3,2.79,2.79,0,0,1,1.06-1,3.05,3.05,0,0,1,1.51-.38,3,3,0,0,1,1.5.38,2.79,2.79,0,0,1,1.06,1,3.31,3.31,0,0,1,0,3,2.74,2.74,0,0,1-1.06,1,3,3,0,0,1-1.5.38A3.05,3.05,0,0,1,227.39,37.73Zm2.61-.6a2,2,0,0,0,.77-.79,2.71,2.71,0,0,0,0-2.36,2,2,0,0,0-.77-.79,2.12,2.12,0,0,0-1.1-.28,2.18,2.18,0,0,0-1.11.28A2,2,0,0,0,227,34a2.63,2.63,0,0,0,0,2.36,2,2,0,0,0,.77.79,2.19,2.19,0,0,0,1.11.29A2.12,2.12,0,0,0,230,37.13Z"/><path class="cls-7" d="M233.43,29.89h.78v8.16h-.78Z"/><path class="cls-7" d="M241.67,29.89v8.16h-.75V36.91a2.27,2.27,0,0,1-.93.89,2.66,2.66,0,0,1-1.3.31,3,3,0,0,1-1.48-.38,2.58,2.58,0,0,1-1-1,3.35,3.35,0,0,1,0-3.06,2.64,2.64,0,0,1,1-1,3.06,3.06,0,0,1,1.48-.37,2.67,2.67,0,0,1,1.27.3,2.3,2.3,0,0,1,.93.85V29.89Zm-1.82,7.24a2,2,0,0,0,.77-.79,2.63,2.63,0,0,0,0-2.36,2,2,0,0,0-.77-.79,2.3,2.3,0,0,0-2.2,0,2,2,0,0,0-.77.79,2.63,2.63,0,0,0,0,2.36,2,2,0,0,0,.77.79,2.23,2.23,0,0,0,2.2,0Z"/><path class="cls-7" d="M243.84,30.84a.54.54,0,0,1-.17-.4.52.52,0,0,1,.17-.38.54.54,0,0,1,.4-.17.6.6,0,0,1,.41.16.51.51,0,0,1,.16.38.55.55,0,0,1-.57.57A.54.54,0,0,1,243.84,30.84Zm0,1.43h.78v5.78h-.78Z"/><path class="cls-7" d="M251.49,32.86a2.45,2.45,0,0,1,.64,1.84v3.35h-.78V34.78a1.93,1.93,0,0,0-.45-1.38,1.71,1.71,0,0,0-1.29-.47,2,2,0,0,0-1.48.55,2.13,2.13,0,0,0-.54,1.54v3h-.78V32.27h.74v1.06a2.18,2.18,0,0,1,.89-.81,2.78,2.78,0,0,1,1.31-.3A2.35,2.35,0,0,1,251.49,32.86Z"/><path class="cls-7" d="M259.63,32.27v5.08a2.54,2.54,0,0,1-2.89,2.89,5,5,0,0,1-1.52-.23,3.11,3.11,0,0,1-1.18-.66l.4-.59a3,3,0,0,0,1,.58,3.79,3.79,0,0,0,1.26.21,2.21,2.21,0,0,0,1.61-.51,2.13,2.13,0,0,0,.52-1.59v-.74a2.33,2.33,0,0,1-1,.84,3,3,0,0,1-1.3.28,3.14,3.14,0,0,1-1.48-.35,2.66,2.66,0,0,1-1.05-1,2.86,2.86,0,0,1-.38-1.46,2.8,2.8,0,0,1,.38-1.45,2.54,2.54,0,0,1,1-1,3.07,3.07,0,0,1,1.49-.36,2.92,2.92,0,0,1,1.33.3,2.38,2.38,0,0,1,.95.86V32.27Zm-1.82,4.6a1.94,1.94,0,0,0,.78-.75,2.14,2.14,0,0,0,.28-1.1,2.12,2.12,0,0,0-.28-1.1,2,2,0,0,0-.78-.75,2.46,2.46,0,0,0-1.14-.26,2.31,2.31,0,0,0-1.12.26,1.9,1.9,0,0,0-.79.75,2.22,2.22,0,0,0-.28,1.1,2.25,2.25,0,0,0,.28,1.1,2,2,0,0,0,.79.75,2.32,2.32,0,0,0,1.12.27A2.4,2.4,0,0,0,257.81,36.87Z"/><path class="cls-7" d="M261.17,40.19a9.14,9.14,0,0,0,1-2.38,12.53,12.53,0,0,0,0-5.54,9.14,9.14,0,0,0-1-2.38h.75a8,8,0,0,1,.95,2.32,11.2,11.2,0,0,1,.34,2.83,11.68,11.68,0,0,1-.33,2.83,8,8,0,0,1-1,2.32Z"/><path class="cls-7" d="M300.29,104H296l-.92,2h-.85l3.52-7.7h.81l3.52,7.7h-.86Zm-.29-.66-1.85-4.14-1.85,4.14Z"/><path class="cls-7" d="M308.41,97.89v8.16h-.75v-1.14a2.27,2.27,0,0,1-.93.89,2.66,2.66,0,0,1-1.3.31,2.93,2.93,0,0,1-1.47-.38,2.6,2.6,0,0,1-1-1,3.35,3.35,0,0,1,0-3.06,2.67,2.67,0,0,1,1-1,3,3,0,0,1,1.47-.37,2.67,2.67,0,0,1,1.27.3,2.3,2.3,0,0,1,.93.85V97.89Zm-1.82,7.24a2,2,0,0,0,.77-.79,2.63,2.63,0,0,0,0-2.36,2,2,0,0,0-.77-.79,2.13,2.13,0,0,0-1.09-.28,2.18,2.18,0,0,0-1.11.28,2,2,0,0,0-.77.79,2.63,2.63,0,0,0,0,2.36,2,2,0,0,0,.77.79,2.19,2.19,0,0,0,1.11.29A2.14,2.14,0,0,0,306.59,105.13Z"/><path class="cls-7" d="M315.45,100.27l-2.57,5.78h-.81l-2.56-5.78h.82l2.16,4.93,2.19-4.93Z"/><path class="cls-7" d="M316.54,98.84a.54.54,0,0,1-.16-.4.51.51,0,0,1,.16-.38.57.57,0,0,1,.41-.17.58.58,0,0,1,.4.16.52.52,0,0,1,.17.38.57.57,0,0,1-.17.41.54.54,0,0,1-.4.16A.56.56,0,0,1,316.54,98.84Zm0,1.43h.78v5.78h-.78Z"/><path class="cls-7" d="M319.71,105.91a2.83,2.83,0,0,1-1-.52l.35-.61a3.24,3.24,0,0,0,.91.47,3.69,3.69,0,0,0,1.15.18,2.26,2.26,0,0,0,1.17-.25.8.8,0,0,0,.38-.7.63.63,0,0,0-.21-.5,1.4,1.4,0,0,0-.53-.27,5.87,5.87,0,0,0-.85-.19,7.26,7.26,0,0,1-1.13-.27,1.6,1.6,0,0,1-.73-.46,1.32,1.32,0,0,1-.3-.92,1.42,1.42,0,0,1,.6-1.18,2.71,2.71,0,0,1,1.68-.47,4.39,4.39,0,0,1,1.13.15,3.14,3.14,0,0,1,.92.39l-.34.63a3,3,0,0,0-1.71-.5,1.93,1.93,0,0,0-1.12.27.79.79,0,0,0-.38.69.69.69,0,0,0,.21.53,1.34,1.34,0,0,0,.54.29,7.39,7.39,0,0,0,.88.19,10.1,10.1,0,0,1,1.11.27,1.66,1.66,0,0,1,.71.45,1.22,1.22,0,0,1,.3.88,1.39,1.39,0,0,1-.63,1.2,3,3,0,0,1-1.76.45A4.64,4.64,0,0,1,319.71,105.91Z"/><path class="cls-7" d="M325.75,105.73a2.74,2.74,0,0,1-1.06-1,3.23,3.23,0,0,1,0-3,2.79,2.79,0,0,1,1.06-1,3,3,0,0,1,1.5-.38,3.05,3.05,0,0,1,1.51.38,2.69,2.69,0,0,1,1.05,1,3.23,3.23,0,0,1,0,3,2.65,2.65,0,0,1-1.05,1,3.05,3.05,0,0,1-1.51.38A3,3,0,0,1,325.75,105.73Zm2.61-.6a1.87,1.87,0,0,0,.76-.79,2.63,2.63,0,0,0,0-2.36,1.87,1.87,0,0,0-.76-.79,2.18,2.18,0,0,0-1.11-.28,2.14,2.14,0,0,0-1.1.28,2,2,0,0,0-.77.79,2.63,2.63,0,0,0,0,2.36,2,2,0,0,0,.77.79,2.15,2.15,0,0,0,1.1.29A2.19,2.19,0,0,0,328.36,105.13Z"/><path class="cls-7" d="M333.35,100.52a2.81,2.81,0,0,1,1.35-.3V101h-.18a1.89,1.89,0,0,0-1.44.56,2.27,2.27,0,0,0-.51,1.58v2.94h-.78v-5.78h.74v1.13A2,2,0,0,1,333.35,100.52Z"/><path class="cls-7" d="M336.36,105.91a2.89,2.89,0,0,1-1-.52l.35-.61a3.24,3.24,0,0,0,.91.47,3.69,3.69,0,0,0,1.15.18,2.21,2.21,0,0,0,1.17-.25.8.8,0,0,0,.38-.7.63.63,0,0,0-.21-.5,1.33,1.33,0,0,0-.53-.27,6,6,0,0,0-.84-.19,7.43,7.43,0,0,1-1.14-.27,1.65,1.65,0,0,1-.73-.46,1.32,1.32,0,0,1-.3-.92,1.42,1.42,0,0,1,.6-1.18,2.74,2.74,0,0,1,1.69-.47,4.31,4.31,0,0,1,1.12.15,3.14,3.14,0,0,1,.92.39l-.34.63a2.91,2.91,0,0,0-1.7-.5,1.94,1.94,0,0,0-1.13.27.81.81,0,0,0-.38.69.69.69,0,0,0,.21.53,1.41,1.41,0,0,0,.54.29,7.39,7.39,0,0,0,.88.19,10.1,10.1,0,0,1,1.11.27,1.6,1.6,0,0,1,.71.45,1.22,1.22,0,0,1,.3.88,1.39,1.39,0,0,1-.63,1.2,3,3,0,0,1-1.76.45A4.57,4.57,0,0,1,336.36,105.91Z"/><path class="cls-7" d="M350.09,106.17,349,105.08a3.37,3.37,0,0,1-2.57,1,3.34,3.34,0,0,1-1.34-.25,2.1,2.1,0,0,1-.92-.69,1.68,1.68,0,0,1-.33-1,2,2,0,0,1,.44-1.24,5.56,5.56,0,0,1,1.5-1.16,4.41,4.41,0,0,1-.76-1,1.81,1.81,0,0,1-.21-.85,1.5,1.5,0,0,1,.53-1.19,2.12,2.12,0,0,1,1.42-.45,1.92,1.92,0,0,1,1.31.41,1.38,1.38,0,0,1,.48,1.12,1.6,1.6,0,0,1-.38,1,5.21,5.21,0,0,1-1.33,1L349,104a5.05,5.05,0,0,0,.51-1.48l.64.19a5,5,0,0,1-.68,1.77l1.1,1.14Zm-1.53-1.57-2.32-2.39a4.72,4.72,0,0,0-1.26.94,1.44,1.44,0,0,0-.35.93,1.18,1.18,0,0,0,.52,1,2.22,2.22,0,0,0,1.34.38A2.67,2.67,0,0,0,348.56,104.6Zm-2.68-5.43a1,1,0,0,0-.32.76,1.4,1.4,0,0,0,.17.65,4.82,4.82,0,0,0,.7.83,5.58,5.58,0,0,0,1.15-.82,1.1,1.1,0,0,0,.32-.75.88.88,0,0,0-.3-.7,1.2,1.2,0,0,0-.82-.26A1.33,1.33,0,0,0,345.88,99.17Z"/><path class="cls-7" d="M295.44,111.35v7.7h-.78v-6.16l-3,5.19h-.39l-3-5.15v6.12h-.78v-7.7h.67l3.34,5.71,3.31-5.71Z"/><path class="cls-7" d="M301.55,113.79a2.21,2.21,0,0,1,.6,1.68v3.58h-.75v-.9a1.77,1.77,0,0,1-.77.71,2.85,2.85,0,0,1-1.22.25,2.39,2.39,0,0,1-1.54-.46,1.5,1.5,0,0,1-.57-1.22,1.46,1.46,0,0,1,.54-1.19,2.59,2.59,0,0,1,1.69-.45h1.84v-.36a1.47,1.47,0,0,0-.42-1.13,1.7,1.7,0,0,0-1.22-.39,3.09,3.09,0,0,0-1.05.18,2.65,2.65,0,0,0-.87.5l-.35-.59a3.12,3.12,0,0,1,1.05-.57,4,4,0,0,1,1.3-.21A2.47,2.47,0,0,1,301.55,113.79Zm-.88,4.4a1.79,1.79,0,0,0,.7-.87v-.95h-1.81c-1,0-1.49.34-1.49,1a.94.94,0,0,0,.39.8,1.68,1.68,0,0,0,1.07.29A2.08,2.08,0,0,0,300.67,118.19Z"/><path class="cls-7" d="M309,113.86a2.45,2.45,0,0,1,.64,1.84v3.35h-.78v-3.27a1.93,1.93,0,0,0-.45-1.38,1.71,1.71,0,0,0-1.29-.47,2,2,0,0,0-1.48.55,2.13,2.13,0,0,0-.54,1.54v3h-.78v-5.78H305v1.06a2.18,2.18,0,0,1,.89-.81,2.78,2.78,0,0,1,1.31-.3A2.35,2.35,0,0,1,309,113.86Z"/><path class="cls-7" d="M315.48,113.79a2.18,2.18,0,0,1,.61,1.68v3.58h-.75v-.9a1.77,1.77,0,0,1-.77.71,2.85,2.85,0,0,1-1.22.25,2.36,2.36,0,0,1-1.54-.46,1.5,1.5,0,0,1-.57-1.22,1.48,1.48,0,0,1,.53-1.19,2.62,2.62,0,0,1,1.7-.45h1.84v-.36a1.47,1.47,0,0,0-.42-1.13,1.74,1.74,0,0,0-1.22-.39,3.15,3.15,0,0,0-1.06.18,2.87,2.87,0,0,0-.87.5l-.35-.59a3.27,3.27,0,0,1,1.06-.57,4,4,0,0,1,1.3-.21A2.42,2.42,0,0,1,315.48,113.79Zm-.88,4.4a1.81,1.81,0,0,0,.71-.87v-.95h-1.82c-1,0-1.48.34-1.48,1a1,1,0,0,0,.38.8,1.73,1.73,0,0,0,1.08.29A2,2,0,0,0,314.6,118.19Z"/><path class="cls-7" d="M323.59,113.27v5.08a2.54,2.54,0,0,1-2.89,2.89,5,5,0,0,1-1.52-.23,3.11,3.11,0,0,1-1.18-.66l.4-.59a3,3,0,0,0,1,.58,3.79,3.79,0,0,0,1.26.21,2.21,2.21,0,0,0,1.61-.51,2.13,2.13,0,0,0,.52-1.59v-.74a2.33,2.33,0,0,1-.95.84,3,3,0,0,1-1.3.28,3.14,3.14,0,0,1-1.48-.35,2.66,2.66,0,0,1-1.05-1,2.86,2.86,0,0,1-.38-1.46,2.8,2.8,0,0,1,.38-1.45,2.54,2.54,0,0,1,1-1,3.07,3.07,0,0,1,1.49-.36,2.92,2.92,0,0,1,1.33.3,2.38,2.38,0,0,1,.95.86v-1.11Zm-1.82,4.6a1.94,1.94,0,0,0,.78-.75,2.14,2.14,0,0,0,.28-1.1,2.12,2.12,0,0,0-.28-1.1,2,2,0,0,0-.78-.75,2.46,2.46,0,0,0-1.14-.26,2.31,2.31,0,0,0-1.12.26,1.9,1.9,0,0,0-.79.75,2.22,2.22,0,0,0-.28,1.1,2.25,2.25,0,0,0,.28,1.1,2,2,0,0,0,.79.75,2.32,2.32,0,0,0,1.12.27A2.4,2.4,0,0,0,321.77,117.87Z"/><path class="cls-7" d="M330.82,116.4H326a2,2,0,0,0,.69,1.46,2.32,2.32,0,0,0,1.59.56,2.45,2.45,0,0,0,1-.2,2.11,2.11,0,0,0,.79-.56l.44.5a2.47,2.47,0,0,1-1,.71,3.48,3.48,0,0,1-2.85-.14,2.77,2.77,0,0,1-1.07-1,3,3,0,0,1-.38-1.52,3.19,3.19,0,0,1,.36-1.52,2.75,2.75,0,0,1,1-1,2.94,2.94,0,0,1,2.89,0,2.71,2.71,0,0,1,1,1,3.13,3.13,0,0,1,.36,1.52Zm-4.2-2a2.06,2.06,0,0,0-.64,1.39h4.1a2.11,2.11,0,0,0-.64-1.39,2.11,2.11,0,0,0-2.82,0Z"/><path class="cls-7" d="M341.35,113.85a2.49,2.49,0,0,1,.62,1.85v3.35h-.78v-3.27a2,2,0,0,0-.43-1.38,1.6,1.6,0,0,0-1.23-.47,1.85,1.85,0,0,0-1.42.55,2.21,2.21,0,0,0-.52,1.54v3h-.78v-3.27a2,2,0,0,0-.43-1.38,1.61,1.61,0,0,0-1.24-.47,1.85,1.85,0,0,0-1.41.55,2.16,2.16,0,0,0-.52,1.54v3h-.79v-5.78h.75v1a2.1,2.1,0,0,1,.86-.81,2.73,2.73,0,0,1,1.27-.29,2.56,2.56,0,0,1,1.26.31,1.91,1.91,0,0,1,.79.91,2.2,2.2,0,0,1,.92-.89,2.8,2.8,0,0,1,1.37-.33A2.28,2.28,0,0,1,341.35,113.85Z"/><path class="cls-7" d="M349.15,116.4h-4.84a2.1,2.1,0,0,0,.7,1.46,2.29,2.29,0,0,0,1.58.56,2.47,2.47,0,0,0,1-.2,2.16,2.16,0,0,0,.78-.56l.44.5a2.37,2.37,0,0,1-1,.71,3.48,3.48,0,0,1-2.85-.14,2.7,2.7,0,0,1-1.07-1,3,3,0,0,1-.39-1.52,3.19,3.19,0,0,1,.37-1.52,2.73,2.73,0,0,1,1-1,2.85,2.85,0,0,1,1.45-.38,2.76,2.76,0,0,1,1.44.38,2.57,2.57,0,0,1,1,1,3.14,3.14,0,0,1,.37,1.52Zm-4.19-2a2.12,2.12,0,0,0-.65,1.39h4.11a2.07,2.07,0,0,0-.65-1.39,2.1,2.1,0,0,0-2.81,0Z"/><path class="cls-7" d="M355.44,113.86a2.46,2.46,0,0,1,.65,1.84v3.35h-.79v-3.27a1.93,1.93,0,0,0-.45-1.38,1.71,1.71,0,0,0-1.28-.47,2,2,0,0,0-1.48.55,2.09,2.09,0,0,0-.55,1.54v3h-.78v-5.78h.75v1.06a2.12,2.12,0,0,1,.89-.81,2.72,2.72,0,0,1,1.31-.3A2.32,2.32,0,0,1,355.44,113.86Z"/><path class="cls-7" d="M361.25,118.7a1.41,1.41,0,0,1-.54.3,2.2,2.2,0,0,1-.68.11,1.53,1.53,0,0,1-1.69-1.68v-3.5h-1v-.66h1V112h.78v1.27h1.76v.66h-1.76v3.45a1.11,1.11,0,0,0,.26.79,1,1,0,0,0,.74.27,1.5,1.5,0,0,0,.47-.08,1.07,1.07,0,0,0,.39-.22Z"/><path class="cls-7" d="M166.05,293.05l-1.76-2.47a6.13,6.13,0,0,1-.62,0h-2.06v2.44h-.82v-7.7h2.88a3.45,3.45,0,0,1,2.31.71,2.38,2.38,0,0,1,.84,1.93,2.5,2.5,0,0,1-.46,1.53,2.48,2.48,0,0,1-1.3.89l1.88,2.64Zm-.65-3.64a2,2,0,0,0,0-2.85,2.63,2.63,0,0,0-1.75-.5h-2v3.86h2A2.63,2.63,0,0,0,165.4,289.41Z"/><path class="cls-7" d="M173.62,290.4h-4.84a2,2,0,0,0,.69,1.46,2.32,2.32,0,0,0,1.59.56,2.54,2.54,0,0,0,1-.2,2.16,2.16,0,0,0,.78-.56l.44.5a2.47,2.47,0,0,1-1,.71,3.45,3.45,0,0,1-2.84-.14,2.73,2.73,0,0,1-1.08-1.05,3.27,3.27,0,0,1,0-3,2.66,2.66,0,0,1,1-1,2.94,2.94,0,0,1,2.89,0,2.71,2.71,0,0,1,1,1,3.13,3.13,0,0,1,.36,1.52Zm-4.2-2a2.06,2.06,0,0,0-.64,1.39h4.1a2.06,2.06,0,0,0-.64-1.39,2.11,2.11,0,0,0-2.82,0Z"/><path class="cls-7" d="M175.43,292.91a2.89,2.89,0,0,1-1-.52l.35-.61a3.3,3.3,0,0,0,.92.47,3.58,3.58,0,0,0,1.14.18,2.21,2.21,0,0,0,1.17-.25.8.8,0,0,0,.38-.7.63.63,0,0,0-.21-.5,1.33,1.33,0,0,0-.53-.27,6,6,0,0,0-.84-.19,7.43,7.43,0,0,1-1.14-.27,1.65,1.65,0,0,1-.73-.46,1.32,1.32,0,0,1-.3-.92,1.42,1.42,0,0,1,.6-1.18,2.74,2.74,0,0,1,1.69-.47,4.31,4.31,0,0,1,1.12.15,3.14,3.14,0,0,1,.92.39l-.34.63a2.89,2.89,0,0,0-1.7-.5,1.94,1.94,0,0,0-1.13.27.81.81,0,0,0-.38.69.67.67,0,0,0,.22.53,1.3,1.3,0,0,0,.53.29,7.87,7.87,0,0,0,.88.19,10.1,10.1,0,0,1,1.11.27,1.69,1.69,0,0,1,.72.45,1.26,1.26,0,0,1,.29.88,1.39,1.39,0,0,1-.63,1.2,3,3,0,0,1-1.76.45A4.63,4.63,0,0,1,175.43,292.91Z"/><path class="cls-7" d="M185.64,290.4H180.8a2.13,2.13,0,0,0,.69,1.46,2.32,2.32,0,0,0,1.59.56,2.47,2.47,0,0,0,1-.2,2.16,2.16,0,0,0,.78-.56l.44.5a2.51,2.51,0,0,1-1,.71,3.3,3.3,0,0,1-1.27.24,3.24,3.24,0,0,1-1.58-.38,2.73,2.73,0,0,1-1.08-1.05,3.27,3.27,0,0,1,0-3,2.66,2.66,0,0,1,1-1,2.94,2.94,0,0,1,2.89,0,2.64,2.64,0,0,1,1,1,3.13,3.13,0,0,1,.36,1.52Zm-4.2-2a2.11,2.11,0,0,0-.64,1.39h4.1a2.06,2.06,0,0,0-.64-1.39,2.11,2.11,0,0,0-2.82,0Z"/><path class="cls-7" d="M188.81,287.52a2.81,2.81,0,0,1,1.35-.3V288H190a1.85,1.85,0,0,0-1.43.56,2.23,2.23,0,0,0-.52,1.58v2.94h-.78v-5.78H188v1.13A1.87,1.87,0,0,1,188.81,287.52Z"/><path class="cls-7" d="M196.69,287.27l-2.58,5.78h-.8l-2.57-5.78h.82l2.17,4.93,2.18-4.93Z"/><path class="cls-7" d="M202.66,290.4h-4.84a2,2,0,0,0,.69,1.46,2.32,2.32,0,0,0,1.59.56,2.45,2.45,0,0,0,1-.2,2.11,2.11,0,0,0,.79-.56l.44.5a2.47,2.47,0,0,1-1,.71,3.48,3.48,0,0,1-2.85-.14,2.77,2.77,0,0,1-1.07-1.05,3,3,0,0,1-.38-1.52,3.19,3.19,0,0,1,.36-1.52,2.75,2.75,0,0,1,1-1,2.94,2.94,0,0,1,2.89,0,2.71,2.71,0,0,1,1,1,3.13,3.13,0,0,1,.36,1.52Zm-4.2-2a2.06,2.06,0,0,0-.64,1.39h4.1a2.11,2.11,0,0,0-.64-1.39,2.11,2.11,0,0,0-2.82,0Z"/><path class="cls-7" d="M8,151.35v7.7H7.22v-6.16l-3,5.19H3.81l-3-5.15v6.12H0v-7.7H.67L4,157.06l3.32-5.71Z"/><path class="cls-7" d="M15.38,156.4H10.54a2,2,0,0,0,.69,1.46,2.32,2.32,0,0,0,1.59.56,2.45,2.45,0,0,0,1-.2,2.11,2.11,0,0,0,.79-.56l.44.5a2.47,2.47,0,0,1-1,.71,3.48,3.48,0,0,1-2.85-.14,2.77,2.77,0,0,1-1.07-1,3,3,0,0,1-.38-1.52,3.19,3.19,0,0,1,.36-1.52,2.75,2.75,0,0,1,1-1,2.94,2.94,0,0,1,2.89,0,2.71,2.71,0,0,1,1,1,3.13,3.13,0,0,1,.36,1.52Zm-4.2-2a2.06,2.06,0,0,0-.64,1.39h4.1a2.06,2.06,0,0,0-.64-1.39,2.11,2.11,0,0,0-2.82,0Z"/><path class="cls-7" d="M18.55,153.52a2.75,2.75,0,0,1,1.35-.3V154h-.19a1.87,1.87,0,0,0-1.43.56,2.28,2.28,0,0,0-.52,1.58v2.94H17v-5.78h.75v1.13A2,2,0,0,1,18.55,153.52Z"/><path class="cls-7" d="M22.12,158.73a2.7,2.7,0,0,1-1.07-1,3.23,3.23,0,0,1,0-3,2.81,2.81,0,0,1,1.07-1,3.1,3.1,0,0,1,1.53-.38,2.93,2.93,0,0,1,1.34.3,2.18,2.18,0,0,1,.93.85l-.59.39a1.84,1.84,0,0,0-.72-.64,2.21,2.21,0,0,0-1-.21,2.26,2.26,0,0,0-1.13.28,2,2,0,0,0-.78.79,2.42,2.42,0,0,0-.28,1.18,2.37,2.37,0,0,0,.28,1.18,2,2,0,0,0,.78.79,2.26,2.26,0,0,0,1.13.29,2.21,2.21,0,0,0,1-.21,1.84,1.84,0,0,0,.72-.64l.59.39a2.23,2.23,0,0,1-.94.86,3.05,3.05,0,0,1-1.33.29A3.1,3.1,0,0,1,22.12,158.73Z"/><path class="cls-7" d="M32,153.86a2.45,2.45,0,0,1,.64,1.84v3.35H31.9v-3.27a1.93,1.93,0,0,0-.45-1.38,1.71,1.71,0,0,0-1.29-.47,2,2,0,0,0-1.48.55,2.13,2.13,0,0,0-.54,1.54v3h-.78v-8.16h.78v3.39a2,2,0,0,1,.88-.78,2.9,2.9,0,0,1,1.28-.28A2.35,2.35,0,0,1,32,153.86Z"/><path class="cls-7" d="M38.57,153.79a2.21,2.21,0,0,1,.6,1.68v3.58h-.75v-.9a1.77,1.77,0,0,1-.77.71,2.85,2.85,0,0,1-1.22.25,2.38,2.38,0,0,1-1.54-.46,1.5,1.5,0,0,1-.57-1.22,1.48,1.48,0,0,1,.53-1.19,2.64,2.64,0,0,1,1.7-.45h1.84v-.36A1.47,1.47,0,0,0,38,154.3a1.72,1.72,0,0,0-1.22-.39,3,3,0,0,0-1,.18,2.65,2.65,0,0,0-.87.5l-.36-.59a3.27,3.27,0,0,1,1.06-.57,4,4,0,0,1,1.3-.21A2.47,2.47,0,0,1,38.57,153.79Zm-.88,4.4a1.79,1.79,0,0,0,.7-.87v-.95H36.58c-1,0-1.49.34-1.49,1a1,1,0,0,0,.38.8,1.73,1.73,0,0,0,1.08.29A2.11,2.11,0,0,0,37.69,158.19Z"/><path class="cls-7" d="M46,153.86a2.46,2.46,0,0,1,.65,1.84v3.35h-.78v-3.27a1.89,1.89,0,0,0-.46-1.38,1.69,1.69,0,0,0-1.28-.47,2,2,0,0,0-1.48.55,2.13,2.13,0,0,0-.55,1.54v3h-.78v-5.78H42v1.06a2.12,2.12,0,0,1,.89-.81,2.72,2.72,0,0,1,1.31-.3A2.32,2.32,0,0,1,46,153.86Z"/><path class="cls-7" d="M51.79,158.7a1.53,1.53,0,0,1-.55.3,2.14,2.14,0,0,1-.67.11,1.72,1.72,0,0,1-1.26-.44,1.69,1.69,0,0,1-.44-1.24v-3.5h-1v-.66h1V152h.78v1.27h1.76v.66H49.65v3.45a1.11,1.11,0,0,0,.26.79,1,1,0,0,0,.74.27,1.45,1.45,0,0,0,.47-.08,1.07,1.07,0,0,0,.39-.22Z"/><path class="cls-7" d="M32.85,106.26a3.42,3.42,0,0,1-.83-2.5V99.35h.81v4.38a2.83,2.83,0,0,0,.61,2,2.23,2.23,0,0,0,1.74.66,2.26,2.26,0,0,0,1.76-.66,2.83,2.83,0,0,0,.61-2V99.35h.79v4.41a3.46,3.46,0,0,1-.83,2.5,3.09,3.09,0,0,1-2.33.86A3.13,3.13,0,0,1,32.85,106.26Z"/><path class="cls-7" d="M40.83,106.91a2.83,2.83,0,0,1-1-.52l.35-.61a3.1,3.1,0,0,0,.91.47,3.67,3.67,0,0,0,1.14.18,2.28,2.28,0,0,0,1.18-.25.8.8,0,0,0,.38-.7.63.63,0,0,0-.21-.5,1.4,1.4,0,0,0-.53-.27,6.2,6.2,0,0,0-.85-.19,7,7,0,0,1-1.13-.27,1.6,1.6,0,0,1-.73-.46,1.33,1.33,0,0,1-.31-.92,1.42,1.42,0,0,1,.61-1.18,2.69,2.69,0,0,1,1.68-.47,4.26,4.26,0,0,1,1.12.15,3.1,3.1,0,0,1,.93.39l-.34.63a3,3,0,0,0-1.71-.5,2,2,0,0,0-1.13.27.8.8,0,0,0-.37.69.69.69,0,0,0,.21.53,1.3,1.3,0,0,0,.53.29,8.41,8.41,0,0,0,.88.19,9.06,9.06,0,0,1,1.11.27,1.69,1.69,0,0,1,.72.45,1.22,1.22,0,0,1,.3.88,1.38,1.38,0,0,1-.64,1.2,3,3,0,0,1-1.75.45A4.64,4.64,0,0,1,40.83,106.91Z"/><path class="cls-7" d="M51.05,104.4H46.21a2,2,0,0,0,.69,1.46,2.29,2.29,0,0,0,1.58.56,2.47,2.47,0,0,0,1-.2,2.16,2.16,0,0,0,.78-.56l.44.5a2.37,2.37,0,0,1-1,.71,3.48,3.48,0,0,1-2.85-.14,2.7,2.7,0,0,1-1.07-1,3,3,0,0,1-.39-1.52,3.19,3.19,0,0,1,.37-1.52,2.75,2.75,0,0,1,1-1,2.92,2.92,0,0,1,2.88,0,2.57,2.57,0,0,1,1,1,3,3,0,0,1,.37,1.52Zm-4.2-2a2.06,2.06,0,0,0-.64,1.39h4.1a2.07,2.07,0,0,0-.65-1.39,2.1,2.1,0,0,0-2.81,0Z"/><path class="cls-7" d="M54.22,101.52a2.75,2.75,0,0,1,1.35-.3V102h-.19a1.85,1.85,0,0,0-1.43.56,2.23,2.23,0,0,0-.52,1.58v2.94h-.78v-5.78h.75v1.13A1.9,1.9,0,0,1,54.22,101.52Z"/><path class="cls-7" d="M57.22,106.91a2.83,2.83,0,0,1-1-.52l.35-.61a3.1,3.1,0,0,0,.91.47,3.67,3.67,0,0,0,1.14.18,2.28,2.28,0,0,0,1.18-.25.8.8,0,0,0,.38-.7A.66.66,0,0,0,60,105a1.4,1.4,0,0,0-.53-.27,6.2,6.2,0,0,0-.85-.19,7,7,0,0,1-1.13-.27,1.6,1.6,0,0,1-.73-.46,1.28,1.28,0,0,1-.31-.92,1.42,1.42,0,0,1,.61-1.18,2.69,2.69,0,0,1,1.68-.47,4.26,4.26,0,0,1,1.12.15,3.1,3.1,0,0,1,.93.39l-.34.63a3,3,0,0,0-1.71-.5,2,2,0,0,0-1.13.27.8.8,0,0,0-.37.69.69.69,0,0,0,.21.53,1.3,1.3,0,0,0,.53.29,8.41,8.41,0,0,0,.88.19,9.06,9.06,0,0,1,1.11.27,1.69,1.69,0,0,1,.72.45,1.22,1.22,0,0,1,.3.88,1.38,1.38,0,0,1-.64,1.2,3,3,0,0,1-1.75.45A4.64,4.64,0,0,1,57.22,106.91Z"/><path class="cls-7" d="M101.57,37.05l-1.76-2.47c-.2,0-.41,0-.62,0H97.12v2.44h-.81v-7.7h2.88a3.49,3.49,0,0,1,2.31.71,2.38,2.38,0,0,1,.84,1.93,2.57,2.57,0,0,1-.46,1.53,2.52,2.52,0,0,1-1.3.89l1.88,2.64Zm-.65-3.64a2,2,0,0,0,0-2.85,2.66,2.66,0,0,0-1.75-.5h-2v3.86h2A2.67,2.67,0,0,0,100.92,33.41Z"/><path class="cls-7" d="M109.13,34.4h-4.84a2.1,2.1,0,0,0,.7,1.46,2.29,2.29,0,0,0,1.58.56,2.47,2.47,0,0,0,1-.2,2.16,2.16,0,0,0,.78-.56l.44.5a2.44,2.44,0,0,1-1,.71,3.3,3.3,0,0,1-1.27.24,3.27,3.27,0,0,1-1.58-.38,2.64,2.64,0,0,1-1.07-1,3,3,0,0,1-.39-1.52,3.19,3.19,0,0,1,.37-1.52,2.73,2.73,0,0,1,1-1,2.83,2.83,0,0,1,1.45-.38,2.76,2.76,0,0,1,1.44.38,2.57,2.57,0,0,1,1,1,3.13,3.13,0,0,1,.36,1.52Zm-4.19-2a2.07,2.07,0,0,0-.65,1.39h4.11a2.07,2.07,0,0,0-.65-1.39,2.1,2.1,0,0,0-2.81,0Z"/><path class="cls-7" d="M119.12,31.27l-2.19,5.78h-.73l-1.83-4.74-1.83,4.74h-.73l-2.18-5.78h.75l1.81,4.91,1.86-4.91h.67l1.85,4.91,1.84-4.91Z"/><path class="cls-7" d="M123.88,31.79a2.18,2.18,0,0,1,.61,1.68v3.58h-.75v-.9a1.77,1.77,0,0,1-.77.71,2.89,2.89,0,0,1-1.22.25,2.36,2.36,0,0,1-1.54-.46,1.5,1.5,0,0,1-.57-1.22,1.48,1.48,0,0,1,.53-1.19,2.62,2.62,0,0,1,1.7-.45h1.84v-.36a1.47,1.47,0,0,0-.42-1.13,1.74,1.74,0,0,0-1.22-.39,3.15,3.15,0,0,0-1.06.18,2.87,2.87,0,0,0-.87.5l-.35-.59a3.27,3.27,0,0,1,1.06-.57,4,4,0,0,1,1.3-.21A2.42,2.42,0,0,1,123.88,31.79Zm-.88,4.4a1.81,1.81,0,0,0,.71-.87v-1h-1.82c-1,0-1.48.34-1.48,1a1,1,0,0,0,.38.8,1.73,1.73,0,0,0,1.08.29A2,2,0,0,0,123,36.19Z"/><path class="cls-7" d="M128.18,31.52a2.75,2.75,0,0,1,1.35-.3V32h-.19a1.87,1.87,0,0,0-1.43.56,2.28,2.28,0,0,0-.52,1.58v2.94h-.78V31.27h.75V32.4A1.9,1.9,0,0,1,128.18,31.52Z"/><path class="cls-7" d="M136.16,28.89v8.16h-.75V35.91a2.27,2.27,0,0,1-.93.89,2.66,2.66,0,0,1-1.3.31,2.93,2.93,0,0,1-1.47-.38,2.6,2.6,0,0,1-1-1,3.35,3.35,0,0,1,0-3.06,2.67,2.67,0,0,1,1-1,3,3,0,0,1,1.47-.37,2.67,2.67,0,0,1,1.27.3,2.3,2.3,0,0,1,.93.85V28.89Zm-1.82,7.24a2,2,0,0,0,.77-.79,2.63,2.63,0,0,0,0-2.36,2,2,0,0,0-.77-.79,2.13,2.13,0,0,0-1.09-.28,2.18,2.18,0,0,0-1.11.28,2,2,0,0,0-.77.79,2.63,2.63,0,0,0,0,2.36,2,2,0,0,0,.77.79,2.19,2.19,0,0,0,1.11.29A2.14,2.14,0,0,0,134.34,36.13Z"/><path class="cls-7" d="M138.54,36.91a2.83,2.83,0,0,1-1-.52l.35-.61a3.24,3.24,0,0,0,.91.47,3.67,3.67,0,0,0,1.14.18,2.28,2.28,0,0,0,1.18-.25.8.8,0,0,0,.38-.7.63.63,0,0,0-.21-.5,1.4,1.4,0,0,0-.53-.27,6.2,6.2,0,0,0-.85-.19,7.26,7.26,0,0,1-1.13-.27,1.6,1.6,0,0,1-.73-.46,1.32,1.32,0,0,1-.3-.92,1.42,1.42,0,0,1,.6-1.18,2.69,2.69,0,0,1,1.68-.47,4.39,4.39,0,0,1,1.13.15,3.14,3.14,0,0,1,.92.39l-.34.63a3,3,0,0,0-1.71-.5,1.91,1.91,0,0,0-1.12.27.79.79,0,0,0-.38.69.69.69,0,0,0,.21.53,1.3,1.3,0,0,0,.53.29,8.41,8.41,0,0,0,.88.19,9.8,9.8,0,0,1,1.12.27,1.72,1.72,0,0,1,.71.45,1.22,1.22,0,0,1,.3.88,1.38,1.38,0,0,1-.64,1.2,3,3,0,0,1-1.75.45A4.64,4.64,0,0,1,138.54,36.91Z"/></g></g></svg>