<svg xmlns="http://www.w3.org/2000/svg" xmlns:xlink="http://www.w3.org/1999/xlink" viewBox="0 0 950 438.69"><defs><style>.cls-1,.cls-2{fill:none;stroke-linecap:round;stroke-miterlimit:10;stroke:url(#linear-gradient);}.cls-2{stroke-dasharray:2.01 2.01;}.cls-3{fill:#dddddc;}.cls-3,.cls-4{opacity:0.15;}.cls-4{fill:#cececd;}.cls-5{fill:#d12027;}.cls-6{fill:#951b1e;}.cls-7{fill:url(#linear-gradient-4);}.cls-8{fill:#fff;}.cls-9{fill:url(#linear-gradient-5);}.cls-10{fill:#333;}.cls-11{fill:#4d4d4d;}</style><linearGradient id="linear-gradient" x1="505.4" y1="219.01" x2="444.06" y2="219.01" gradientUnits="userSpaceOnUse"><stop offset="0" stop-color="#951b1e"/><stop offset="1" stop-color="#d12027"/></linearGradient><linearGradient id="linear-gradient-4" x1="513.33" y1="290.8" x2="430.83" y2="147.9" xlink:href="#linear-gradient"/><linearGradient id="linear-gradient-5" x1="718.93" y1="287.15" x2="741.44" y2="326.14" gradientUnits="userSpaceOnUse"><stop offset="0" stop-color="#f29c23"/><stop offset="1" stop-color="#f06628"/></linearGradient></defs><title>Asset 57</title><g id="Layer_2" data-name="Layer 2"><g id="Layer_1-2" data-name="Layer 1"><line class="cls-1" x1="504.9" y1="219.01" x2="503.9" y2="219.01"/><line class="cls-2" x1="501.89" y1="219.01" x2="446.56" y2="219.01"/><line class="cls-1" x1="445.56" y1="219.01" x2="444.56" y2="219.01"/><circle class="cls-3" cx="219.35" cy="219.35" r="204.86"/><circle class="cls-4" cx="730.65" cy="219.35" r="204.86"/><path class="cls-5" d="M438.69,219.35V219h-3.57c0,.11,0,.21,0,.32,0,119-96.8,215.78-215.78,215.78S3.57,338.33,3.57,219.35,100.37,3.57,219.35,3.57h.41V0h-.41C98.4,0,0,98.4,0,219.35S98.4,438.69,219.35,438.69,438.69,340.3,438.69,219.35Z"/><path class="cls-6" d="M730.65,438.69h-.32v-3.57h.32c119,0,215.78-96.8,215.78-215.78S849.64,3.57,730.65,3.57s-215.78,96.8-215.78,215.78c0,.14,0,.28,0,.41h-3.57v-.41C511.31,98.4,609.7,0,730.65,0S950,98.4,950,219.35,851.6,438.69,730.65,438.69Z"/><rect class="cls-7" x="348.21" y="178.23" width="247.74" height="82.24" rx="41.12"/><path class="cls-8" d="M391.92,223.1v-.58a.54.54,0,0,1,.61-.61H395a.54.54,0,0,1,.61.61v.23a2,2,0,0,0,.44,1.51,2.36,2.36,0,0,0,1.59.4H399a1.68,1.68,0,0,0,2-2.06v-.34a1.47,1.47,0,0,0-.68-1.3,3.63,3.63,0,0,0-1.7-.53,17.53,17.53,0,0,1-2.19-.34,14,14,0,0,1-2.19-.63,3.47,3.47,0,0,1-1.7-1.54,5.71,5.71,0,0,1-.68-2.94v-1a4.68,4.68,0,0,1,1.28-3.51,4.85,4.85,0,0,1,3.54-1.25h2.9a4.89,4.89,0,0,1,3.56,1.25,4.68,4.68,0,0,1,1.28,3.51v.55a.54.54,0,0,1-.61.61h-2.47a.53.53,0,0,1-.6-.61v-.17a2.08,2.08,0,0,0-.44-1.54,2.36,2.36,0,0,0-1.59-.41H397.6a2.21,2.21,0,0,0-1.6.45,2.6,2.6,0,0,0-.43,1.76v.55c0,.91.8,1.43,2.38,1.57a14.54,14.54,0,0,1,4.38,1,3.75,3.75,0,0,1,1.7,1.55,5.48,5.48,0,0,1,.68,2.86v1a4.68,4.68,0,0,1-1.28,3.5,4.8,4.8,0,0,1-3.53,1.25h-3.17a4.8,4.8,0,0,1-3.53-1.25A4.68,4.68,0,0,1,391.92,223.1Z"/><path class="cls-8" d="M411.09,227.85h-2.47a.54.54,0,0,1-.61-.61V209.81a.54.54,0,0,1,.61-.61h2.47a.54.54,0,0,1,.61.61v6.82c0,.21.11.32.35.32H417a.29.29,0,0,0,.32-.32v-6.82a.54.54,0,0,1,.61-.61h2.46a.54.54,0,0,1,.61.61v17.43a.54.54,0,0,1-.61.61h-2.46a.54.54,0,0,1-.61-.61v-6.78a.28.28,0,0,0-.32-.32h-4.9c-.24,0-.35.1-.35.32v6.78A.54.54,0,0,1,411.09,227.85Z"/><path class="cls-8" d="M434.81,227.85h-9.48a.54.54,0,0,1-.61-.61V209.81a.54.54,0,0,1,.61-.61h9.48c.39,0,.58.21.58.61v2c0,.4-.19.6-.58.6h-6.06c-.23,0-.35.11-.35.32v3.77c0,.22.12.32.35.32h5a.54.54,0,0,1,.61.61v2a.54.54,0,0,1-.61.61h-5c-.23,0-.35.11-.35.32v4c0,.22.12.32.35.32h6.06c.39,0,.58.2.58.61v2C435.39,227.65,435.2,227.85,434.81,227.85Z"/><path class="cls-8" d="M441.63,227.85h-2.41a.54.54,0,0,1-.61-.61V209.81a.54.54,0,0,1,.61-.61h2.17a.84.84,0,0,1,.82.41l5.85,11h.12V209.81a.54.54,0,0,1,.61-.61h2.41a.54.54,0,0,1,.6.61v17.43a.53.53,0,0,1-.6.61h-2.12a1,1,0,0,1-.93-.58l-5.8-10.79h-.12v10.76A.53.53,0,0,1,441.63,227.85Z"/><path class="cls-8" d="M463.14,227.85h-3.07a4.82,4.82,0,0,1-3.54-1.22,4.68,4.68,0,0,1-1.25-3.5v-9.2a4.69,4.69,0,0,1,1.25-3.51,4.86,4.86,0,0,1,3.54-1.22h3.07a4.78,4.78,0,0,1,3.51,1.24,4.68,4.68,0,0,1,1.25,3.49v.87c0,.43-.2.64-.61.64h-2.46c-.41,0-.61-.21-.61-.64v-.69a1.88,1.88,0,0,0-.38-1.32,1.78,1.78,0,0,0-1.31-.4h-1.88a1.78,1.78,0,0,0-1.29.4,1.83,1.83,0,0,0-.39,1.32V223a1.83,1.83,0,0,0,.39,1.32,1.78,1.78,0,0,0,1.29.39h1.88a1.78,1.78,0,0,0,1.31-.39,1.88,1.88,0,0,0,.38-1.32v-1.83a.29.29,0,0,0-.32-.32h-1.74a.53.53,0,0,1-.61-.6v-2a.54.54,0,0,1,.61-.61h5.07a.59.59,0,0,1,.67.67v4.85a4.7,4.7,0,0,1-1.25,3.49A4.78,4.78,0,0,1,463.14,227.85Z"/><path class="cls-8" d="M477.82,227.85h-4.06a.65.65,0,0,1-.73-.61l-3.1-17.43c-.06-.4.14-.61.61-.61h3c.45,0,.68.21.7.61l1.68,14.3h.21l2.78-14.38a.56.56,0,0,1,.61-.53h3.25a.56.56,0,0,1,.63.5l2.85,14.41h.23l1.65-14.27a.61.61,0,0,1,.7-.64h3c.47,0,.67.22.61.64l-3.13,17.4a.62.62,0,0,1-.67.61h-4.09a.63.63,0,0,1-.69-.61l-2.61-13.6h-.12l-2.64,13.6A.65.65,0,0,1,477.82,227.85Z"/><path class="cls-8" d="M502.53,227.85h-3.25a4.82,4.82,0,0,1-3.54-1.22,4.68,4.68,0,0,1-1.25-3.5v-9.2a4.69,4.69,0,0,1,1.25-3.51,4.86,4.86,0,0,1,3.54-1.22h3.25a4.85,4.85,0,0,1,3.53,1.22,4.69,4.69,0,0,1,1.25,3.51v9.2a4.68,4.68,0,0,1-1.25,3.5A4.81,4.81,0,0,1,502.53,227.85Zm-2.67-3.19h2.06a1.86,1.86,0,0,0,1.32-.39,1.83,1.83,0,0,0,.39-1.32v-8.84a1.83,1.83,0,0,0-.39-1.32,1.86,1.86,0,0,0-1.32-.4h-2.06a1.78,1.78,0,0,0-1.31.4,1.88,1.88,0,0,0-.38,1.32V223a1.88,1.88,0,0,0,.38,1.32A1.78,1.78,0,0,0,499.86,224.66Z"/><path class="cls-8" d="M513.86,227.85H511.4a.54.54,0,0,1-.61-.61V209.81a.54.54,0,0,1,.61-.61h6.9a4.85,4.85,0,0,1,3.54,1.25,4.68,4.68,0,0,1,1.27,3.51v2.26q0,3.28-2.58,4.35v.12l3.11,6.47c.17.46,0,.69-.5.69h-2.35a2,2,0,0,1-.75-.11.93.93,0,0,1-.38-.5l-2.9-6.26h-1.94c-.23,0-.35.11-.35.32v5.94A.54.54,0,0,1,513.86,227.85Zm.93-9.83h2.84a2,2,0,0,0,1.37-.39,1.61,1.61,0,0,0,.43-1.26v-2.26a1.72,1.72,0,0,0-.43-1.31,2,2,0,0,0-1.37-.41h-2.84a.29.29,0,0,0-.32.32v5A.29.29,0,0,0,514.79,218Z"/><path class="cls-8" d="M536.8,227.85h-9.54a.54.54,0,0,1-.61-.61V209.81a.54.54,0,0,1,.61-.61h2.47a.54.54,0,0,1,.61.61v14.5c0,.22.11.32.34.32h6.12c.39,0,.58.22.58.64v2C537.38,227.65,537.19,227.85,536.8,227.85Z"/><path class="cls-8" d="M539.67,227.24V209.81a.54.54,0,0,1,.61-.61h7.17a4.84,4.84,0,0,1,3.52,1.24,4.65,4.65,0,0,1,1.26,3.49v9.2a4.67,4.67,0,0,1-1.26,3.49,4.84,4.84,0,0,1-3.52,1.23h-7.17A.54.54,0,0,1,539.67,227.24Zm4-2.58h3.16a1.86,1.86,0,0,0,1.32-.39,1.83,1.83,0,0,0,.39-1.32v-8.84a1.83,1.83,0,0,0-.39-1.32,1.86,1.86,0,0,0-1.32-.4h-3.16a.28.28,0,0,0-.32.32v11.63A.28.28,0,0,0,543.68,224.66Z"/><path class="cls-9" d="M752,307.81a21.17,21.17,0,0,0-21.17-21.17c-2.11,0-4-.11-6.05.89-2.45,1.52-3.35,3.32-2.76,7.74,1.93,9.22,11.2,8.58,16.74,17.44,2.68,5.6-1.17,12.19-1.17,12.19s1.46-4.43-2.68-10.5-16.27-9.5-16.27-18.13a15,15,0,0,1,1.56-6.76,27.2,27.2,0,0,1,4.62-5.78,58.84,58.84,0,0,0-9.71,9.91,21.17,21.17,0,0,0,10.62,34.73,8.32,8.32,0,0,1-2.13,2.81,10.25,10.25,0,0,0,3-2.61c1.88-2,4-4.95,4.45-8.18.93-6.14-3.69-11.2-3.69-11.2s8.16,4.94,8.08,11.59a12.33,12.33,0,0,1-3.2,8.14,8.08,8.08,0,0,1-1.9,1.51,13.64,13.64,0,0,0,3.63-1.69A21.16,21.16,0,0,0,752,307.81Zm-24.5-9.21a3.44,3.44,0,1,1,3.44-3.44A3.44,3.44,0,0,1,727.53,298.6Zm7.53.23c-1.81,4,.75,8.52.75,8.52s-6.64-4.32-3.84-9.86c3.49-6.3,11.19-4.43,11.19-4.43S736.86,294.81,735.06,298.83Z"/><path class="cls-10" d="M190.24,385.48V369.86a.48.48,0,0,1,.54-.55H197a4.41,4.41,0,0,1,3.18,1.09,4.19,4.19,0,0,1,1.11,3.12v1.07a2.72,2.72,0,0,1-2.05,2.86,2.71,2.71,0,0,1,1.66.84,2.83,2.83,0,0,1,.63,2v1.56a4.19,4.19,0,0,1-1.12,3.12,4.31,4.31,0,0,1-3.15,1.09h-6.5A.48.48,0,0,1,190.24,385.48Zm3.59-9.38h2.65a1.81,1.81,0,0,0,1.22-.35,1.5,1.5,0,0,0,.39-1.16v-1a1.53,1.53,0,0,0-.38-1.16,1.7,1.7,0,0,0-1.21-.35h-2.67c-.2,0-.29.09-.29.28v3.46A.25.25,0,0,0,193.83,376.1Zm0,7.17h2.91a1.74,1.74,0,0,0,1.23-.35,1.52,1.52,0,0,0,.38-1.15v-1.51a1.46,1.46,0,0,0-.39-1.15,2,2,0,0,0-1.27-.33h-2.86c-.2,0-.29.09-.29.28V383C193.54,383.18,193.63,383.27,193.83,383.27Z"/><path class="cls-10" d="M204.2,385.48V383a3.15,3.15,0,0,1,1.27-2.52l4.79-4.05a2.74,2.74,0,0,0,1.17-2.08v-.78a1.53,1.53,0,0,0-.38-1.16,1.74,1.74,0,0,0-1.23-.35h-.91a1.55,1.55,0,0,0-1.17.35,1.61,1.61,0,0,0-.34,1.16v.83c0,.38-.18.57-.55.57h-2.21q-.54,0-.54-.57v-.89a4.19,4.19,0,0,1,1.11-3.12,4.41,4.41,0,0,1,3.18-1.09h2a4.37,4.37,0,0,1,3.17,1.09,4.15,4.15,0,0,1,1.12,3.12v1a4.22,4.22,0,0,1-1.56,3.36l-4.89,4.16a.87.87,0,0,0-.31.62v.42h6.22a.48.48,0,0,1,.54.54v1.82a.48.48,0,0,1-.54.55h-9.36A.48.48,0,0,1,204.2,385.48Z"/><path class="cls-10" d="M217.49,385.48V369.86a.48.48,0,0,1,.54-.55h6.24a4.37,4.37,0,0,1,3.17,1.09,4.15,4.15,0,0,1,1.12,3.12v1.07a2.72,2.72,0,0,1-2.05,2.86,2.71,2.71,0,0,1,1.66.84,2.83,2.83,0,0,1,.63,2v1.56a4.19,4.19,0,0,1-1.12,3.12,4.32,4.32,0,0,1-3.15,1.09H218A.48.48,0,0,1,217.49,385.48Zm3.58-9.38h2.66a1.81,1.81,0,0,0,1.22-.35,1.5,1.5,0,0,0,.39-1.16v-1a1.53,1.53,0,0,0-.38-1.16,1.7,1.7,0,0,0-1.21-.35h-2.68a.24.24,0,0,0-.28.28v3.46C220.79,376,220.88,376.1,221.07,376.1Zm0,7.17H224a1.74,1.74,0,0,0,1.23-.35,1.52,1.52,0,0,0,.38-1.15v-1.51a1.46,1.46,0,0,0-.39-1.15,2,2,0,0,0-1.28-.33h-2.86a.24.24,0,0,0-.28.28V383A.24.24,0,0,0,221.07,383.27Z"/><path class="cls-10" d="M112.88,120.85v-.52a.48.48,0,0,1,.54-.54h2.21a.48.48,0,0,1,.55.54v.21a1.81,1.81,0,0,0,.39,1.35,2.06,2.06,0,0,0,1.43.37h1.22a1.51,1.51,0,0,0,1.82-1.85v-.31a1.31,1.31,0,0,0-.61-1.16,3.21,3.21,0,0,0-1.52-.48,15.78,15.78,0,0,1-2-.3,13.63,13.63,0,0,1-2-.57,3,3,0,0,1-1.52-1.38,5.06,5.06,0,0,1-.61-2.64v-.91a4.19,4.19,0,0,1,1.14-3.14,4.35,4.35,0,0,1,3.18-1.12h2.6a4.35,4.35,0,0,1,3.19,1.12,4.15,4.15,0,0,1,1.15,3.14v.5a.48.48,0,0,1-.55.54h-2.21a.48.48,0,0,1-.54-.54V113a1.9,1.9,0,0,0-.39-1.38,2.14,2.14,0,0,0-1.43-.36h-1a2,2,0,0,0-1.44.4,2.4,2.4,0,0,0-.38,1.58v.49c0,.81.71,1.28,2.13,1.4a13.35,13.35,0,0,1,3.93.89,3.31,3.31,0,0,1,1.52,1.39,4.83,4.83,0,0,1,.61,2.56v.88A4.21,4.21,0,0,1,123.2,124a4.34,4.34,0,0,1-3.17,1.12h-2.84A4.32,4.32,0,0,1,114,124,4.21,4.21,0,0,1,112.88,120.85Z"/><path class="cls-10" d="M130.06,125.12h-2.21a.48.48,0,0,1-.54-.55V109a.48.48,0,0,1,.54-.55h2.21a.48.48,0,0,1,.55.55v6.11c0,.19.1.28.31.28h4.39c.19,0,.29-.09.29-.28V109a.48.48,0,0,1,.55-.55h2.21a.48.48,0,0,1,.54.55v15.62a.48.48,0,0,1-.54.55h-2.21a.48.48,0,0,1-.55-.55v-6.08a.26.26,0,0,0-.29-.29h-4.39c-.21,0-.31.1-.31.29v6.08A.48.48,0,0,1,130.06,125.12Z"/><path class="cls-10" d="M151.33,125.12h-8.5a.48.48,0,0,1-.55-.55V109a.48.48,0,0,1,.55-.55h8.5c.35,0,.52.18.52.55v1.76c0,.37-.17.55-.52.55H145.9c-.21,0-.32.09-.32.29v3.38c0,.19.11.28.32.28h4.44a.49.49,0,0,1,.55.55v1.77a.48.48,0,0,1-.55.54H145.9c-.21,0-.32.1-.32.29V122c0,.19.11.29.32.29h5.43c.35,0,.52.18.52.54v1.77C151.85,124.94,151.68,125.12,151.33,125.12Z"/><path class="cls-10" d="M157.44,125.12h-2.16a.49.49,0,0,1-.55-.55V109a.49.49,0,0,1,.55-.55h1.95a.74.74,0,0,1,.73.36l5.25,9.86h.1V109a.49.49,0,0,1,.55-.55H166a.48.48,0,0,1,.54.55v15.62a.48.48,0,0,1-.54.55h-1.9a.88.88,0,0,1-.83-.52l-5.2-9.67H158v9.64A.48.48,0,0,1,157.44,125.12Z"/><path class="cls-10" d="M176.73,125.12H174A4.4,4.4,0,0,1,170.8,124a4.23,4.23,0,0,1-1.12-3.15v-8.24a4.23,4.23,0,0,1,1.12-3.15A4.36,4.36,0,0,1,174,108.4h2.76a4.33,4.33,0,0,1,3.15,1.1,4.25,4.25,0,0,1,1.11,3.14v.78q0,.57-.54.57h-2.21c-.37,0-.55-.19-.55-.57v-.63a1.65,1.65,0,0,0-.34-1.18,1.59,1.59,0,0,0-1.17-.35h-1.69a1.28,1.28,0,0,0-1.5,1.53v7.93a1.63,1.63,0,0,0,.35,1.19,1.6,1.6,0,0,0,1.15.35h1.69a1.59,1.59,0,0,0,1.17-.35,1.68,1.68,0,0,0,.34-1.19v-1.63c0-.2-.09-.29-.28-.29h-1.56a.48.48,0,0,1-.55-.55v-1.76a.48.48,0,0,1,.55-.55h4.55a.52.52,0,0,1,.59.6v4.34a4.21,4.21,0,0,1-1.11,3.13A4.29,4.29,0,0,1,176.73,125.12Z"/><path class="cls-10" d="M198.88,125.12h-8.5a.49.49,0,0,1-.55-.55V109a.49.49,0,0,1,.55-.55h8.5c.35,0,.52.18.52.55v1.76c0,.37-.17.55-.52.55h-5.43c-.21,0-.31.09-.31.29v3.38c0,.19.1.28.31.28h4.44a.48.48,0,0,1,.55.55v1.77a.48.48,0,0,1-.55.54h-4.44c-.21,0-.31.1-.31.29V122c0,.19.1.29.31.29h5.43c.35,0,.52.18.52.54v1.77C199.4,124.94,199.23,125.12,198.88,125.12Z"/><path class="cls-10" d="M209.15,125.12h-2.83a4.37,4.37,0,0,1-3.17-1.09,4.19,4.19,0,0,1-1.12-3.15v-8.24a4.19,4.19,0,0,1,1.12-3.15,4.33,4.33,0,0,1,3.17-1.09h2.83a4.35,4.35,0,0,1,3.16,1.1,4.22,4.22,0,0,1,1.13,3.14v1.22a.5.5,0,0,1-.57.57h-2.18c-.37,0-.55-.19-.55-.57v-1.07a1.65,1.65,0,0,0-.35-1.18,1.66,1.66,0,0,0-1.18-.35h-1.77a1.61,1.61,0,0,0-1.16.35,1.65,1.65,0,0,0-.35,1.18v7.93a1.67,1.67,0,0,0,.35,1.19,1.61,1.61,0,0,0,1.16.35h1.77a1.29,1.29,0,0,0,1.53-1.54v-1.06c0-.38.18-.57.55-.57h2.18a.5.5,0,0,1,.57.57v1.22a4.18,4.18,0,0,1-1.13,3.13A4.32,4.32,0,0,1,209.15,125.12Z"/><path class="cls-10" d="M223.22,125.12h-2.91a4.41,4.41,0,0,1-3.18-1.09,4.23,4.23,0,0,1-1.11-3.15v-8.24a4.23,4.23,0,0,1,1.11-3.15,4.37,4.37,0,0,1,3.18-1.09h2.91a4.34,4.34,0,0,1,3.17,1.09,4.23,4.23,0,0,1,1.12,3.15v8.24a4.23,4.23,0,0,1-1.12,3.15A4.39,4.39,0,0,1,223.22,125.12Zm-2.39-2.86h1.84a1.3,1.3,0,0,0,1.54-1.54v-7.93a1.6,1.6,0,0,0-.36-1.18,1.63,1.63,0,0,0-1.18-.35h-1.84a1.59,1.59,0,0,0-1.17.35,1.65,1.65,0,0,0-.34,1.18v7.93a1.68,1.68,0,0,0,.34,1.19A1.59,1.59,0,0,0,220.83,122.26Z"/><path class="cls-10" d="M230.21,120.85v-.52a.48.48,0,0,1,.55-.54H233a.48.48,0,0,1,.54.54v.21a1.81,1.81,0,0,0,.39,1.35,2.08,2.08,0,0,0,1.43.37h1.23a1.52,1.52,0,0,0,1.82-1.85v-.31a1.32,1.32,0,0,0-.62-1.16,3.14,3.14,0,0,0-1.52-.48,15.64,15.64,0,0,1-2-.3,13.27,13.27,0,0,1-2-.57,3,3,0,0,1-1.52-1.38,5.06,5.06,0,0,1-.61-2.64v-.91a4.19,4.19,0,0,1,1.14-3.14,4.32,4.32,0,0,1,3.17-1.12h2.6a4.36,4.36,0,0,1,3.2,1.12,4.19,4.19,0,0,1,1.14,3.14v.5a.48.48,0,0,1-.54.54h-2.21a.48.48,0,0,1-.55-.54V113a1.9,1.9,0,0,0-.39-1.38,2.14,2.14,0,0,0-1.43-.36h-1a2,2,0,0,0-1.45.4,2.41,2.41,0,0,0-.37,1.58v.49c0,.81.71,1.28,2.13,1.4a13.5,13.5,0,0,1,3.93.89,3.36,3.36,0,0,1,1.52,1.39,4.92,4.92,0,0,1,.61,2.56v.88a4.18,4.18,0,0,1-1.15,3.15,4.32,4.32,0,0,1-3.17,1.12h-2.83a4.3,4.3,0,0,1-3.17-1.12A4.18,4.18,0,0,1,230.21,120.85Z"/><path class="cls-10" d="M250.78,125.12h-2.21a.48.48,0,0,1-.55-.55V119l-4.76-10a.38.38,0,0,1,0-.4.39.39,0,0,1,.35-.17h2.75c.28,0,.49.18.63.55l2.6,6.31h.18l2.55-6.31c.12-.37.33-.55.62-.55h2.76a.41.41,0,0,1,.37.16.36.36,0,0,1,0,.41l-4.76,10v5.56A.48.48,0,0,1,250.78,125.12Z"/><path class="cls-10" d="M257.67,120.85v-.52a.48.48,0,0,1,.54-.54h2.21a.48.48,0,0,1,.55.54v.21a1.81,1.81,0,0,0,.39,1.35,2.08,2.08,0,0,0,1.43.37H264a1.51,1.51,0,0,0,1.82-1.85v-.31a1.31,1.31,0,0,0-.61-1.16,3.18,3.18,0,0,0-1.52-.48,15.37,15.37,0,0,1-2-.3,13.41,13.41,0,0,1-2-.57,3.08,3.08,0,0,1-1.52-1.38,5.06,5.06,0,0,1-.61-2.64v-.91a4.19,4.19,0,0,1,1.14-3.14A4.35,4.35,0,0,1,262,108.4h2.6a4.34,4.34,0,0,1,3.19,1.12,4.15,4.15,0,0,1,1.15,3.14v.5a.48.48,0,0,1-.55.54h-2.21a.48.48,0,0,1-.54-.54V113a1.9,1.9,0,0,0-.39-1.38,2.14,2.14,0,0,0-1.43-.36h-1a2,2,0,0,0-1.44.4,2.4,2.4,0,0,0-.38,1.58v.49c0,.81.71,1.28,2.13,1.4A13.35,13.35,0,0,1,267,116a3.31,3.31,0,0,1,1.52,1.39,4.83,4.83,0,0,1,.61,2.56v.88A4.21,4.21,0,0,1,268,124a4.32,4.32,0,0,1-3.17,1.12H262a4.32,4.32,0,0,1-3.17-1.12A4.21,4.21,0,0,1,257.67,120.85Z"/><path class="cls-10" d="M277.27,125.12h-2.18c-.39,0-.58-.18-.58-.55v-13c0-.2-.09-.29-.28-.29h-3a.48.48,0,0,1-.54-.55V109a.48.48,0,0,1,.54-.55h9.83a.48.48,0,0,1,.55.55v1.76a.48.48,0,0,1-.55.55h-3c-.21,0-.31.09-.31.29v13A.49.49,0,0,1,277.27,125.12Z"/><path class="cls-10" d="M292.66,125.12h-8.5a.49.49,0,0,1-.55-.55V109a.49.49,0,0,1,.55-.55h8.5c.35,0,.52.18.52.55v1.76c0,.37-.17.55-.52.55h-5.43c-.21,0-.31.09-.31.29v3.38c0,.19.1.28.31.28h4.44a.48.48,0,0,1,.55.55v1.77a.48.48,0,0,1-.55.54h-4.44c-.21,0-.31.1-.31.29V122c0,.19.1.29.31.29h5.43c.35,0,.52.18.52.54v1.77C293.18,124.94,293,125.12,292.66,125.12Z"/><path class="cls-10" d="M307.17,108.4H311a.48.48,0,0,1,.54.55v15.62a.48.48,0,0,1-.54.55h-2.13a.48.48,0,0,1-.55-.55V112.25h-.1L305.58,121a.64.64,0,0,1-.65.52h-2.18a.64.64,0,0,1-.65-.52l-2.7-8.74h-.11v12.35a.66.66,0,0,1-.1.43.59.59,0,0,1-.44.12h-2.14a.48.48,0,0,1-.54-.55V109a.48.48,0,0,1,.54-.55h3.88a.48.48,0,0,1,.49.36l2.76,9.18h.15l2.79-9.18A.43.43,0,0,1,307.17,108.4Z"/><path class="cls-11" d="M624.64,303.76v3.42h4.92v1.2h-4.92v4h-1.4v-9.8h6.92v1.22Z"/><path class="cls-11" d="M638.61,304.92v7.42h-1.27v-1.12a2.66,2.66,0,0,1-1.07.89,3.35,3.35,0,0,1-1.45.32,3.27,3.27,0,0,1-2.34-.82,3.2,3.2,0,0,1-.85-2.42v-4.27H633V309a2.28,2.28,0,0,0,.52,1.63,1.93,1.93,0,0,0,1.48.55,2.21,2.21,0,0,0,1.68-.64,2.54,2.54,0,0,0,.62-1.82v-3.84Z"/><path class="cls-11" d="M647.85,309.08h-6a2.37,2.37,0,0,0,.87,1.58,2.82,2.82,0,0,0,1.82.59,2.76,2.76,0,0,0,2.14-.89l.75.86a3.17,3.17,0,0,1-1.26.9,4.25,4.25,0,0,1-1.67.31,4.33,4.33,0,0,1-2.09-.49,3.44,3.44,0,0,1-1.4-1.35,3.86,3.86,0,0,1-.5-2,4,4,0,0,1,.48-1.94,3.52,3.52,0,0,1,1.33-1.35,3.72,3.72,0,0,1,1.91-.49,3.63,3.63,0,0,1,1.9.49,3.32,3.32,0,0,1,1.3,1.35,4,4,0,0,1,.47,2A3.58,3.58,0,0,1,647.85,309.08Zm-5.25-2.5a2.36,2.36,0,0,0-.77,1.54h4.76a2.39,2.39,0,0,0-.76-1.54,2.32,2.32,0,0,0-1.62-.59A2.27,2.27,0,0,0,642.6,306.58Z"/><path class="cls-11" d="M649.74,302h1.35v10.38h-1.35Z"/><path class="cls-11" d="M660.33,309.08h-6a2.32,2.32,0,0,0,.86,1.58,2.85,2.85,0,0,0,1.83.59,2.78,2.78,0,0,0,2.14-.89l.74.86a3.14,3.14,0,0,1-1.25.9,4.68,4.68,0,0,1-3.76-.18,3.4,3.4,0,0,1-1.41-1.35,4.09,4.09,0,0,1,0-3.9,3.39,3.39,0,0,1,1.33-1.35,3.7,3.7,0,0,1,1.91-.49,3.6,3.6,0,0,1,1.89.49,3.4,3.4,0,0,1,1.31,1.35,4.15,4.15,0,0,1,.47,2A3.58,3.58,0,0,1,660.33,309.08Zm-5.26-2.5a2.35,2.35,0,0,0-.76,1.54h4.76a2.4,2.4,0,0,0-.77-1.54,2.32,2.32,0,0,0-1.61-.59A2.28,2.28,0,0,0,655.07,306.58Z"/><path class="cls-11" d="M669.22,302v10.38h-1.29v-1.17a3,3,0,0,1-1.13.94,3.63,3.63,0,0,1-1.52.32,3.89,3.89,0,0,1-1.93-.48,3.43,3.43,0,0,1-1.34-1.33,4,4,0,0,1-.48-2,4,4,0,0,1,.48-2,3.49,3.49,0,0,1,1.34-1.33,3.89,3.89,0,0,1,1.93-.48,3.51,3.51,0,0,1,1.47.3,3,3,0,0,1,1.12.89V302Zm-2.55,9a2.34,2.34,0,0,0,.9-.92,3.07,3.07,0,0,0,0-2.73,2.34,2.34,0,0,0-.9-.92,2.72,2.72,0,0,0-2.56,0,2.39,2.39,0,0,0-.89.92,3,3,0,0,0,0,2.73,2.39,2.39,0,0,0,.89.92,2.65,2.65,0,0,0,2.56,0Z"/><path class="cls-11" d="M681.4,305.33a3.49,3.49,0,0,1,1.34,1.33,4,4,0,0,1,.48,2,4,4,0,0,1-.48,2A3.43,3.43,0,0,1,681.4,312a3.89,3.89,0,0,1-1.93.48,3.6,3.6,0,0,1-1.52-.32,3,3,0,0,1-1.13-.94v1.17h-1.29V302h1.35V306a2.92,2.92,0,0,1,1.11-.89,3.59,3.59,0,0,1,1.48-.3A3.89,3.89,0,0,1,681.4,305.33Zm-.77,5.59a2.34,2.34,0,0,0,.9-.92,3,3,0,0,0,0-2.73,2.34,2.34,0,0,0-.9-.92,2.56,2.56,0,0,0-1.28-.32,2.6,2.6,0,0,0-1.27.32,2.34,2.34,0,0,0-.9.92,3.07,3.07,0,0,0,0,2.73,2.34,2.34,0,0,0,.9.92,2.51,2.51,0,0,0,1.27.33A2.46,2.46,0,0,0,680.63,310.92Z"/><path class="cls-11" d="M691.44,304.92l-3.6,8.17a3.69,3.69,0,0,1-1.12,1.59,2.5,2.5,0,0,1-1.53.46,3.22,3.22,0,0,1-1.06-.17,2.2,2.2,0,0,1-.84-.51l.57-1a1.89,1.89,0,0,0,1.33.55,1.3,1.3,0,0,0,.82-.26,2.29,2.29,0,0,0,.6-.89l.23-.52-3.27-7.41H685l2.59,5.94,2.56-5.94Z"/><path class="cls-11" d="M767,302.3h1.4v8.59h5.3v1.21H767Z"/><path class="cls-11" d="M775.28,302.3h1.4v9.8h-1.4Z"/><path class="cls-11" d="M781,303.52v3.42h4.92v1.2H781v4h-1.4v-9.8h6.92v1.22Z"/><path class="cls-11" d="M795.62,310.89v1.21h-7.11v-9.8h6.92v1.22h-5.52v3h4.92v1.19h-4.92v3.17Z"/><path class="cls-11" d="M803.6,303.52h-3.36V302.3h8.11v1.22H805v8.58H803.6Z"/><path class="cls-11" d="M811.49,311.57a4.83,4.83,0,0,1-1.87-1.8,5.18,5.18,0,0,1,0-5.13,4.83,4.83,0,0,1,1.87-1.8,5.79,5.79,0,0,1,5.33,0,4.86,4.86,0,0,1,2.53,4.36,4.93,4.93,0,0,1-.67,2.57,4.88,4.88,0,0,1-1.86,1.8,5.79,5.79,0,0,1-5.33,0Zm4.61-1.09a3.67,3.67,0,0,0,1.36-1.35,4,4,0,0,0,0-3.85,3.67,3.67,0,0,0-1.36-1.35,3.81,3.81,0,0,0-1.94-.49,3.87,3.87,0,0,0-1.95.49,3.56,3.56,0,0,0-1.37,1.35,4,4,0,0,0,0,3.85,3.56,3.56,0,0,0,1.37,1.35,3.87,3.87,0,0,0,1.95.49A3.81,3.81,0,0,0,816.1,310.48Z"/><path class="cls-11" d="M824.69,307.75l-1.79,1.82v2.53h-1.4v-9.8h1.4v5.48l5.32-5.48h1.59l-4.18,4.42,4.45,5.38h-1.64Z"/><path class="cls-11" d="M838.67,310.89v1.21h-7.11v-9.8h6.92v1.22H833v3h4.92v1.19H833v3.17Z"/><path class="cls-11" d="M849.37,302.3v9.8h-1.15l-5.88-7.3v7.3h-1.4v-9.8h1.15l5.88,7.31V302.3Z"/><path class="cls-10" d="M611.6,125.16v-.52a.48.48,0,0,1,.55-.54h2.21a.48.48,0,0,1,.54.54v.21a1.81,1.81,0,0,0,.39,1.35,2.08,2.08,0,0,0,1.43.37h1.22a1.51,1.51,0,0,0,1.82-1.85v-.31a1.31,1.31,0,0,0-.61-1.16,3.14,3.14,0,0,0-1.52-.48,15.64,15.64,0,0,1-2-.3,11.22,11.22,0,0,1-2-.57,3,3,0,0,1-1.52-1.38,5.06,5.06,0,0,1-.62-2.64V117a4.19,4.19,0,0,1,1.15-3.14,4.32,4.32,0,0,1,3.17-1.12h2.6a4.36,4.36,0,0,1,3.2,1.12,4.19,4.19,0,0,1,1.14,3.14v.5a.48.48,0,0,1-.54.54h-2.21a.48.48,0,0,1-.55-.54v-.16a1.9,1.9,0,0,0-.39-1.38,2.14,2.14,0,0,0-1.43-.36h-1a2,2,0,0,0-1.45.4,2.41,2.41,0,0,0-.37,1.58V118c0,.81.71,1.28,2.13,1.4a13.36,13.36,0,0,1,3.92.89,3.33,3.33,0,0,1,1.53,1.39,4.92,4.92,0,0,1,.61,2.56v.88a4.22,4.22,0,0,1-1.15,3.15,4.32,4.32,0,0,1-3.17,1.12h-2.83a4.35,4.35,0,0,1-3.18-1.12A4.21,4.21,0,0,1,611.6,125.16Z"/><path class="cls-10" d="M628.79,129.43h-2.21a.48.48,0,0,1-.55-.55V113.26a.48.48,0,0,1,.55-.55h2.21a.48.48,0,0,1,.54.55v6.11c0,.19.11.28.31.28H634a.24.24,0,0,0,.28-.28v-6.11a.49.49,0,0,1,.55-.55h2.21a.49.49,0,0,1,.55.55v15.62a.49.49,0,0,1-.55.55h-2.21a.49.49,0,0,1-.55-.55V122.8c0-.19-.09-.29-.28-.29h-4.4c-.2,0-.31.1-.31.29v6.08A.48.48,0,0,1,628.79,129.43Z"/><path class="cls-10" d="M650.05,129.43h-8.5a.48.48,0,0,1-.54-.55V113.26a.48.48,0,0,1,.54-.55h8.5c.35,0,.52.18.52.55V115c0,.37-.17.55-.52.55h-5.43c-.21,0-.31.1-.31.29v3.38c0,.19.1.28.31.28h4.45a.48.48,0,0,1,.54.55v1.77a.48.48,0,0,1-.54.54h-4.45c-.21,0-.31.1-.31.29v3.61c0,.19.1.29.31.29h5.43c.35,0,.52.18.52.54v1.77C650.57,129.25,650.4,129.43,650.05,129.43Z"/><path class="cls-10" d="M656.16,129.43H654a.48.48,0,0,1-.55-.55V113.26a.48.48,0,0,1,.55-.55h2a.73.73,0,0,1,.72.36l5.26,9.86h.1v-9.67a.48.48,0,0,1,.54-.55h2.16a.48.48,0,0,1,.55.55v15.62a.48.48,0,0,1-.55.55h-1.89a.87.87,0,0,1-.84-.52l-5.2-9.67h-.1v9.64A.48.48,0,0,1,656.16,129.43Z"/><path class="cls-10" d="M675.45,129.43H672.7a4.37,4.37,0,0,1-3.17-1.09,4.19,4.19,0,0,1-1.12-3.15V117a4.19,4.19,0,0,1,1.12-3.15,4.33,4.33,0,0,1,3.17-1.09h2.75a4.3,4.3,0,0,1,3.15,1.1,4.22,4.22,0,0,1,1.12,3.14v.78c0,.38-.18.57-.55.57H677q-.54,0-.54-.57v-.63a1.7,1.7,0,0,0-.34-1.18,1.62,1.62,0,0,0-1.17-.35h-1.69a1.62,1.62,0,0,0-1.16.35,1.65,1.65,0,0,0-.35,1.18V125a1.67,1.67,0,0,0,.35,1.19,1.62,1.62,0,0,0,1.16.35h1.69a1.62,1.62,0,0,0,1.17-.35,1.73,1.73,0,0,0,.34-1.19V123.4a.26.26,0,0,0-.29-.29h-1.56a.48.48,0,0,1-.54-.55V120.8a.48.48,0,0,1,.54-.55h4.55a.53.53,0,0,1,.6.6v4.34a4.18,4.18,0,0,1-1.12,3.13A4.26,4.26,0,0,1,675.45,129.43Z"/><path class="cls-10" d="M699.66,112.71h3.85a.48.48,0,0,1,.54.55v15.62a.48.48,0,0,1-.54.55h-2.13a.48.48,0,0,1-.55-.55V116.56h-.1l-2.66,8.71a.64.64,0,0,1-.65.52h-2.18a.65.65,0,0,1-.65-.52l-2.7-8.74h-.11v12.35a.66.66,0,0,1-.1.43.59.59,0,0,1-.44.12h-2.13a.48.48,0,0,1-.55-.55V113.26a.48.48,0,0,1,.55-.55H693a.48.48,0,0,1,.49.36l2.76,9.18h.15l2.79-9.18A.43.43,0,0,1,699.66,112.71Z"/><path class="cls-10" d="M709.18,129.43h-2.5c-.31,0-.42-.18-.31-.55l4.11-15.62a.74.74,0,0,1,.78-.55h3.45a.69.69,0,0,1,.78.55l4.11,15.62c.11.37,0,.55-.31.55h-2.5a.5.5,0,0,1-.39-.12,1,1,0,0,1-.15-.43l-.73-2.86h-5.07l-.73,2.86a.75.75,0,0,1-.17.43A.48.48,0,0,1,709.18,129.43ZM713,115.86l-1.88,7.51h3.85l-1.87-7.51Z"/><path class="cls-10" d="M724.67,129.43h-2.21a.48.48,0,0,1-.54-.55V113.26a.48.48,0,0,1,.54-.55h6.19a4.32,4.32,0,0,1,3.17,1.12A4.19,4.19,0,0,1,733,117v2a3.79,3.79,0,0,1-2.32,3.9V123l2.78,5.79c.16.42,0,.63-.44.63h-2.1a1.58,1.58,0,0,1-.68-.11.73.73,0,0,1-.34-.44l-2.6-5.61h-1.74c-.21,0-.31.09-.31.28v5.33A.48.48,0,0,1,724.67,129.43Zm.83-8.82h2.55a1.74,1.74,0,0,0,1.22-.35,1.45,1.45,0,0,0,.39-1.13v-2a1.56,1.56,0,0,0-.39-1.17,1.74,1.74,0,0,0-1.22-.36H725.5c-.19,0-.28.1-.28.29v4.47A.24.24,0,0,0,725.5,120.61Z"/><path class="cls-10" d="M738.89,129.43h-2.21a.48.48,0,0,1-.54-.55V113.26a.48.48,0,0,1,.54-.55h2.21a.48.48,0,0,1,.55.55v7.41h0a8.59,8.59,0,0,1,.81-1.62l4-5.79a1.11,1.11,0,0,1,1-.55h2.55c.19,0,.31.06.35.17s0,.26-.14.43l-4.94,6.84,5.51,8.63c.12.21.15.37.07.48a.57.57,0,0,1-.48.17h-1.9a1.26,1.26,0,0,1-1.22-.55l-4-6.37-1.64,1.93v4.44A.48.48,0,0,1,738.89,129.43Z"/><path class="cls-10" d="M759.7,129.43h-8.51a.48.48,0,0,1-.54-.55V113.26a.48.48,0,0,1,.54-.55h8.51c.34,0,.51.18.51.55V115c0,.37-.17.55-.51.55h-5.44c-.21,0-.31.1-.31.29v3.38c0,.19.1.28.31.28h4.45a.48.48,0,0,1,.54.55v1.77a.48.48,0,0,1-.54.54h-4.45c-.21,0-.31.1-.31.29v3.61c0,.19.1.29.31.29h5.44q.51,0,.51.54v1.77C760.21,129.25,760,129.43,759.7,129.43Z"/><path class="cls-10" d="M768.27,129.43h-2.18c-.38,0-.57-.18-.57-.55v-13a.26.26,0,0,0-.29-.29h-3a.48.48,0,0,1-.55-.55v-1.76a.48.48,0,0,1,.55-.55h9.83a.48.48,0,0,1,.54.55V115a.48.48,0,0,1-.54.55h-3c-.21,0-.31.1-.31.29v13A.48.48,0,0,1,768.27,129.43Z"/><path class="cls-10" d="M777.37,129.43h-2.21a.48.48,0,0,1-.54-.55V113.26a.48.48,0,0,1,.54-.55h6.35a4.29,4.29,0,0,1,3.14,1.1,4.22,4.22,0,0,1,1.12,3.14v2.49a4.2,4.2,0,0,1-1.12,3.14,4.29,4.29,0,0,1-3.14,1.1h-3.28c-.21,0-.31.1-.31.29v4.91A.48.48,0,0,1,777.37,129.43Zm.84-8.63H781a1.54,1.54,0,0,0,1.17-.36,1.58,1.58,0,0,0,.34-1.15V117.1a1.65,1.65,0,0,0-.34-1.18,1.59,1.59,0,0,0-1.17-.35h-2.75a.26.26,0,0,0-.29.29v4.65A.26.26,0,0,0,778.21,120.8Z"/><path class="cls-10" d="M797.5,129.43h-8.56a.48.48,0,0,1-.54-.55V113.26a.48.48,0,0,1,.54-.55h2.21a.48.48,0,0,1,.55.55v13c0,.19.1.28.31.28h5.49c.34,0,.52.19.52.57v1.77C798,129.25,797.84,129.43,797.5,129.43Z"/><path class="cls-10" d="M801.81,129.43h-2.49c-.31,0-.42-.18-.31-.55l4.1-15.62a.75.75,0,0,1,.78-.55h3.46a.7.7,0,0,1,.78.55l4.11,15.62c.1.37,0,.55-.31.55h-2.5a.5.5,0,0,1-.39-.12.85.85,0,0,1-.15-.43l-.73-2.86h-5.07l-.73,2.86a.83.83,0,0,1-.17.43A.51.51,0,0,1,801.81,129.43Zm3.77-13.57-1.87,7.51h3.85l-1.87-7.51Z"/><path class="cls-10" d="M821.42,129.43h-2.84a4.39,4.39,0,0,1-3.17-1.09,4.23,4.23,0,0,1-1.12-3.15V117a4.23,4.23,0,0,1,1.12-3.15,4.34,4.34,0,0,1,3.17-1.09h2.84a4.37,4.37,0,0,1,3.16,1.1,4.22,4.22,0,0,1,1.13,3.14v1.22a.5.5,0,0,1-.57.57H823a.5.5,0,0,1-.55-.57V117.1a1.6,1.6,0,0,0-.35-1.18,1.63,1.63,0,0,0-1.18-.35H819.1a1.28,1.28,0,0,0-1.5,1.53V125a1.63,1.63,0,0,0,.35,1.19,1.6,1.6,0,0,0,1.15.35h1.77A1.29,1.29,0,0,0,822.4,125V124a.5.5,0,0,1,.55-.57h2.19a.5.5,0,0,1,.57.57v1.22a4.18,4.18,0,0,1-1.13,3.13A4.33,4.33,0,0,1,821.42,129.43Z"/><path class="cls-10" d="M837.59,129.43h-8.5a.48.48,0,0,1-.55-.55V113.26a.48.48,0,0,1,.55-.55h8.5c.35,0,.52.18.52.55V115c0,.37-.17.55-.52.55h-5.44c-.2,0-.31.1-.31.29v3.38c0,.19.11.28.31.28h4.45a.48.48,0,0,1,.55.55v1.77a.48.48,0,0,1-.55.54h-4.45c-.2,0-.31.1-.31.29v3.61c0,.19.11.29.31.29h5.44c.35,0,.52.18.52.54v1.77C838.11,129.25,837.94,129.43,837.59,129.43Z"/><path class="cls-10" d="M721.88,386h-2a.48.48,0,0,1-.55-.55V383h-6.45a1,1,0,0,1-.7-.26,1,1,0,0,1-.26-.7v-1a2.75,2.75,0,0,1,.26-1.27l5.18-9.62a2,2,0,0,1,.48-.64,1.07,1.07,0,0,1,.66-.17h2.94a1,1,0,0,1,.71.26.91.91,0,0,1,.28.7v9.86h1.87a.46.46,0,0,1,.52.52v1.74c0,.4-.18.6-.52.6H722.4v2.49a.6.6,0,0,1-.12.43A.55.55,0,0,1,721.88,386Zm-2.58-5.9v-8l-4.21,8Z"/><path class="cls-10" d="M733.65,386h-2.83a4.33,4.33,0,0,1-3.17-1.09,4.19,4.19,0,0,1-1.12-3.15v-8.24a4.19,4.19,0,0,1,1.12-3.15,4.37,4.37,0,0,1,3.17-1.09h2.83a4.3,4.3,0,0,1,3.16,1.11,4.14,4.14,0,0,1,1.13,3.13v1.22a.5.5,0,0,1-.57.57h-2.18c-.37,0-.55-.19-.55-.57v-1.06a1.67,1.67,0,0,0-.35-1.19,1.65,1.65,0,0,0-1.18-.35h-1.77a1.62,1.62,0,0,0-1.16.35,1.67,1.67,0,0,0-.35,1.19v7.93a1.66,1.66,0,0,0,.35,1.18,1.62,1.62,0,0,0,1.16.35h1.77a1.65,1.65,0,0,0,1.18-.35,1.66,1.66,0,0,0,.35-1.18v-1.07c0-.38.18-.57.55-.57h2.18a.5.5,0,0,1,.57.57v1.22a4.14,4.14,0,0,1-1.13,3.13A4.3,4.3,0,0,1,733.65,386Z"/><path class="cls-6" d="M783.63,158.92h-106a7.45,7.45,0,0,0-7.45,7.44v71.9a7.46,7.46,0,0,0,7.45,7.45h35.83l-1.45,11.59h-6a1.77,1.77,0,0,0,0,3.54h49.19a1.77,1.77,0,0,0,0-3.54h-6l-1.45-11.59h35.84a7.46,7.46,0,0,0,7.45-7.45v-71.9A7.45,7.45,0,0,0,783.63,158.92Zm-38,98.38h-30l1.45-11.59h6.51l.64,2.55a6.62,6.62,0,0,0,12.84,0l.64-2.55h6.52Zm-18.44-11.59h6.82l-.42,1.69a3.08,3.08,0,0,1-6,0Zm60.3-7.45a3.92,3.92,0,0,1-3.91,3.91h-106a3.92,3.92,0,0,1-3.91-3.91v-71.9a3.91,3.91,0,0,1,3.91-3.9h106a3.91,3.91,0,0,1,3.91,3.9v71.9Z"/><path class="cls-6" d="M683.35,234.6h-2V170h89a1.78,1.78,0,0,0,0-3.55H679.57a1.77,1.77,0,0,0-1.77,1.77v68.12a1.77,1.77,0,0,0,1.77,1.77h3.78a1.77,1.77,0,0,0,0-3.54Z"/><path class="cls-6" d="M781.74,166.48H778a1.78,1.78,0,0,0,0,3.55h2V234.6H690.92a1.77,1.77,0,1,0,0,3.54h90.82a1.77,1.77,0,0,0,1.77-1.77V168.25A1.77,1.77,0,0,0,781.74,166.48Z"/><path class="cls-5" d="M718.77,211.12a5.22,5.22,0,0,0,1.38.18,4.87,4.87,0,0,0,.66,0l24.88-2.92a7.44,7.44,0,0,0,6.43-5.94l3-14.88a1.76,1.76,0,0,0-1.65-2.11l-41.63-1.9h-.09a3.67,3.67,0,0,0-1.48-2l-5.09-3.4a1.77,1.77,0,0,0-2,3l5.1,3.4a.13.13,0,0,1,.05.07l6.49,22.72a5.69,5.69,0,0,0,1,1.9l-2.38,4.75a3.64,3.64,0,0,0,.16,3.56,3.49,3.49,0,0,0,.91,1,5.46,5.46,0,0,0-.73,2.75,5.56,5.56,0,1,0,10.73-2h16.14a5.36,5.36,0,0,0-.38,2,5.55,5.55,0,1,0,10.52-2.47,1.77,1.77,0,0,0-1.19-3.08H716.69a.11.11,0,0,1-.11-.06.12.12,0,0,1,0-.12Zm1.63-3.37a2,2,0,0,1-2.17-1.45L716,198.41h5.66l1.49,9Zm13.92-1.64v-7.7h6.06l-.64,7.06Zm0-11.24v-6.79l7,.32-.59,6.47Zm-3.55,0h-6.14l-1.2-7.28,7.34.33Zm0,3.54v8.11l-4.13.49-1.42-8.6Zm14.5,6.41-1.94.23.6-6.64h5.38l-.66,3.3A3.91,3.91,0,0,1,745.27,204.82Zm4.74-9.95h-5.76l.58-6.31,6.39.29Zm-30.19-7.45,1.23,7.45H715l-2.22-7.77Zm1.49,33.81a2,2,0,1,1-2-2A2,2,0,0,1,721.31,221.23Zm24.48,2a2,2,0,1,1,2-2A2,2,0,0,1,745.79,223.25Z"/><path class="cls-6" d="M217.69,281.19c-1.92,1.13-4.2,2.06-5.94,3.59-4.84,4.25-6.76,12-1.58,18.3,2.11,2.55,4.76,4.64,7.13,7a44.08,44.08,0,0,1,3.79,3.95,7.22,7.22,0,0,1,.53,8.87c-1.78,2.87-4.63,3.74-7.84,3.36-8.62-1-16-8.92-16.91-17.6a21.6,21.6,0,0,1,1.8-10.8,19,19,0,0,1,7.79-8.67,6.21,6.21,0,0,0,1.84-1.84A13,13,0,0,1,217.69,281.19Z"/><path class="cls-5" d="M222.24,332.92c1.79-1.24,3.82-2.24,5.32-3.75,4.94-5,5.8-12.18,1-18a77.61,77.61,0,0,0-7.25-7c-2-1.87-4.09-3.67-5-6.38a7.29,7.29,0,0,1,6.87-9.54c6.52,0,11.36,3.26,15.08,8.35a20.59,20.59,0,0,1,3.66,12.19c.11,6.49-3.17,11.23-7.9,15.07a27,27,0,0,0-5,4.88A11.34,11.34,0,0,1,222.24,332.92Z"/><path class="cls-11" d="M106.82,303.76v3.42h4.92v1.2h-4.92v4h-1.4v-9.8h6.92v1.22Z"/><path class="cls-11" d="M120.8,304.92v7.42h-1.28v-1.12a2.66,2.66,0,0,1-1.07.89,3.31,3.31,0,0,1-1.45.32,2.91,2.91,0,0,1-3.19-3.24v-4.27h1.34V309a2.33,2.33,0,0,0,.52,1.63,1.94,1.94,0,0,0,1.49.55,2.21,2.21,0,0,0,1.68-.64,2.54,2.54,0,0,0,.61-1.82v-3.84Z"/><path class="cls-11" d="M130,309.08h-6a2.32,2.32,0,0,0,.86,1.58,2.84,2.84,0,0,0,1.82.59,2.78,2.78,0,0,0,2.15-.89l.74.86a3.21,3.21,0,0,1-1.25.9,4.68,4.68,0,0,1-3.76-.18,3.4,3.4,0,0,1-1.41-1.35,4.09,4.09,0,0,1,0-3.9,3.39,3.39,0,0,1,1.33-1.35,3.7,3.7,0,0,1,1.91-.49,3.6,3.6,0,0,1,1.89.49,3.4,3.4,0,0,1,1.31,1.35,4.14,4.14,0,0,1,.46,2A3.19,3.19,0,0,1,130,309.08Zm-5.26-2.5a2.35,2.35,0,0,0-.76,1.54h4.76a2.4,2.4,0,0,0-.77-1.54,2.32,2.32,0,0,0-1.61-.59A2.28,2.28,0,0,0,124.78,306.58Z"/><path class="cls-11" d="M131.93,302h1.34v10.38h-1.34Z"/><path class="cls-11" d="M142.51,309.08h-6a2.32,2.32,0,0,0,.86,1.58,2.85,2.85,0,0,0,1.83.59,2.76,2.76,0,0,0,2.14-.89l.74.86a3.07,3.07,0,0,1-1.25.9,4.68,4.68,0,0,1-3.76-.18,3.4,3.4,0,0,1-1.41-1.35,3.85,3.85,0,0,1-.49-2,4,4,0,0,1,.48-1.94,3.39,3.39,0,0,1,1.33-1.35,3.95,3.95,0,0,1,3.81,0,3.38,3.38,0,0,1,1.3,1.35,4.15,4.15,0,0,1,.47,2A3.58,3.58,0,0,1,142.51,309.08Zm-5.26-2.5a2.39,2.39,0,0,0-.76,1.54h4.76a2.39,2.39,0,0,0-.76-1.54,2.36,2.36,0,0,0-1.62-.59A2.31,2.31,0,0,0,137.25,306.58Z"/><path class="cls-11" d="M151.4,302v10.38h-1.29v-1.17a3,3,0,0,1-1.13.94,3.58,3.58,0,0,1-1.51.32,3.9,3.9,0,0,1-1.94-.48,3.4,3.4,0,0,1-1.33-1.33,4,4,0,0,1-.49-2,4,4,0,0,1,.49-2,3.47,3.47,0,0,1,1.33-1.33,3.9,3.9,0,0,1,1.94-.48,3.58,3.58,0,0,1,1.47.3,3,3,0,0,1,1.12.89V302Zm-2.55,9a2.28,2.28,0,0,0,.9-.92,3.07,3.07,0,0,0,0-2.73,2.28,2.28,0,0,0-.9-.92,2.7,2.7,0,0,0-2.55,0,2.34,2.34,0,0,0-.9.92,3,3,0,0,0,0,2.73,2.34,2.34,0,0,0,.9.92,2.63,2.63,0,0,0,2.55,0Z"/><path class="cls-11" d="M163.58,305.33a3.49,3.49,0,0,1,1.34,1.33,4,4,0,0,1,.48,2,4,4,0,0,1-.48,2,3.43,3.43,0,0,1-1.34,1.33,3.86,3.86,0,0,1-1.93.48,3.55,3.55,0,0,1-1.51-.32,3,3,0,0,1-1.14-.94v1.17h-1.29V302h1.35V306a3,3,0,0,1,1.12-.89,3.58,3.58,0,0,1,1.47-.3A3.86,3.86,0,0,1,163.58,305.33Zm-.76,5.59a2.32,2.32,0,0,0,.89-.92,3,3,0,0,0,0-2.73,2.32,2.32,0,0,0-.89-.92,2.72,2.72,0,0,0-2.56,0,2.25,2.25,0,0,0-.89.92,3,3,0,0,0,0,2.73,2.25,2.25,0,0,0,.89.92,2.65,2.65,0,0,0,2.56,0Z"/><path class="cls-11" d="M173.62,304.92l-3.6,8.17a3.77,3.77,0,0,1-1.11,1.59,2.55,2.55,0,0,1-1.54.46,3.12,3.12,0,0,1-1.05-.17,2.25,2.25,0,0,1-.85-.51l.57-1a1.91,1.91,0,0,0,1.33.55,1.3,1.3,0,0,0,.82-.26,2.29,2.29,0,0,0,.6-.89l.24-.52-3.28-7.41h1.4l2.59,5.94,2.56-5.94Z"/><path class="cls-11" d="M261.52,311.87a4.32,4.32,0,0,1-1.61-.89l.51-1.09a4.25,4.25,0,0,0,1.44.82,5.25,5.25,0,0,0,1.8.32,3.2,3.2,0,0,0,1.82-.42,1.27,1.27,0,0,0,.6-1.1,1.07,1.07,0,0,0-.33-.81,2.2,2.2,0,0,0-.81-.49,12.89,12.89,0,0,0-1.37-.37,14,14,0,0,1-1.78-.54,2.87,2.87,0,0,1-1.16-.82,2.13,2.13,0,0,1-.49-1.49,2.49,2.49,0,0,1,.42-1.41,2.79,2.79,0,0,1,1.25-1,5.1,5.1,0,0,1,2.09-.38,6.57,6.57,0,0,1,1.7.23,4.69,4.69,0,0,1,1.45.64l-.47,1.12a5,5,0,0,0-1.31-.59,4.81,4.81,0,0,0-1.37-.21,3,3,0,0,0-1.79.44,1.31,1.31,0,0,0-.59,1.12,1.09,1.09,0,0,0,.33.82,2.43,2.43,0,0,0,.83.49c.34.11.79.24,1.36.37a12.13,12.13,0,0,1,1.77.53A3,3,0,0,1,267,308a2.13,2.13,0,0,1,.48,1.47,2.53,2.53,0,0,1-.42,1.41,2.85,2.85,0,0,1-1.27,1,5.41,5.41,0,0,1-2.1.37A6.71,6.71,0,0,1,261.52,311.87Z"/><path class="cls-11" d="M277.92,302.3v9.8h-1.4v-4.36H270.9v4.36h-1.4v-9.8h1.4v4.22h5.62V302.3Z"/><path class="cls-11" d="M288,310.89v1.21h-7.12v-9.8h6.92v1.22h-5.52v3h4.92v1.19h-4.92v3.17Z"/><path class="cls-11" d="M298.67,302.3v9.8h-1.15l-5.88-7.3v7.3h-1.4v-9.8h1.15l5.88,7.31V302.3Z"/><path class="cls-11" d="M308.4,307.15h1.34V311a5,5,0,0,1-1.69.92,6.16,6.16,0,0,1-2,.33,5.52,5.52,0,0,1-2.67-.65,4.87,4.87,0,0,1-2.55-4.37,5,5,0,0,1,.68-2.57,4.7,4.7,0,0,1,1.88-1.79,6,6,0,0,1,4.83-.26,4.33,4.33,0,0,1,1.63,1.12l-.87.87a4,4,0,0,0-2.84-1.13,4.15,4.15,0,0,0-2,.48,3.47,3.47,0,0,0-1.39,1.35,3.91,3.91,0,0,0,0,3.86,3.61,3.61,0,0,0,1.39,1.35,4,4,0,0,0,2,.49,4.15,4.15,0,0,0,2.3-.63Z"/><path class="cls-11" d="M318.13,303.52h-3.36V302.3h8.11v1.22h-3.36v8.58h-1.39Z"/><path class="cls-11" d="M326,311.57a5,5,0,0,1,0-8.73,5.81,5.81,0,0,1,5.34,0,4.86,4.86,0,0,1,2.53,4.36,4.93,4.93,0,0,1-.67,2.57,4.88,4.88,0,0,1-1.86,1.8,5.81,5.81,0,0,1-5.34,0Zm4.62-1.09a3.64,3.64,0,0,0,1.35-1.35,4,4,0,0,0,0-3.85,3.64,3.64,0,0,0-1.35-1.35,3.83,3.83,0,0,0-1.94-.49,3.93,3.93,0,0,0-2,.49,3.62,3.62,0,0,0-1.37,1.35,4,4,0,0,0,0,3.85,3.62,3.62,0,0,0,1.37,1.35,3.93,3.93,0,0,0,2,.49A3.83,3.83,0,0,0,330.63,310.48Z"/><path class="cls-11" d="M339.21,307.75l-1.79,1.82v2.53H336v-9.8h1.4v5.48l5.32-5.48h1.6l-4.19,4.42,4.45,5.38H343Z"/><path class="cls-11" d="M353.2,310.89v1.21h-7.11v-9.8H353v1.22h-5.51v3h4.91v1.19h-4.91v3.17Z"/><path class="cls-11" d="M363.9,302.3v9.8h-1.15l-5.88-7.3v7.3h-1.4v-9.8h1.15l5.88,7.31V302.3Z"/><path class="cls-6" d="M263.47,192.08a6.79,6.79,0,1,1,6.78-6.79A6.79,6.79,0,0,1,263.47,192.08Zm0-10.18a3.4,3.4,0,1,0,3.39,3.39A3.4,3.4,0,0,0,263.47,181.9Z"/><path class="cls-6" d="M175.23,248.08a6.79,6.79,0,1,1,6.79-6.79A6.8,6.8,0,0,1,175.23,248.08Zm0-10.18a3.4,3.4,0,1,0,3.39,3.39A3.4,3.4,0,0,0,175.23,237.9Z"/><path class="cls-6" d="M259.44,183.88a1.78,1.78,0,0,1-.74-.17l-14.64-7.07a1.7,1.7,0,0,1,1.48-3.06l14.64,7.07a1.7,1.7,0,0,1-.74,3.23Z"/><path class="cls-6" d="M244.8,260a6.79,6.79,0,1,1,6.79-6.79A6.8,6.8,0,0,1,244.8,260Zm0-10.18a3.39,3.39,0,1,0,3.4,3.39A3.39,3.39,0,0,0,244.8,249.78Z"/><path class="cls-6" d="M240.77,251.75a1.59,1.59,0,0,1-.73-.17l-14.64-7.06a1.7,1.7,0,0,1,1.47-3.06l14.64,7.07a1.69,1.69,0,0,1-.74,3.22Z"/><path class="cls-6" d="M219.35,217.53a6.79,6.79,0,1,1,6.79-6.78A6.79,6.79,0,0,1,219.35,217.53Zm0-10.18a3.4,3.4,0,1,0,3.39,3.4A3.41,3.41,0,0,0,219.35,207.35Z"/><path class="cls-6" d="M215.32,209.33a1.68,1.68,0,0,1-1-.36L203,200.21a1.7,1.7,0,0,1,2.09-2.68l11.24,8.76a1.7,1.7,0,0,1-1,3Z"/><path class="cls-6" d="M249.89,239.59a18.67,18.67,0,1,1,18.67-18.66A18.68,18.68,0,0,1,249.89,239.59Zm0-33.93a15.27,15.27,0,1,0,15.27,15.27A15.29,15.29,0,0,0,249.89,205.66Z"/><path class="cls-5" d="M249.89,222.63a6.79,6.79,0,1,1,6.79-6.79A6.8,6.8,0,0,1,249.89,222.63Zm0-10.19a3.4,3.4,0,1,0,3.4,3.4A3.4,3.4,0,0,0,249.89,212.44Z"/><path class="cls-5" d="M249.89,239.59a18.7,18.7,0,0,1-9.33-2.51,1.7,1.7,0,0,1-.85-1.47v-4.47A5.19,5.19,0,0,1,245,226h9.84a5.19,5.19,0,0,1,5.26,5.12v4.47a1.7,1.7,0,0,1-.84,1.47A18.74,18.74,0,0,1,249.89,239.59Zm-6.79-5a15.42,15.42,0,0,0,13.58,0v-3.46a1.81,1.81,0,0,0-1.87-1.73H245a1.81,1.81,0,0,0-1.87,1.73Z"/><path class="cls-6" d="M209.17,260a18.67,18.67,0,1,1,18.66-18.67A18.69,18.69,0,0,1,209.17,260Zm0-33.94a15.27,15.27,0,1,0,15.27,15.27A15.29,15.29,0,0,0,209.17,226Z"/><path class="cls-5" d="M209.17,243A6.79,6.79,0,1,1,216,236.2,6.8,6.8,0,0,1,209.17,243Zm0-10.18a3.39,3.39,0,1,0,3.39,3.39A3.4,3.4,0,0,0,209.17,232.81Z"/><path class="cls-5" d="M209.17,260a18.64,18.64,0,0,1-9.34-2.52A1.7,1.7,0,0,1,199,256V251.5a5.2,5.2,0,0,1,5.26-5.12h9.85a5.2,5.2,0,0,1,5.26,5.12V256a1.68,1.68,0,0,1-.85,1.47A18.61,18.61,0,0,1,209.17,260Zm-6.79-5A15.4,15.4,0,0,0,216,255V251.5a1.79,1.79,0,0,0-1.86-1.72h-9.85a1.8,1.8,0,0,0-1.86,1.72Z"/><path class="cls-6" d="M187.11,217.53a18.67,18.67,0,1,1,18.66-18.66A18.68,18.68,0,0,1,187.11,217.53Zm0-33.93a15.27,15.27,0,1,0,15.27,15.27A15.29,15.29,0,0,0,187.11,183.6Z"/><path class="cls-5" d="M187.11,200.57a6.79,6.79,0,1,1,6.78-6.79A6.8,6.8,0,0,1,187.11,200.57Zm0-10.19a3.4,3.4,0,1,0,3.39,3.4A3.4,3.4,0,0,0,187.11,190.38Z"/><path class="cls-5" d="M187.11,217.53a18.74,18.74,0,0,1-9.34-2.51,1.72,1.72,0,0,1-.84-1.47v-4.47a5.19,5.19,0,0,1,5.25-5.12H192a5.2,5.2,0,0,1,5.26,5.12v4.47a1.69,1.69,0,0,1-.85,1.47A18.7,18.7,0,0,1,187.11,217.53Zm-6.79-5a15.4,15.4,0,0,0,13.57,0v-3.46a1.8,1.8,0,0,0-1.86-1.73h-9.85a1.81,1.81,0,0,0-1.86,1.73Z"/><path class="cls-6" d="M227.83,195.47a18.67,18.67,0,1,1,18.67-18.66A18.68,18.68,0,0,1,227.83,195.47Zm0-33.93a15.27,15.27,0,1,0,15.27,15.27A15.29,15.29,0,0,0,227.83,161.54Z"/><path class="cls-5" d="M227.83,178.51a6.79,6.79,0,1,1,6.79-6.79A6.8,6.8,0,0,1,227.83,178.51Zm0-10.19a3.4,3.4,0,1,0,3.4,3.4A3.4,3.4,0,0,0,227.83,168.32Z"/><path class="cls-5" d="M227.83,195.47A18.7,18.7,0,0,1,218.5,193a1.7,1.7,0,0,1-.85-1.47V187a5.2,5.2,0,0,1,5.26-5.12h9.85A5.19,5.19,0,0,1,238,187v4.47a1.7,1.7,0,0,1-.84,1.47A18.74,18.74,0,0,1,227.83,195.47Zm-6.79-5a15.42,15.42,0,0,0,13.58,0V187a1.81,1.81,0,0,0-1.86-1.73h-9.85A1.81,1.81,0,0,0,221,187Z"/><path class="cls-6" d="M199.11,188.57a1.66,1.66,0,0,1-1.29-.6,1.69,1.69,0,0,1,.18-2.39l11.76-10.06A1.7,1.7,0,0,1,212,178.1l-11.76,10.06A1.71,1.71,0,0,1,199.11,188.57Z"/><path class="cls-6" d="M248.2,205.66a1.7,1.7,0,0,1-1.36-.68L236.66,191.4a1.69,1.69,0,0,1,2.71-2l10.18,13.57a1.7,1.7,0,0,1-.34,2.38A1.66,1.66,0,0,1,248.2,205.66Z"/><path class="cls-6" d="M224.79,236.36a1.69,1.69,0,0,1-1-3.05l9.48-7.11a1.7,1.7,0,1,1,2,2.71L225.81,236A1.69,1.69,0,0,1,224.79,236.36Z"/><path class="cls-6" d="M192.2,243H180.32a1.7,1.7,0,1,1,0-3.4H192.2a1.7,1.7,0,0,1,0,3.4Z"/><path class="cls-6" d="M187.11,171.72a6.79,6.79,0,1,1,6.78-6.79A6.8,6.8,0,0,1,187.11,171.72Zm0-10.18a3.39,3.39,0,1,0,3.39,3.39A3.4,3.4,0,0,0,187.11,161.54Z"/><path class="cls-6" d="M187.11,183.6a1.7,1.7,0,0,1-1.7-1.7V170a1.7,1.7,0,1,1,3.39,0V181.9A1.7,1.7,0,0,1,187.11,183.6Z"/></g></g></svg>