<?xml version="1.0" encoding="utf-8"?>
<!-- Generator: Adobe Illustrator 21.1.0, SVG Export Plug-In . SVG Version: 6.00 Build 0)  -->
<svg version="1.1" id="Layer_1" xmlns="http://www.w3.org/2000/svg" xmlns:xlink="http://www.w3.org/1999/xlink" x="0px" y="0px"
	 viewBox="0 0 125 125" style="enable-background:new 0 0 125 125;" xml:space="preserve">
<style type="text/css">
	.st0{fill:#3B4C85;}
	.st1{opacity:0.12;}
	.st2{fill:#FFFFFF;}
	.st3{opacity:0.25;fill:#FFFFFF;stroke:#FFFFFF;stroke-width:0.8907;stroke-miterlimit:10;enable-background:new    ;}
	.st4{opacity:0.24;fill:#FFFFFF;stroke:#FFFFFF;stroke-width:0.8907;stroke-miterlimit:10;enable-background:new    ;}
	.st5{opacity:0.41;fill:#FFFFFF;stroke:#FFFFFF;stroke-width:0.8907;stroke-miterlimit:10;enable-background:new    ;}
	.st6{opacity:0.32;fill:#FFFFFF;stroke:#FFFFFF;stroke-width:0.8907;stroke-miterlimit:10;enable-background:new    ;}
	.st7{opacity:0.18;fill:#FFFFFF;stroke:#FFFFFF;stroke-width:0.8907;stroke-miterlimit:10;enable-background:new    ;}
	.st8{opacity:0.17;fill:#FFFFFF;stroke:#FFFFFF;stroke-width:0.8907;stroke-miterlimit:10;enable-background:new    ;}
	.st9{opacity:0.48;fill:#FFFFFF;stroke:#FFFFFF;stroke-width:0.8907;stroke-miterlimit:10;enable-background:new    ;}
	.st10{opacity:0.31;fill:#FFFFFF;stroke:#FFFFFF;stroke-width:0.8907;stroke-miterlimit:10;enable-background:new    ;}
	.st11{opacity:0.49;fill:#FFFFFF;stroke:#FFFFFF;stroke-width:0.8907;stroke-miterlimit:10;enable-background:new    ;}
	.st12{opacity:0.33;fill:#FFFFFF;stroke:#FFFFFF;stroke-width:0.8907;stroke-miterlimit:10;enable-background:new    ;}
	.st13{opacity:0.15;fill:#FFFFFF;stroke:#FFFFFF;stroke-width:0.8907;stroke-miterlimit:10;enable-background:new    ;}
	.st14{opacity:0.53;fill:#FFFFFF;stroke:#FFFFFF;stroke-width:0.8907;stroke-miterlimit:10;enable-background:new    ;}
	.st15{opacity:0.6;fill:#FFFFFF;stroke:#FFFFFF;stroke-width:0.8907;stroke-miterlimit:10;enable-background:new    ;}
	.st16{opacity:0.3;fill:#FFFFFF;stroke:#FFFFFF;stroke-width:0.8907;stroke-miterlimit:10;enable-background:new    ;}
	.st17{opacity:0.37;fill:#FFFFFF;stroke:#FFFFFF;stroke-width:0.8907;stroke-miterlimit:10;enable-background:new    ;}
	.st18{opacity:0.46;fill:#FFFFFF;stroke:#FFFFFF;stroke-width:0.8907;stroke-miterlimit:10;enable-background:new    ;}
	.st19{opacity:0.55;fill:#FFFFFF;stroke:#FFFFFF;stroke-width:0.8907;stroke-miterlimit:10;enable-background:new    ;}
	.st20{opacity:0.42;fill:#FFFFFF;stroke:#FFFFFF;stroke-width:0.8907;stroke-miterlimit:10;enable-background:new    ;}
	.st21{opacity:0.2;fill:#FFFFFF;stroke:#FFFFFF;stroke-width:0.8907;stroke-miterlimit:10;enable-background:new    ;}
	.st22{opacity:0.54;fill:#FFFFFF;stroke:#FFFFFF;stroke-width:0.8907;stroke-miterlimit:10;enable-background:new    ;}
	.st23{opacity:0.27;fill:#FFFFFF;stroke:#FFFFFF;stroke-width:0.8907;stroke-miterlimit:10;enable-background:new    ;}
	.st24{opacity:0.38;fill:#FFFFFF;stroke:#FFFFFF;stroke-width:0.8907;stroke-miterlimit:10;enable-background:new    ;}
	.st25{opacity:0.47;fill:#FFFFFF;stroke:#FFFFFF;stroke-width:0.8907;stroke-miterlimit:10;enable-background:new    ;}
	.st26{opacity:0.22;fill:#FFFFFF;enable-background:new    ;}
	.st27{opacity:0.5;fill:#FFFFFF;stroke:#FFFFFF;stroke-width:0.8907;stroke-miterlimit:10;enable-background:new    ;}
	.st28{opacity:0.16;fill:#FFFFFF;enable-background:new    ;}
	.st29{opacity:0.28;fill:#FFFFFF;enable-background:new    ;}
	.st30{opacity:0.15;fill:#FFFFFF;enable-background:new    ;}
	.st31{opacity:0.35;fill:#FFFFFF;stroke:#FFFFFF;stroke-width:0.8907;stroke-miterlimit:10;enable-background:new    ;}
	.st32{opacity:0.1;fill:#FFFFFF;stroke:#FFFFFF;stroke-width:0.8907;stroke-miterlimit:10;enable-background:new    ;}
	.st33{enable-background:new    ;}
	.st34{fill:none;stroke:#BDCBE5;stroke-miterlimit:10;}
	.st35{fill:#2B3C6D;}
</style>
<rect class="st0" width="125" height="125"/>
<g class="st1">
	<g>

			<ellipse transform="matrix(0.5259 -0.8505 0.8505 0.5259 -18.8839 -41.0533)" class="st2" cx="-46.3" cy="-3.6" rx="2.2" ry="2.2"/>

			<ellipse transform="matrix(0.5259 -0.8505 0.8505 0.5259 5.6194 -52.5117)" class="st2" cx="-44.3" cy="-31.3" rx="2.2" ry="2.2"/>

			<ellipse transform="matrix(0.5259 -0.8505 0.8505 0.5259 173.2869 -16.628)" class="st2" cx="71.7" cy="-163.8" rx="2.6" ry="2.6"/>

			<ellipse transform="matrix(0.5259 -0.8505 0.8505 0.5259 139.657 -33.8955)" class="st2" cx="39.4" cy="-142.2" rx="2.6" ry="2.6"/>

			<ellipse transform="matrix(0.5259 -0.8505 0.8505 0.5259 145.9688 14.0639)" class="st2" cx="85.6" cy="-123.9" rx="1.9" ry="1.9"/>
		<ellipse transform="matrix(0.5259 -0.8505 0.8505 0.5259 89.7359 -8.2309)" class="st2" cx="37.5" cy="-84.6" rx="2.3" ry="2.3"/>

			<ellipse transform="matrix(0.5259 -0.8505 0.8505 0.5259 109.8396 33.2669)" class="st2" cx="84.8" cy="-81.9" rx="1.8" ry="1.8"/>
		<ellipse transform="matrix(0.5259 -0.8505 0.8505 0.5259 99.81 -28.7763)" class="st2" cx="24.1" cy="-103.9" rx="2.1" ry="2.1"/>
		<ellipse transform="matrix(0.5259 -0.8505 0.8505 0.5259 -67.0106 17.7592)" class="st2" cx="-17.6" cy="69" rx="2.9" ry="2.9"/>

			<ellipse transform="matrix(0.5259 -0.8505 0.8505 0.5259 -114.2788 102.0077)" class="st2" cx="34.4" cy="153.5" rx="2.3" ry="2.3"/>
		<ellipse transform="matrix(0.5259 -0.8505 0.8505 0.5259 8.1246 51.9793)" class="st2" cx="50.7" cy="18.7" rx="2.3" ry="2.3"/>

			<ellipse transform="matrix(0.5259 -0.8505 0.8505 0.5259 -24.5671 161.8398)" class="st2" cx="132.9" cy="103" rx="2.7" ry="2.7"/>

			<ellipse transform="matrix(0.5259 -0.8505 0.8505 0.5259 -79.8658 141.2949)" class="st2" cx="86.8" cy="142.3" rx="1.8" ry="1.8"/>

			<ellipse transform="matrix(0.5259 -0.8505 0.8505 0.5259 -24.1188 125.5528)" class="st2" cx="100.6" cy="84.4" rx="2.2" ry="2.2"/>
		<ellipse transform="matrix(0.5259 -0.8505 0.8505 0.5259 -20.0664 84.161)" class="st2" cx="65.5" cy="60.1" rx="1.9" ry="1.9"/>
		<ellipse transform="matrix(0.5259 -0.8505 0.8505 0.5259 -50.5051 99.9904)" class="st2" cx="64.4" cy="95.3" rx="1.9" ry="1.9"/>

			<ellipse transform="matrix(0.5259 -0.8505 0.8505 0.5259 17.3553 135.7145)" class="st2" cx="130.4" cy="52.3" rx="2.4" ry="2.4"/>

			<ellipse transform="matrix(0.5259 -0.8505 0.8505 0.5259 140.3273 47.4483)" class="st2" cx="112.7" cy="-102.2" rx="2.5" ry="2.5"/>
		<ellipse transform="matrix(0.5259 -0.8505 0.8505 0.5259 77.8044 53.2114)" class="st2" cx="86.6" cy="-43.2" rx="1.7" ry="1.7"/>

			<ellipse transform="matrix(0.5259 -0.8505 0.8505 0.5259 111.6859 127.2248)" class="st2" cx="170" cy="-36.6" rx="2.6" ry="2.6"/>
		<ellipse transform="matrix(0.5259 -0.8505 0.8505 0.5259 39.6269 44.4713)" class="st2" cx="59.7" cy="-13.3" rx="2.9" ry="2.9"/>
		<ellipse transform="matrix(0.5259 -0.8505 0.8505 0.5259 80.0846 149.2218)" class="st2" cx="173.9" cy="2.8" rx="2.8" ry="2.8"/>
		<ellipse transform="matrix(0.5259 -0.8505 0.8505 0.5259 48.968 103.5664)" class="st2" cx="117.4" cy="7.9" rx="2.5" ry="2.5"/>
		<ellipse transform="matrix(0.5259 -0.8505 0.8505 0.5259 43.445 193.0475)" class="st2" cx="194.9" cy="57.6" rx="2.1" ry="2.1"/>
		<ellipse transform="matrix(0.5259 -0.8505 0.8505 0.5259 80.0848 149.2215)" class="st2" cx="173.9" cy="2.8" rx="3.4" ry="3.4"/>
		<ellipse transform="matrix(0.5259 -0.8505 0.8505 0.5259 80.0846 149.2221)" class="st2" cx="173.9" cy="2.8" rx="2.7" ry="2.7"/>
		<ellipse transform="matrix(0.5259 -0.8505 0.8505 0.5259 -43.1623 2.796)" class="st2" cx="-19.1" cy="40.1" rx="2.7" ry="2.7"/>
		<ellipse transform="matrix(0.5259 -0.8505 0.8505 0.5259 47.6977 -6.4274)" class="st2" cx="18.1" cy="-46" rx="3.4" ry="3.4"/>

			<ellipse transform="matrix(0.5259 -0.8505 0.8505 0.5259 -84.6726 -65.663)" class="st2" cx="-101.2" cy="43.1" rx="1.7" ry="1.7"/>

			<ellipse transform="matrix(0.5259 -0.8505 0.8505 0.5259 -92.7762 -31.5243)" class="st2" cx="-74.7" cy="67.5" rx="2.2" ry="2.2"/>

			<ellipse transform="matrix(0.5259 -0.8505 0.8505 0.5259 -18.8839 -41.0533)" class="st2" cx="-46.3" cy="-3.6" rx="2.2" ry="2.2"/>

			<ellipse transform="matrix(0.5259 -0.8505 0.8505 0.5259 -37.9027 -68.2372)" class="st2" cx="-80.2" cy="-0.1" rx="2.6" ry="2.6"/>

			<ellipse transform="matrix(0.5259 -0.8505 0.8505 0.5259 30.6196 -35.2542)" class="st2" cx="-16.3" cy="-45.1" rx="1.8" ry="1.8"/>

			<ellipse transform="matrix(0.5259 -0.8505 0.8505 0.5259 66.2013 -90.3643)" class="st2" cx="-48" cy="-104.6" rx="2.2" ry="2.2"/>
		<ellipse transform="matrix(0.5259 -0.8505 0.8505 0.5259 -134.1324 10.956)" class="st2" cx="-57.2" cy="125.8" rx="3" ry="3"/>
		<ellipse transform="matrix(0.5259 -0.8505 0.8505 0.5259 -67.0106 17.7592)" class="st2" cx="-17.6" cy="69" rx="2.9" ry="2.9"/>
		<ellipse transform="matrix(0.5259 -0.8505 0.8505 0.5259 -73.5202 57.2628)" class="st2" cx="14.6" cy="94.6" rx="2" ry="2"/>
		<ellipse transform="matrix(0.5259 -0.8505 0.8505 0.5259 1.4058 123.0595)" class="st2" cx="111.1" cy="60.3" rx="2.7" ry="2.7"/>

			<ellipse transform="matrix(0.5259 -0.8505 0.8505 0.5259 -24.5671 161.8398)" class="st2" cx="132.9" cy="103" rx="2.7" ry="2.7"/>
	</g>
	<g>
		<polygon class="st3" points="173.9,2.8 194.9,57.5 117.4,7.9 		"/>
		<polygon class="st4" points="-74.7,67.5 -101.2,43.2 -46.3,-3.6 		"/>
		<polygon class="st5" points="-101.2,43.2 -80.2,-0.1 -46.3,-3.6 		"/>
		<polygon class="st6" points="-80.2,-0.1 -44.2,-31.3 -46.3,-3.6 		"/>
		<polygon class="st7" points="-44.2,-31.3 -16.2,-45.1 -46.3,-3.6 		"/>
		<polygon class="st8" points="-44.2,-31.3 -47.9,-104.7 -16.2,-45.1 		"/>
		<polygon class="st9" points="-47.9,-104.7 24.2,-103.9 -16.2,-45.1 		"/>
		<polygon class="st5" points="-47.9,-104.7 39.4,-142.3 24.2,-103.9 		"/>
		<polygon class="st10" points="39.4,-142.3 71.7,-163.8 24.2,-103.9 		"/>
		<polygon class="st6" points="71.7,-163.8 37.6,-84.6 85.7,-123.9 		"/>
		<polygon class="st11" points="37.6,-84.6 84.9,-81.9 85.7,-123.9 		"/>
		<polygon class="st12" points="84.9,-81.9 112.7,-102.3 85.7,-123.9 		"/>
		<polygon class="st9" points="24.2,-103.9 37.6,-84.6 71.7,-163.8 		"/>
		<polygon class="st13" points="24.2,-103.9 18.2,-46 37.6,-84.6 		"/>
		<polygon class="st14" points="-16.2,-45.1 18.2,-46 -46.3,-3.6 		"/>
		<polygon class="st15" points="-19.1,40.1 -74.7,67.5 -46.3,-3.6 		"/>
		<polygon class="st3" points="-74.7,67.5 -57.1,125.8 -17.6,69 		"/>
		<polygon class="st16" points="-57.1,125.8 14.7,94.6 -17.6,69 		"/>
		<polygon class="st6" points="14.7,94.6 -57.1,125.8 34.5,153.4 		"/>
		<polygon class="st17" points="14.7,94.6 86.8,142.3 34.5,153.4 		"/>
		<polygon class="st18" points="14.7,94.6 50.8,18.7 65.6,60.1 		"/>
		<polygon class="st19" points="65.6,60.1 111.2,60.3 50.8,18.7 		"/>
		<polygon class="st20" points="111.2,60.3 132.9,103 130.4,52.3 		"/>
		<polygon class="st21" points="65.6,60.1 100.7,84.3 111.2,60.3 		"/>
		<polygon class="st22" points="100.7,84.3 132.9,103 111.2,60.3 		"/>
		<polygon class="st23" points="100.7,84.3 86.8,142.3 132.9,103 		"/>
		<polygon class="st13" points="100.7,84.3 64.5,95.2 65.6,60.1 		"/>
		<polygon class="st8" points="64.5,95.2 86.8,142.3 14.7,94.6 		"/>
		<polygon class="st24" points="117.4,7.9 194.9,57.5 130.4,52.3 		"/>
		<polygon class="st25" points="86.6,-43.2 112.7,-102.3 170.1,-36.7 		"/>
		<polygon class="st8" points="117.4,7.9 59.8,-13.3 170.1,-36.7 		"/>
		<polygon class="st6" points="59.8,-13.3 86.6,-43.2 170.1,-36.7 		"/>
		<polygon class="st26" points="84.9,-81.9 112.7,-102.3 85.7,-123.9 		"/>
		<polygon class="st11" points="117.4,7.9 173.9,2.8 170.1,-36.7 		"/>
		<polygon class="st27" points="86.6,-43.2 84.9,-81.9 37.6,-84.6 		"/>
		<polygon class="st28" points="-101.2,43.2 -80.2,-0.1 -46.3,-3.6 		"/>
		<polygon class="st29" points="-44.2,-31.3 -47.9,-104.7 -16.2,-45.1 		"/>
		<polygon class="st30" points="100.7,84.3 86.8,142.3 132.9,103 		"/>
		<polygon class="st19" points="59.8,-13.3 18.2,-46 86.6,-43.2 		"/>
		<polygon class="st22" points="-19.1,40.1 -17.6,69 50.8,18.7 		"/>
		<polygon class="st14" points="50.8,18.7 59.8,-13.3 117.4,7.9 		"/>
		<polygon class="st31" points="50.8,18.7 111.2,60.3 117.4,7.9 		"/>
		<polygon class="st32" points="59.8,-13.3 -19.1,40.1 18.2,-46 		"/>
	</g>
</g>
<g id="ICOmarks">
	<g id="IC">
		<path class="st2" d="M26.1,103h-2.7V90.6h2.7V103z"/>
		<path class="st2" d="M33.1,103c-0.8,0-1.6-0.2-2.3-0.4c-0.7-0.2-1.4-0.7-2-1.3c-0.7-0.7-1-1.2-1.3-2c-0.2-0.7-0.4-1.5-0.4-2.3
			s0.2-1.6,0.4-2.4c0.2-0.7,0.7-1.4,1.3-2c0.7-0.7,1.2-1.1,2.1-1.3c0.8-0.2,1.5-0.4,2.3-0.4s1.6,0.2,2.3,0.4c0.7,0.2,1.4,0.7,2,1.3
			l-2.1,2c-0.3-0.3-0.7-0.5-1.2-0.7c-0.3-0.2-0.8-0.2-1.2-0.2c-0.3,0-0.8,0.1-1.2,0.2c-0.3,0.2-0.8,0.3-1.1,0.7
			c-0.2,0.3-0.5,0.7-0.7,1.1c-0.2,0.3-0.2,0.8-0.2,1.2s0.1,0.9,0.2,1.2s0.3,0.8,0.7,1.1c0.3,0.3,0.7,0.5,1.1,0.7
			c0.3,0.2,0.8,0.2,1.2,0.2c0.3,0,0.8-0.1,1.2-0.2c0.3-0.2,0.8-0.3,1.2-0.7l2,2c-0.7,0.7-1.2,1.1-2,1.3
			C34.7,102.8,33.9,103,33.1,103z"/>
	</g>
	<g id="marks">
		<path class="st2" d="M64.6,91.5c1.2,0,2.2,0.3,3,1.1c0.7,0.7,1.2,1.8,1.2,3.2v5.6h-1v-5.6c0-1.1-0.3-1.9-0.8-2.5
			c-0.5-0.5-1.3-0.8-2.4-0.8c-0.7,0-1.2,0.2-1.8,0.3c-0.5,0.2-1.1,0.7-1.5,1.4c0.2,0.4,0.2,1,0.2,1.6v5.5h-1v-5.5
			c0-2.2-1.1-3.4-3.3-3.4c-1.2,0-2.2,0.5-3.1,1.6v7.5h-1v-9.6h0.8l0.2,1c0.9-0.9,2-1.3,3.2-1.3c1.6,0,2.7,0.7,3.6,2
			c0.5-0.7,1.2-1.2,1.7-1.4C62.9,91.7,63.7,91.5,64.6,91.5z"/>
		<path class="st2" d="M70.2,98.7c0-0.7,0.1-1.2,0.2-1.6s0.5-0.8,1-1.1c0.3-0.2,0.9-0.4,1.3-0.7c0.5-0.2,1.1-0.2,1.6-0.2
			c0.8,0,1.5,0.2,2.2,0.5s1.2,0.7,1.5,1.2v-0.3c0-1.3-0.2-2.3-0.8-3.1c-0.5-0.7-1.3-1-2.5-1c-0.7,0-1.3,0.2-2,0.3
			c-0.7,0.2-1.2,0.7-1.5,1.1L70.7,93c0.4-0.5,1.1-0.9,1.8-1.2s1.4-0.2,2.2-0.2c1.4,0,2.5,0.3,3.2,1.2c0.7,0.8,1.1,2,1.1,3.6v5.1
			h-0.8l-0.2-1c-0.3,0.3-0.9,0.7-1.6,0.9c-0.7,0.2-1.3,0.3-2,0.3c-1.2,0-2.2-0.2-3.1-0.7C70.7,100.6,70.3,99.7,70.2,98.7z
			 M78.1,99.6v-1.5c-0.2-0.4-0.7-0.9-1.3-1.3c-0.7-0.3-1.4-0.7-2.2-0.7c-0.3,0-0.8,0-1.2,0.1s-0.7,0.2-1.1,0.3s-0.7,0.4-0.8,0.8
			c-0.2,0.3-0.2,0.8-0.2,1.2c0,0.7,0.3,1.2,1,1.6s1.3,0.5,2.2,0.7c0.7,0,1.3-0.1,2-0.3C77.1,100.4,77.6,100.1,78.1,99.6z"/>
		<path class="st2" d="M85.6,91.6l-0.2,1c-0.1,0-0.2,0-0.3,0c-1.5,0-2.6,0.5-3.3,1.5v7.3h-1v-9.5h0.8l0.2,1c0.9-0.9,2.1-1.3,3.4-1.3
			C85.3,91.6,85.4,91.6,85.6,91.6z"/>
		<path class="st2" d="M88.2,87.1v14.4h-1V87.1H88.2z M94.6,91.9L90,96.6l4.8,4.7h-1.4l-4.7-4.7l4.6-4.7H94.6z"/>
		<path class="st2" d="M103.2,92.5l-0.4,0.8c-0.2-0.2-0.7-0.4-1.3-0.7c-0.7-0.2-1.2-0.3-1.8-0.3s-1.2,0.2-1.6,0.3
			c-0.3,0.2-0.7,0.7-0.7,1.2c0,0.7,0.2,1,0.7,1.3c0.4,0.2,1.1,0.4,1.8,0.7c1,0.2,1.8,0.3,2.3,0.7c0.7,0.2,1,0.7,1.2,1.2
			s0.2,1.1,0.2,1.8c-0.2,0.8-0.7,1.4-1.5,1.8c-0.7,0.2-1.3,0.3-2.2,0.3c-0.7,0-1.5-0.2-2.2-0.3c-0.7-0.2-1.3-0.7-1.8-1l0.4-0.8
			l0.1,0.1c0.2,0.2,0.8,0.7,1.4,0.8c0.7,0.2,1.3,0.3,2,0.3c0.8,0,1.4-0.1,1.9-0.3c0.5-0.2,0.8-0.7,0.9-1.2c0.2-0.8-0.1-1.4-0.9-1.8
			c-0.5-0.2-1.2-0.3-2-0.7c-1-0.2-1.8-0.4-2.2-0.7c-0.9-0.5-1.2-1.2-1.2-2.2s0.4-1.5,1.2-2c0.5-0.3,1.2-0.5,2.2-0.5
			C101,91.4,102.2,91.8,103.2,92.5z"/>
	</g>
	<path id="logo" class="st2" d="M43.8,90.5c-3.4,0-6.1,2.7-6.1,6.1s2.7,6.1,6.1,6.1s6.1-2.7,6.1-6.1S47.2,90.5,43.8,90.5z
		 M46.7,97.5l0.5,3.1v0.1c0,0.1,0,0.2-0.1,0.2c0,0.1-0.1,0.1-0.2,0.1s-0.2,0-0.2-0.1L44,99.5l-2.7,1.5c-0.1,0-0.2,0.1-0.2,0.1
		c-0.1,0-0.2,0-0.2-0.1s-0.1-0.2-0.1-0.2v-0.1l0.5-3.2L39,95.3c-0.1-0.1-0.2-0.2-0.2-0.2c0-0.2,0.1-0.2,0.3-0.2l3.2-0.4l1.4-2.9
		c0.1-0.2,0.2-0.2,0.2-0.2c0.1,0,0.2,0.1,0.2,0.2l1.4,2.9l3.2,0.4c0.2,0,0.3,0.2,0.3,0.2c0,0.1,0,0.2-0.2,0.2L46.7,97.5z"/>
</g>
<g class="st33">
	
	
	
	
	
	
	
	
	<path id="major-digit8_" class="st2" d="M38.8,19.9c4.3,0,7.7,0.8,10.1,2.6c2.4,1.7,3.6,4.1,3.6,7.4c0,2.1-0.7,4.1-1.7,5.6c-1.2,1.6-2.9,3.1-5.3,4.3 c3.1,1.7,5.1,3.4,6.5,5.1c1.3,1.7,1.9,3.6,1.9,5.5c0,3.7-1.3,6.5-4.1,8.5c-2.6,1.9-6.3,3.1-11.1,3.1s-8.5-0.9-11.1-2.8 c-2.6-1.9-3.9-4.8-3.9-8.4c0-2.4,0.7-4.3,1.7-6.1c1.2-1.6,3.1-3.2,5.8-4.5c-2.1-1.4-3.7-3.1-4.8-4.6C25.4,34,25,32,25,30.1 c0-3.2,1.3-5.6,3.7-7.4C31.1,20.7,34.5,19.9,38.8,19.9z M34,50.1c0,1.2,0.5,2.1,1.3,2.7c0.8,0.7,1.9,1.2,3.4,1.2c3.2,0,5-1.3,5-3.6 c0-1-0.3-1.7-1.2-2.7c-0.8-1-1.9-1.9-3.9-3.1c-1.6,0.8-2.9,1.7-3.6,2.6C34.3,48.2,34,49.2,34,50.1z M38.8,27.9 c-1,0-1.7,0.3-2.4,0.8s-1,1.3-1,2.1c0,1.6,1.2,3.1,3.2,4.1c1.3-0.8,2.2-1.4,2.7-2.1s0.8-1.3,0.8-2.1c0-1-0.3-1.6-1-2.1 C40.5,28.2,39.6,27.9,38.8,27.9z"/>
	
	
	<path id="dot-digit" class="st2" d="M57.9,56.7c0-1.7,0.5-3.1,1.4-4.1c1-1,2.6-1.4,4.5-1.4c1.7,0,3.2,0.5,4.1,1.4c1,1,1.4,2.2,1.4,4.1 c0,1.6-0.5,3.1-1.4,3.9c-1,1-2.4,1.4-4.1,1.4s-3.4-0.5-4.3-1.4C58.6,59.7,57.9,58.5,57.9,56.7z"/>
	
	
	
	
	
	<path id="minor-digit5_" class="st2" d="M90.7,34.5c2.4,0,4.5,0.5,6.5,1.6c1.9,1.2,3.4,2.6,4.5,4.6c1.2,1.9,1.6,4.3,1.6,6.9c0,4.5-1.4,8-4.1,10.6 c-2.7,2.4-6.9,3.7-12.5,3.7c-4.8,0-8.7-0.8-11.8-2.2v-8.9c1.6,0.8,3.6,1.3,5.5,1.9c2.1,0.5,3.9,0.8,5.3,0.8c2.1,0,3.7-0.5,4.6-1.3 s1.6-2.1,1.6-3.9c0-1.6-0.5-2.7-1.6-3.7c-1.2-0.8-2.9-1.3-5.1-1.3c-1.7,0-3.6,0.3-5.6,1l-4.1-2.1L77,20.5h23.4v9.2h-14l-0.5,5.5 c1.4-0.3,2.6-0.5,3.1-0.5C89.7,34.7,90.1,34.5,90.7,34.5z"/>
	
	
	
	
	
</g>
<rect x="10.3" y="9.5" class="st34" width="105" height="105"/>
<g>
	<g id="part1_1_">
		<path class="st35" d="M29.8,71.1l1.5,3.6l3.8,0.3c0.3,0,0.4,0.4,0.2,0.5l-3,2.5l0.9,3.7c0.1,0.3-0.3,0.5-0.4,0.3l-3.3-2l-3.3,2
			c-0.3,0.1-0.5-0.1-0.4-0.3l0.9-3.7l-2.9-2.6c-0.2-0.2-0.1-0.5,0.2-0.5l3.8-0.3l1.5-3.6C29.3,70.8,29.7,70.8,29.8,71.1z"/>
	</g>
	<g id="part2_1_">
		<path class="st35" d="M46.8,71.1l1.5,3.6l3.8,0.3c0.3,0,0.4,0.4,0.2,0.5l-3,2.5l0.9,3.7c0.1,0.3-0.3,0.5-0.4,0.3l-3.3-2l-3.3,2
			c-0.3,0.1-0.5-0.1-0.4-0.3l0.9-3.7l-2.9-2.6c-0.2-0.2-0.1-0.5,0.2-0.5l3.8-0.3l1.5-3.6C46.3,70.8,46.7,70.8,46.8,71.1z"/>
	</g>
	<g id="part3_1_">
		<path class="st35" d="M63.8,71.1l1.5,3.6l3.8,0.3c0.3,0,0.4,0.4,0.2,0.5l-2.9,2.6l0.9,3.7c0.1,0.3-0.3,0.5-0.4,0.3l-3.3-2l-3.3,2
			c-0.3,0.1-0.5-0.1-0.4-0.3l0.9-3.7l-2.9-2.6c-0.2-0.2-0.1-0.5,0.2-0.5l3.8-0.3l1.5-3.6C63.4,70.8,63.7,70.8,63.8,71.1z"/>
	</g>
	<g id="part4_1_">
		<path class="st35" d="M80.8,71.1l1.5,3.6l3.8,0.3c0.3,0,0.4,0.4,0.2,0.5l-2.9,2.6l0.9,3.7c0.1,0.3-0.3,0.5-0.4,0.3l-3.3-2l-3.3,2
			c-0.3,0.1-0.5-0.1-0.4-0.3l0.9-3.7l-2.9-2.6c-0.2-0.2-0.1-0.5,0.2-0.5l3.9-0.3l1.5-3.6C80.4,70.8,80.7,70.8,80.8,71.1z"/>
	</g>
	<g id="part5_1_">
		<path class="st35" d="M98,71.1l1.5,3.6l3.8,0.3c0.3,0,0.4,0.4,0.2,0.5l-2.9,2.6l0.9,3.7c0.1,0.3-0.3,0.5-0.4,0.3l-3.3-2l-3.3,2
			c-0.3,0.1-0.5-0.1-0.4-0.3l0.9-3.7l-2.9-2.6C91.9,75.3,92,75,92.3,75l3.8-0.3l1.5-3.6C97.5,70.8,97.9,70.8,98,71.1z"/>
	</g>
</g>
    <path id="star1" class="st2" d="M29.3,71l-1.5,3.6L24,75c-0.3,0.1-0.4,0.3-0.2,0.5l2.9,2.6l-0.9,3.7c-0.1,0.3,0.1,0.5,0.4,0.3l3.3-2l0,0v-9.2 C29.4,70.9,29.3,70.9,29.3,71z"></path>
    <path id="star2" class="st2" d="M35.1,75l-3.8-0.3l-1.5-3.6c-0.1-0.1-0.2-0.2-0.3-0.2v9.2l3.3,2c0.1,0.1,0.5-0.1,0.4-0.3l-0.9-3.7l3-2.5 C35.5,75.4,35.4,75,35.1,75z"></path>
    <path id="star3" class="st2" d="M46.4,71l-1.5,3.6L41,75c-0.3,0.1-0.4,0.3-0.2,0.5l2.9,2.6l-0.9,3.7c-0.1,0.3,0.1,0.5,0.4,0.3l3.3-2v-9.2 C46.5,70.9,46.4,70.9,46.4,71z"></path>
    <path id="star4" class="st2" d="M52.1,75l-3.8-0.3l-1.5-3.6c0-0.1-0.2-0.2-0.3-0.2v9.2l0,0l3.3,2c0.1,0.1,0.5-0.1,0.4-0.3l-0.9-3.7l3-2.5 C52.5,75.4,52.4,75,52.1,75z"></path>
    <path id="star5" class="st2" d="M63.3,71.1l-1.5,3.6L58,75c-0.3,0.1-0.4,0.3-0.2,0.5l2.9,2.6l-0.9,3.7c-0.1,0.3,0.1,0.5,0.4,0.3l3.3-2l0,0v-9.3 C63.5,70.9,63.4,71,63.3,71.1z"></path>
    <path id="star6" class="st2" d="M69.1,75l-3.8-0.3l-1.5-3.6c0-0.1-0.1-0.2-0.3-0.2v9.3l3.3,2c0.1,0.1,0.5-0.1,0.4-0.3l-0.9-3.7l2.9-2.6 C69.5,75.4,69.4,75,69.1,75z"></path>
    <path id="star7" class="st2" d="M80.4,71.1l-1.5,3.6L75,75c-0.3,0.1-0.4,0.3-0.2,0.5l2.9,2.6l-0.9,3.7c-0.1,0.3,0.1,0.5,0.4,0.3l3.3-2l0,0v-9.3 C80.5,70.9,80.4,71,80.4,71.1z"></path>
    <path id="star8" class="st2" d="M86.1,75l-3.8-0.3l-1.5-3.6c-0.1-0.1-0.2-0.2-0.3-0.2v9.3l3.3,2c0.1,0.1,0.5-0.1,0.4-0.3l-0.9-3.7l2.9-2.6 C86.5,75.4,86.4,75,86.1,75z"></path>
    <path id="star9" class="st2" d="M97.5,71.1L96,74.7L92.2,75c-0.3,0.1-0.4,0.3-0.2,0.5l2.9,2.6L94,81.8c-0.1,0.3,0.1,0.5,0.4,0.3l3.3-2l0,0v-9.3 C97.7,70.9,97.6,71,97.5,71.1z"></path>
    
</svg>