<svg xmlns="http://www.w3.org/2000/svg" viewBox="0 0 195.43 194.94"><defs><style>.cls-1{fill:#d01920;}.cls-2{fill:#9f9f9f;}.cls-3{fill:#940000;}.cls-4{fill:gray;}.cls-5{fill:#dfdfdf;}.cls-6{fill:#f6f6f6;}</style></defs><title>Asset 53</title><g id="Layer_2" data-name="Layer 2"><g id="Layer_1-2" data-name="Layer 1"><path class="cls-1" d="M97.75,97.46,18.91,40.17C37.89,14.05,65.46,0,97.75,0Z"/><path class="cls-2" d="M97.75,97.46l30.12,92.68A97.45,97.45,0,0,1,5.07,127.57c-10-30.71-5.14-61.27,13.84-87.4Z"/><path class="cls-3" d="M97.75,97.46l92.69,30.11c-10,30.72-31.86,52.59-62.57,62.57Z"/><path class="cls-4" d="M97.75,97.46l92.69-30.12c6.65,20.48,6.65,39.76,0,60.23Z"/><path class="cls-5" d="M97.75,97.46,155,18.61c17.41,12.66,28.75,28.25,35.4,48.73Z"/><path d="M97.75,97.46V0C119.28,0,137.62,6,155,18.61Z"/><circle class="cls-6" cx="97.71" cy="97.47" r="73.58"/><path class="cls-3" d="M97.73,95.33c-8.48-3.81-12.91-8.21-13-15.4l0-.71c.37-6.88,4.9-12.78,13.62-14.27-7.73.8-13.12,5.42-14.29,11.86a21.36,21.36,0,0,0,12.09,37.07h0l.45,0h.1l.53,0c7.4.4,10.46-3.87,10.67-7.58C108.23,101.32,105.07,98.64,97.73,95.33Z"/><path class="cls-1" d="M124.92,94.12A21.38,21.38,0,0,0,105.86,71.7h0l-.45,0h-.11c-.17,0-.34,0-.52,0-7.41-.41-10.47,3.87-10.67,7.57-.27,5.08,2.89,7.75,10.22,11.06,8.49,3.82,12.92,8.21,13,15.4,0,.23,0,.47,0,.71-.37,6.89-4.9,12.78-13.62,14.27,7.73-.8,13.12-5.42,14.29-11.85A21.27,21.27,0,0,0,124.92,94.12Z"/></g></g></svg>