<svg xmlns="http://www.w3.org/2000/svg" viewBox="0 0 43.5 43.5"><defs><style>.cls-1{fill:#fff;stroke:#f2f2f2;stroke-miterlimit:10;stroke-width:0.5px;}.cls-2{fill:#d01920;fill-rule:evenodd;}</style></defs><title>Asset 121</title><g id="Layer_2" data-name="Layer 2"><g id="Layer_1-2" data-name="Layer 1"><circle class="cls-1" cx="21.75" cy="21.75" r="21.5"/><path class="cls-2" d="M19.33,25.8A3.63,3.63,0,0,1,16,23.29a3.53,3.53,0,0,0,1.55-.05l.05,0a3.62,3.62,0,0,1-2.35-1.66,3.53,3.53,0,0,1-.53-1.93,3.53,3.53,0,0,0,1.61.44,3.65,3.65,0,0,1-1.1-4.82A10.36,10.36,0,0,0,22.66,19c0-.15,0-.27-.06-.4a3.53,3.53,0,0,1,.53-2.37,3.49,3.49,0,0,1,2.46-1.63,3.54,3.54,0,0,1,3.17,1,.19.19,0,0,0,.19,0,7,7,0,0,0,2.1-.81l.05,0h0a3.74,3.74,0,0,1-1.55,2,7,7,0,0,0,2-.54h0l-.42.54a6.53,6.53,0,0,1-1.32,1.25.16.16,0,0,0-.06.12,10.1,10.1,0,0,1-1,4.83,10.31,10.31,0,0,1-1.95,2.85,9.59,9.59,0,0,1-5,2.77,10.42,10.42,0,0,1-2,.24,10.26,10.26,0,0,1-5.79-1.55L14,27.3a7.18,7.18,0,0,0,3.62-.5A6.9,6.9,0,0,0,19.33,25.8Z"/></g></g></svg>