<svg xmlns="http://www.w3.org/2000/svg" viewBox="0 0 43.5 43.5"><defs><style>.cls-1{fill:#fff;stroke:#f2f2f2;stroke-miterlimit:10;stroke-width:0.5px;}.cls-2{fill:#d01920;fill-rule:evenodd;}</style></defs><title>Asset 120</title><g id="Layer_2" data-name="Layer 2"><g id="Layer_1-2" data-name="Layer 1"><circle class="cls-1" cx="21.75" cy="21.75" r="21.5"/><path class="cls-2" d="M13.63,28.5A2.38,2.38,0,0,1,12.06,27c-.68-1.87-.88-9.69.43-11.23a2.57,2.57,0,0,1,1.7-.91c3.53-.37,14.43-.32,15.69.13a2.47,2.47,0,0,1,1.54,1.49c.75,1.93.77,9-.1,10.82a2.39,2.39,0,0,1-1.1,1.12C28.9,29.08,15.36,29.07,13.63,28.5Zm5.6-3.67,6.35-3.29-6.35-3.31Z"/></g></g></svg>